M48
;DRILL file {KiCad 4.0.2-stable} date 17/08/2016 11:40:57
;FORMAT={2:4/ absolute / inch / suppress leading zeros}
FMAT,2
INCH,TZ
T1C0.030
T2C0.031
T3C0.035
T4C0.039
T5C0.040
T6C0.043
T7C0.047
T8C0.063
T9C0.079
T10C0.120
%
G90
G05
M72
T1
X-27300Y-4500
X-27300Y-9500
X-26300Y-4500
X-26300Y-9500
X-25300Y-4500
X-25300Y-9500
X-24300Y-4500
X-24300Y-9500
X-23800Y-11000
X-23800Y-14000
X-23300Y-4500
X-23300Y-9500
X-22800Y-11000
X-22800Y-14000
X-22300Y-4500
X-22300Y-9500
X-21800Y-11000
X-21800Y-14000
X-21300Y-4500
X-21300Y-9500
X-20800Y-11000
X-20800Y-14000
X-20300Y-4500
X-20300Y-9500
T2
X-14550Y-9950
X-13350Y-9900
X-12650Y-4000
X-11250Y-19100
X-10249Y-17148
X-9500Y-17750
T3
X-7487Y-3750
X-6700Y-3750
X-5913Y-3750
T4
X-10153Y-10866
X-10153Y-11850
X-10153Y-12834
X-4444Y-10866
X-4444Y-12834
T5
X-25300Y-3250
X-24300Y-3250
X-23300Y-3250
X-23046Y-7380
X-22300Y-3250
X-22046Y-7380
X-21046Y-7380
X-20046Y-7380
X-17050Y-7250
X-17050Y-16250
X-17000Y-5800
X-16050Y-7250
X-16050Y-16250
X-16000Y-5800
X-15050Y-7250
X-15050Y-16250
X-15000Y-5800
X-14869Y-20325
X-14869Y-21325
X-14050Y-7250
X-14050Y-16250
X-13869Y-20325
X-13869Y-21325
X-13050Y-7250
X-13050Y-16250
X-12869Y-20325
X-12869Y-21325
X-12050Y-7250
X-12050Y-16250
X-11869Y-20325
X-11869Y-21325
X-11050Y-7250
X-11050Y-16250
X-10869Y-20325
X-10869Y-21325
X-10050Y-7250
X-10050Y-16250
X-9869Y-20325
X-9869Y-21325
X-9050Y-7250
X-9050Y-16250
X-8869Y-20325
X-8869Y-21325
X-8050Y-7250
X-8050Y-16250
X-7869Y-20325
X-7869Y-21325
X-7050Y-7250
X-7050Y-16250
X-6869Y-20325
X-6869Y-21325
X-6050Y-7250
X-6050Y-16250
X-5869Y-20325
X-5869Y-21325
X-5050Y-7250
X-5050Y-16250
X-4869Y-20325
X-4869Y-21325
X-4050Y-7250
X-4050Y-16250
X-3869Y-20325
X-3869Y-21325
X-3050Y-7250
X-3050Y-16250
X-2869Y-20325
T7
X-19184Y-2000
X-17216Y-2000
X-15134Y-2000
X-13166Y-2000
X-2050Y-3003
X-2050Y-5050
T8
X-8314Y-3750
X-5086Y-3750
T10
X-23932Y-1427
X-23932Y-20719
X-1097Y-1427
X-1097Y-20719
T5
X-2869Y-21325G85X-2869Y-21325
G05
T6
X-3270Y-3318G85X-3270Y-4105
G05
X-2444Y-5759G85X-1656Y-5759
G05
X-830Y-3318G85X-830Y-4105
G05
T9
X-7082Y-9645G85X-7318Y-9645
G05
X-7082Y-14055G85X-7318Y-14055
G05
T0
M30
