G04 #@! TF.FileFunction,Legend,Top*
%FSLAX46Y46*%
G04 Gerber Fmt 4.6, Leading zero omitted, Abs format (unit mm)*
G04 Created by KiCad (PCBNEW 4.0.2-stable) date 17/08/2016 11:41:13*
%MOMM*%
G01*
G04 APERTURE LIST*
%ADD10C,0.100000*%
%ADD11C,0.300000*%
%ADD12C,0.150000*%
%ADD13C,0.010000*%
G04 APERTURE END LIST*
D10*
D11*
X-21248572Y-12259571D02*
X-20962858Y-12259571D01*
X-20820000Y-12331000D01*
X-20677143Y-12473857D01*
X-20605715Y-12759571D01*
X-20605715Y-13259571D01*
X-20677143Y-13545286D01*
X-20820000Y-13688143D01*
X-20962858Y-13759571D01*
X-21248572Y-13759571D01*
X-21391429Y-13688143D01*
X-21534286Y-13545286D01*
X-21605715Y-13259571D01*
X-21605715Y-12759571D01*
X-21534286Y-12473857D01*
X-21391429Y-12331000D01*
X-21248572Y-12259571D01*
X-19962857Y-13759571D02*
X-19962857Y-12259571D01*
X-19105714Y-13759571D01*
X-19105714Y-12259571D01*
X-15144571Y-12259571D02*
X-14858857Y-12259571D01*
X-14715999Y-12331000D01*
X-14573142Y-12473857D01*
X-14501714Y-12759571D01*
X-14501714Y-13259571D01*
X-14573142Y-13545286D01*
X-14715999Y-13688143D01*
X-14858857Y-13759571D01*
X-15144571Y-13759571D01*
X-15287428Y-13688143D01*
X-15430285Y-13545286D01*
X-15501714Y-13259571D01*
X-15501714Y-12759571D01*
X-15430285Y-12473857D01*
X-15287428Y-12331000D01*
X-15144571Y-12259571D01*
X-13358856Y-12973857D02*
X-13858856Y-12973857D01*
X-13858856Y-13759571D02*
X-13858856Y-12259571D01*
X-13144570Y-12259571D01*
X-12073142Y-12973857D02*
X-12573142Y-12973857D01*
X-12573142Y-13759571D02*
X-12573142Y-12259571D01*
X-11858856Y-12259571D01*
D12*
X-13165000Y-16044000D02*
X-11265000Y-16044000D01*
X-13165000Y-14944000D02*
X-11265000Y-14944000D01*
X-12265000Y-15494000D02*
X-11815000Y-15494000D01*
X-12315000Y-15244000D02*
X-12315000Y-15744000D01*
X-12315000Y-15494000D02*
X-12065000Y-15244000D01*
X-12065000Y-15244000D02*
X-12065000Y-15744000D01*
X-12065000Y-15744000D02*
X-12315000Y-15494000D01*
X-67352000Y-14775000D02*
X-67352000Y-16675000D01*
X-66252000Y-14775000D02*
X-66252000Y-16675000D01*
X-66802000Y-15675000D02*
X-66802000Y-16125000D01*
X-66552000Y-15625000D02*
X-67052000Y-15625000D01*
X-66802000Y-15625000D02*
X-66552000Y-15875000D01*
X-66552000Y-15875000D02*
X-67052000Y-15875000D01*
X-67052000Y-15875000D02*
X-66802000Y-15625000D01*
X-8977000Y-14359000D02*
X-8977000Y-15359000D01*
X-10327000Y-15359000D02*
X-10327000Y-14359000D01*
X-63492000Y-17740000D02*
X-62492000Y-17740000D01*
X-62492000Y-19090000D02*
X-63492000Y-19090000D01*
D11*
X-14749639Y-30099000D02*
G75*
G03X-14749639Y-30099000I-3538361J0D01*
G01*
X-18288000Y-23899000D02*
X-25088000Y-23899000D01*
X-25088000Y-23899000D02*
X-25088000Y-36299000D01*
X-25088000Y-36299000D02*
X-18288000Y-36299000D01*
X-11488000Y-30099000D02*
X-11488000Y-36299000D01*
X-11488000Y-36299000D02*
X-15288000Y-36299000D01*
X-11488000Y-30099000D02*
X-11488000Y-23899000D01*
X-11488000Y-23899000D02*
X-15488000Y-23899000D01*
X-18288000Y-23899000D02*
X-15488000Y-23899000D01*
X-18288000Y-36299000D02*
X-15288000Y-36299000D01*
X-18018000Y-11125000D02*
X-17518000Y-11625000D01*
X-17118000Y-11125000D02*
X-18018000Y-11125000D01*
X-18018000Y-11125000D02*
X-17518000Y-10625000D01*
X-16118000Y-11125000D02*
X-16618000Y-11525000D01*
X-17118000Y-11125000D02*
X-16118000Y-11125000D01*
X-16118000Y-11125000D02*
X-16618000Y-10625000D01*
X-13218000Y-11725000D02*
X-12718000Y-11725000D01*
X-17018000Y-11725000D02*
X-21318000Y-11725000D01*
X-17018000Y-7325000D02*
X-21218000Y-7325000D01*
X-13318000Y-7325000D02*
X-12818000Y-7325000D01*
X-17018000Y-11725000D02*
X-13218000Y-11725000D01*
X-17018000Y-7325000D02*
X-13318000Y-7325000D01*
D12*
X-501000Y-3625000D02*
G75*
G03X-501000Y-3625000I-2286000J0D01*
G01*
X-501000Y-52625000D02*
G75*
G03X-501000Y-52625000I-2286000J0D01*
G01*
X-58501000Y-52625000D02*
G75*
G03X-58501000Y-52625000I-2286000J0D01*
G01*
X-58501000Y-3625000D02*
G75*
G03X-58501000Y-3625000I-2286000J0D01*
G01*
D13*
G36*
X-37197591Y-36829108D02*
X-37094022Y-36838550D01*
X-37001709Y-36856878D01*
X-36920470Y-36884189D01*
X-36850124Y-36920576D01*
X-36790487Y-36966137D01*
X-36741377Y-37020966D01*
X-36702612Y-37085159D01*
X-36674010Y-37158812D01*
X-36672527Y-37163829D01*
X-36670189Y-37172875D01*
X-36668144Y-37183522D01*
X-36666366Y-37196780D01*
X-36664832Y-37213658D01*
X-36663516Y-37235168D01*
X-36662395Y-37262320D01*
X-36661443Y-37296124D01*
X-36660637Y-37337591D01*
X-36659951Y-37387731D01*
X-36659360Y-37447554D01*
X-36658841Y-37518071D01*
X-36658369Y-37600292D01*
X-36657919Y-37695228D01*
X-36657567Y-37778872D01*
X-36655250Y-38350372D01*
X-36953371Y-38350372D01*
X-36953371Y-38281429D01*
X-36953902Y-38251844D01*
X-36955329Y-38228675D01*
X-36957404Y-38215056D01*
X-36958814Y-38212769D01*
X-36965789Y-38218311D01*
X-36977959Y-38232275D01*
X-36987774Y-38245030D01*
X-37025861Y-38285382D01*
X-37074728Y-38317312D01*
X-37134676Y-38340924D01*
X-37206008Y-38356321D01*
X-37289024Y-38363607D01*
X-37335761Y-38364235D01*
X-37375942Y-38362906D01*
X-37418139Y-38359888D01*
X-37455744Y-38355714D01*
X-37470783Y-38353356D01*
X-37554875Y-38331794D01*
X-37630473Y-38299521D01*
X-37696866Y-38257387D01*
X-37753346Y-38206240D01*
X-37799202Y-38146929D01*
X-37833726Y-38080303D01*
X-37856207Y-38007210D01*
X-37865935Y-37928499D01*
X-37865561Y-37888439D01*
X-37584743Y-37888439D01*
X-37578265Y-37938796D01*
X-37559065Y-37982449D01*
X-37527490Y-38018999D01*
X-37483890Y-38048051D01*
X-37428614Y-38069207D01*
X-37424910Y-38070223D01*
X-37399340Y-38074759D01*
X-37362882Y-38078163D01*
X-37319119Y-38080391D01*
X-37271636Y-38081398D01*
X-37224017Y-38081141D01*
X-37179846Y-38079574D01*
X-37142708Y-38076654D01*
X-37123724Y-38073951D01*
X-37092779Y-38066207D01*
X-37061291Y-38055225D01*
X-37046829Y-38048751D01*
X-37019661Y-38031998D01*
X-36998337Y-38011239D01*
X-36982143Y-37984623D01*
X-36970367Y-37950298D01*
X-36962296Y-37906414D01*
X-36957219Y-37851118D01*
X-36955281Y-37810826D01*
X-36951354Y-37703080D01*
X-37179148Y-37706166D01*
X-37243688Y-37707106D01*
X-37295550Y-37708074D01*
X-37336572Y-37709193D01*
X-37368590Y-37710589D01*
X-37393442Y-37712385D01*
X-37412964Y-37714706D01*
X-37428994Y-37717677D01*
X-37443367Y-37721422D01*
X-37454114Y-37724796D01*
X-37504806Y-37747335D01*
X-37543203Y-37777422D01*
X-37569199Y-37814927D01*
X-37582690Y-37859717D01*
X-37584743Y-37888439D01*
X-37865561Y-37888439D01*
X-37865493Y-37881266D01*
X-37854491Y-37802000D01*
X-37831197Y-37728377D01*
X-37796431Y-37661646D01*
X-37751015Y-37603057D01*
X-37695770Y-37553859D01*
X-37631520Y-37515300D01*
X-37621832Y-37510812D01*
X-37598719Y-37500683D01*
X-37577823Y-37492345D01*
X-37557421Y-37485599D01*
X-37535793Y-37480245D01*
X-37511215Y-37476086D01*
X-37481966Y-37472920D01*
X-37446324Y-37470550D01*
X-37402567Y-37468775D01*
X-37348972Y-37467397D01*
X-37283818Y-37466217D01*
X-37229143Y-37465382D01*
X-36957000Y-37461372D01*
X-36954944Y-37374786D01*
X-36954597Y-37320061D01*
X-36956886Y-37277143D01*
X-36962427Y-37243464D01*
X-36971836Y-37216458D01*
X-36985730Y-37193559D01*
X-37003209Y-37173705D01*
X-37026960Y-37153162D01*
X-37053527Y-37137504D01*
X-37085745Y-37125726D01*
X-37126448Y-37116821D01*
X-37178473Y-37109786D01*
X-37185600Y-37109021D01*
X-37259809Y-37104926D01*
X-37332319Y-37107897D01*
X-37398567Y-37117634D01*
X-37427439Y-37124808D01*
X-37457803Y-37135178D01*
X-37481788Y-37148090D01*
X-37505640Y-37167259D01*
X-37517333Y-37178275D01*
X-37557704Y-37217377D01*
X-37672800Y-37130212D01*
X-37712700Y-37099753D01*
X-37742153Y-37076577D01*
X-37762479Y-37059467D01*
X-37774996Y-37047207D01*
X-37781024Y-37038581D01*
X-37781881Y-37032372D01*
X-37781097Y-37030341D01*
X-37767251Y-37011772D01*
X-37744044Y-36988208D01*
X-37714524Y-36962181D01*
X-37681739Y-36936222D01*
X-37648737Y-36912864D01*
X-37618567Y-36894638D01*
X-37616295Y-36893440D01*
X-37571255Y-36872121D01*
X-37526563Y-36855850D01*
X-37479083Y-36843956D01*
X-37425676Y-36835767D01*
X-37363205Y-36830613D01*
X-37312600Y-36828457D01*
X-37197591Y-36829108D01*
X-37197591Y-36829108D01*
G37*
X-37197591Y-36829108D02*
X-37094022Y-36838550D01*
X-37001709Y-36856878D01*
X-36920470Y-36884189D01*
X-36850124Y-36920576D01*
X-36790487Y-36966137D01*
X-36741377Y-37020966D01*
X-36702612Y-37085159D01*
X-36674010Y-37158812D01*
X-36672527Y-37163829D01*
X-36670189Y-37172875D01*
X-36668144Y-37183522D01*
X-36666366Y-37196780D01*
X-36664832Y-37213658D01*
X-36663516Y-37235168D01*
X-36662395Y-37262320D01*
X-36661443Y-37296124D01*
X-36660637Y-37337591D01*
X-36659951Y-37387731D01*
X-36659360Y-37447554D01*
X-36658841Y-37518071D01*
X-36658369Y-37600292D01*
X-36657919Y-37695228D01*
X-36657567Y-37778872D01*
X-36655250Y-38350372D01*
X-36953371Y-38350372D01*
X-36953371Y-38281429D01*
X-36953902Y-38251844D01*
X-36955329Y-38228675D01*
X-36957404Y-38215056D01*
X-36958814Y-38212769D01*
X-36965789Y-38218311D01*
X-36977959Y-38232275D01*
X-36987774Y-38245030D01*
X-37025861Y-38285382D01*
X-37074728Y-38317312D01*
X-37134676Y-38340924D01*
X-37206008Y-38356321D01*
X-37289024Y-38363607D01*
X-37335761Y-38364235D01*
X-37375942Y-38362906D01*
X-37418139Y-38359888D01*
X-37455744Y-38355714D01*
X-37470783Y-38353356D01*
X-37554875Y-38331794D01*
X-37630473Y-38299521D01*
X-37696866Y-38257387D01*
X-37753346Y-38206240D01*
X-37799202Y-38146929D01*
X-37833726Y-38080303D01*
X-37856207Y-38007210D01*
X-37865935Y-37928499D01*
X-37865561Y-37888439D01*
X-37584743Y-37888439D01*
X-37578265Y-37938796D01*
X-37559065Y-37982449D01*
X-37527490Y-38018999D01*
X-37483890Y-38048051D01*
X-37428614Y-38069207D01*
X-37424910Y-38070223D01*
X-37399340Y-38074759D01*
X-37362882Y-38078163D01*
X-37319119Y-38080391D01*
X-37271636Y-38081398D01*
X-37224017Y-38081141D01*
X-37179846Y-38079574D01*
X-37142708Y-38076654D01*
X-37123724Y-38073951D01*
X-37092779Y-38066207D01*
X-37061291Y-38055225D01*
X-37046829Y-38048751D01*
X-37019661Y-38031998D01*
X-36998337Y-38011239D01*
X-36982143Y-37984623D01*
X-36970367Y-37950298D01*
X-36962296Y-37906414D01*
X-36957219Y-37851118D01*
X-36955281Y-37810826D01*
X-36951354Y-37703080D01*
X-37179148Y-37706166D01*
X-37243688Y-37707106D01*
X-37295550Y-37708074D01*
X-37336572Y-37709193D01*
X-37368590Y-37710589D01*
X-37393442Y-37712385D01*
X-37412964Y-37714706D01*
X-37428994Y-37717677D01*
X-37443367Y-37721422D01*
X-37454114Y-37724796D01*
X-37504806Y-37747335D01*
X-37543203Y-37777422D01*
X-37569199Y-37814927D01*
X-37582690Y-37859717D01*
X-37584743Y-37888439D01*
X-37865561Y-37888439D01*
X-37865493Y-37881266D01*
X-37854491Y-37802000D01*
X-37831197Y-37728377D01*
X-37796431Y-37661646D01*
X-37751015Y-37603057D01*
X-37695770Y-37553859D01*
X-37631520Y-37515300D01*
X-37621832Y-37510812D01*
X-37598719Y-37500683D01*
X-37577823Y-37492345D01*
X-37557421Y-37485599D01*
X-37535793Y-37480245D01*
X-37511215Y-37476086D01*
X-37481966Y-37472920D01*
X-37446324Y-37470550D01*
X-37402567Y-37468775D01*
X-37348972Y-37467397D01*
X-37283818Y-37466217D01*
X-37229143Y-37465382D01*
X-36957000Y-37461372D01*
X-36954944Y-37374786D01*
X-36954597Y-37320061D01*
X-36956886Y-37277143D01*
X-36962427Y-37243464D01*
X-36971836Y-37216458D01*
X-36985730Y-37193559D01*
X-37003209Y-37173705D01*
X-37026960Y-37153162D01*
X-37053527Y-37137504D01*
X-37085745Y-37125726D01*
X-37126448Y-37116821D01*
X-37178473Y-37109786D01*
X-37185600Y-37109021D01*
X-37259809Y-37104926D01*
X-37332319Y-37107897D01*
X-37398567Y-37117634D01*
X-37427439Y-37124808D01*
X-37457803Y-37135178D01*
X-37481788Y-37148090D01*
X-37505640Y-37167259D01*
X-37517333Y-37178275D01*
X-37557704Y-37217377D01*
X-37672800Y-37130212D01*
X-37712700Y-37099753D01*
X-37742153Y-37076577D01*
X-37762479Y-37059467D01*
X-37774996Y-37047207D01*
X-37781024Y-37038581D01*
X-37781881Y-37032372D01*
X-37781097Y-37030341D01*
X-37767251Y-37011772D01*
X-37744044Y-36988208D01*
X-37714524Y-36962181D01*
X-37681739Y-36936222D01*
X-37648737Y-36912864D01*
X-37618567Y-36894638D01*
X-37616295Y-36893440D01*
X-37571255Y-36872121D01*
X-37526563Y-36855850D01*
X-37479083Y-36843956D01*
X-37425676Y-36835767D01*
X-37363205Y-36830613D01*
X-37312600Y-36828457D01*
X-37197591Y-36829108D01*
G36*
X-34086800Y-38350372D02*
X-34384343Y-38350372D01*
X-34384343Y-38188866D01*
X-34416989Y-38218958D01*
X-34473074Y-38263688D01*
X-34536631Y-38302526D01*
X-34603398Y-38333276D01*
X-34669114Y-38353743D01*
X-34685033Y-38357023D01*
X-34736905Y-38362897D01*
X-34795516Y-38363725D01*
X-34854047Y-38359638D01*
X-34895971Y-38352972D01*
X-34969078Y-38330511D01*
X-35039274Y-38295358D01*
X-35103149Y-38249327D01*
X-35121091Y-38233173D01*
X-35171852Y-38179892D01*
X-35210720Y-38126607D01*
X-35239378Y-38069959D01*
X-35259510Y-38006590D01*
X-35272798Y-37933139D01*
X-35273273Y-37929457D01*
X-35279008Y-37873360D01*
X-35283366Y-37807946D01*
X-35286373Y-37735643D01*
X-35288051Y-37658877D01*
X-35288227Y-37621681D01*
X-34986221Y-37621681D01*
X-34985415Y-37678248D01*
X-34983479Y-37730185D01*
X-34980374Y-37774762D01*
X-34976064Y-37809248D01*
X-34975769Y-37810920D01*
X-34958341Y-37881349D01*
X-34933318Y-37939698D01*
X-34900178Y-37986560D01*
X-34858399Y-38022530D01*
X-34807460Y-38048200D01*
X-34754457Y-38062778D01*
X-34723036Y-38065713D01*
X-34683120Y-38065102D01*
X-34640153Y-38061438D01*
X-34599583Y-38055215D01*
X-34566854Y-38046927D01*
X-34562572Y-38045390D01*
X-34518612Y-38021821D01*
X-34478407Y-37987537D01*
X-34445922Y-37946336D01*
X-34431968Y-37920289D01*
X-34418672Y-37887683D01*
X-34408246Y-37855407D01*
X-34400379Y-37821123D01*
X-34394760Y-37782493D01*
X-34391078Y-37737179D01*
X-34389021Y-37682844D01*
X-34388279Y-37617149D01*
X-34388270Y-37592000D01*
X-34388619Y-37530485D01*
X-34389510Y-37481285D01*
X-34391064Y-37442207D01*
X-34393400Y-37411059D01*
X-34396638Y-37385646D01*
X-34400698Y-37364646D01*
X-34421337Y-37295650D01*
X-34449232Y-37239039D01*
X-34484900Y-37194345D01*
X-34528860Y-37161097D01*
X-34581627Y-37138828D01*
X-34643721Y-37127066D01*
X-34664360Y-37125511D01*
X-34735793Y-37126718D01*
X-34797492Y-37138569D01*
X-34849950Y-37161406D01*
X-34893660Y-37195572D01*
X-34929113Y-37241410D01*
X-34956802Y-37299264D01*
X-34969370Y-37338000D01*
X-34974575Y-37364991D01*
X-34978871Y-37403740D01*
X-34982221Y-37451514D01*
X-34984587Y-37505583D01*
X-34985933Y-37563215D01*
X-34986221Y-37621681D01*
X-35288227Y-37621681D01*
X-35288424Y-37580077D01*
X-35287518Y-37501668D01*
X-35285356Y-37426079D01*
X-35281961Y-37355737D01*
X-35277359Y-37293070D01*
X-35271573Y-37240503D01*
X-35266111Y-37207372D01*
X-35243023Y-37129012D01*
X-35207290Y-37057089D01*
X-35159749Y-36992665D01*
X-35101235Y-36936799D01*
X-35032586Y-36890552D01*
X-35004828Y-36876113D01*
X-34944261Y-36851018D01*
X-34884246Y-36835350D01*
X-34820113Y-36828200D01*
X-34758085Y-36828173D01*
X-34686738Y-36835200D01*
X-34621668Y-36851187D01*
X-34559776Y-36877362D01*
X-34497964Y-36914955D01*
X-34451818Y-36949743D01*
X-34429569Y-36967581D01*
X-34410169Y-36982902D01*
X-34397864Y-36992357D01*
X-34394898Y-36994136D01*
X-34392401Y-36993997D01*
X-34390332Y-36990821D01*
X-34388651Y-36983492D01*
X-34387318Y-36970893D01*
X-34386292Y-36951905D01*
X-34385534Y-36925412D01*
X-34385002Y-36890297D01*
X-34384658Y-36845441D01*
X-34384460Y-36789728D01*
X-34384369Y-36722040D01*
X-34384343Y-36641260D01*
X-34384343Y-36231286D01*
X-34086800Y-36231286D01*
X-34086800Y-38350372D01*
X-34086800Y-38350372D01*
G37*
X-34086800Y-38350372D02*
X-34384343Y-38350372D01*
X-34384343Y-38188866D01*
X-34416989Y-38218958D01*
X-34473074Y-38263688D01*
X-34536631Y-38302526D01*
X-34603398Y-38333276D01*
X-34669114Y-38353743D01*
X-34685033Y-38357023D01*
X-34736905Y-38362897D01*
X-34795516Y-38363725D01*
X-34854047Y-38359638D01*
X-34895971Y-38352972D01*
X-34969078Y-38330511D01*
X-35039274Y-38295358D01*
X-35103149Y-38249327D01*
X-35121091Y-38233173D01*
X-35171852Y-38179892D01*
X-35210720Y-38126607D01*
X-35239378Y-38069959D01*
X-35259510Y-38006590D01*
X-35272798Y-37933139D01*
X-35273273Y-37929457D01*
X-35279008Y-37873360D01*
X-35283366Y-37807946D01*
X-35286373Y-37735643D01*
X-35288051Y-37658877D01*
X-35288227Y-37621681D01*
X-34986221Y-37621681D01*
X-34985415Y-37678248D01*
X-34983479Y-37730185D01*
X-34980374Y-37774762D01*
X-34976064Y-37809248D01*
X-34975769Y-37810920D01*
X-34958341Y-37881349D01*
X-34933318Y-37939698D01*
X-34900178Y-37986560D01*
X-34858399Y-38022530D01*
X-34807460Y-38048200D01*
X-34754457Y-38062778D01*
X-34723036Y-38065713D01*
X-34683120Y-38065102D01*
X-34640153Y-38061438D01*
X-34599583Y-38055215D01*
X-34566854Y-38046927D01*
X-34562572Y-38045390D01*
X-34518612Y-38021821D01*
X-34478407Y-37987537D01*
X-34445922Y-37946336D01*
X-34431968Y-37920289D01*
X-34418672Y-37887683D01*
X-34408246Y-37855407D01*
X-34400379Y-37821123D01*
X-34394760Y-37782493D01*
X-34391078Y-37737179D01*
X-34389021Y-37682844D01*
X-34388279Y-37617149D01*
X-34388270Y-37592000D01*
X-34388619Y-37530485D01*
X-34389510Y-37481285D01*
X-34391064Y-37442207D01*
X-34393400Y-37411059D01*
X-34396638Y-37385646D01*
X-34400698Y-37364646D01*
X-34421337Y-37295650D01*
X-34449232Y-37239039D01*
X-34484900Y-37194345D01*
X-34528860Y-37161097D01*
X-34581627Y-37138828D01*
X-34643721Y-37127066D01*
X-34664360Y-37125511D01*
X-34735793Y-37126718D01*
X-34797492Y-37138569D01*
X-34849950Y-37161406D01*
X-34893660Y-37195572D01*
X-34929113Y-37241410D01*
X-34956802Y-37299264D01*
X-34969370Y-37338000D01*
X-34974575Y-37364991D01*
X-34978871Y-37403740D01*
X-34982221Y-37451514D01*
X-34984587Y-37505583D01*
X-34985933Y-37563215D01*
X-34986221Y-37621681D01*
X-35288227Y-37621681D01*
X-35288424Y-37580077D01*
X-35287518Y-37501668D01*
X-35285356Y-37426079D01*
X-35281961Y-37355737D01*
X-35277359Y-37293070D01*
X-35271573Y-37240503D01*
X-35266111Y-37207372D01*
X-35243023Y-37129012D01*
X-35207290Y-37057089D01*
X-35159749Y-36992665D01*
X-35101235Y-36936799D01*
X-35032586Y-36890552D01*
X-35004828Y-36876113D01*
X-34944261Y-36851018D01*
X-34884246Y-36835350D01*
X-34820113Y-36828200D01*
X-34758085Y-36828173D01*
X-34686738Y-36835200D01*
X-34621668Y-36851187D01*
X-34559776Y-36877362D01*
X-34497964Y-36914955D01*
X-34451818Y-36949743D01*
X-34429569Y-36967581D01*
X-34410169Y-36982902D01*
X-34397864Y-36992357D01*
X-34394898Y-36994136D01*
X-34392401Y-36993997D01*
X-34390332Y-36990821D01*
X-34388651Y-36983492D01*
X-34387318Y-36970893D01*
X-34386292Y-36951905D01*
X-34385534Y-36925412D01*
X-34385002Y-36890297D01*
X-34384658Y-36845441D01*
X-34384460Y-36789728D01*
X-34384369Y-36722040D01*
X-34384343Y-36641260D01*
X-34384343Y-36231286D01*
X-34086800Y-36231286D01*
X-34086800Y-38350372D01*
G36*
X-31080169Y-36829074D02*
X-30976981Y-36838406D01*
X-30885043Y-36856570D01*
X-30804133Y-36883682D01*
X-30734031Y-36919858D01*
X-30674514Y-36965213D01*
X-30625363Y-37019865D01*
X-30586354Y-37083928D01*
X-30557268Y-37157520D01*
X-30555361Y-37163829D01*
X-30552982Y-37172786D01*
X-30550900Y-37183188D01*
X-30549091Y-37196046D01*
X-30547529Y-37212375D01*
X-30546188Y-37233185D01*
X-30545043Y-37259490D01*
X-30544068Y-37292302D01*
X-30543239Y-37332633D01*
X-30542530Y-37381497D01*
X-30541915Y-37439905D01*
X-30541370Y-37508870D01*
X-30540868Y-37589404D01*
X-30540385Y-37682520D01*
X-30539940Y-37778872D01*
X-30537402Y-38350372D01*
X-30835600Y-38350372D01*
X-30835600Y-38281429D01*
X-30836214Y-38251805D01*
X-30837865Y-38228557D01*
X-30840266Y-38214837D01*
X-30841893Y-38212486D01*
X-30849283Y-38218030D01*
X-30860843Y-38232086D01*
X-30867007Y-38240927D01*
X-30899836Y-38278126D01*
X-30944645Y-38309763D01*
X-30999642Y-38334851D01*
X-31063034Y-38352407D01*
X-31073528Y-38354396D01*
X-31118939Y-38360062D01*
X-31173173Y-38363076D01*
X-31230881Y-38363443D01*
X-31286715Y-38361169D01*
X-31335328Y-38356258D01*
X-31348432Y-38354140D01*
X-31435309Y-38332279D01*
X-31512700Y-38300082D01*
X-31580193Y-38257825D01*
X-31637378Y-38205788D01*
X-31683842Y-38144248D01*
X-31699641Y-38116447D01*
X-31728283Y-38046798D01*
X-31744814Y-37973054D01*
X-31749465Y-37897491D01*
X-31748578Y-37887962D01*
X-31466812Y-37887962D01*
X-31460691Y-37938710D01*
X-31441978Y-37982300D01*
X-31410767Y-38018624D01*
X-31367151Y-38047578D01*
X-31311223Y-38069056D01*
X-31305495Y-38070644D01*
X-31280011Y-38075121D01*
X-31243613Y-38078390D01*
X-31199854Y-38080433D01*
X-31152286Y-38081228D01*
X-31104460Y-38080757D01*
X-31059929Y-38079000D01*
X-31022246Y-38075937D01*
X-30998493Y-38072343D01*
X-30946406Y-38056352D01*
X-30905988Y-38032428D01*
X-30876422Y-38000043D01*
X-30869648Y-37988784D01*
X-30853836Y-37948890D01*
X-30842943Y-37897387D01*
X-30837294Y-37836436D01*
X-30837027Y-37773429D01*
X-30839228Y-37708114D01*
X-31060571Y-37708114D01*
X-31123721Y-37708169D01*
X-31174254Y-37708406D01*
X-31214066Y-37708939D01*
X-31245056Y-37709879D01*
X-31269119Y-37711338D01*
X-31288152Y-37713428D01*
X-31304054Y-37716261D01*
X-31318720Y-37719950D01*
X-31332714Y-37724183D01*
X-31384258Y-37745867D01*
X-31423130Y-37774459D01*
X-31449589Y-37810274D01*
X-31463893Y-37853629D01*
X-31466812Y-37887962D01*
X-31748578Y-37887962D01*
X-31742469Y-37822382D01*
X-31724060Y-37750001D01*
X-31694470Y-37682622D01*
X-31653932Y-37622518D01*
X-31648367Y-37615930D01*
X-31611723Y-37580689D01*
X-31565008Y-37546521D01*
X-31512565Y-37516208D01*
X-31458737Y-37492536D01*
X-31452283Y-37490236D01*
X-31390771Y-37468923D01*
X-31115000Y-37465147D01*
X-30839228Y-37461372D01*
X-30839444Y-37352514D01*
X-30839729Y-37309346D01*
X-30840602Y-37277851D01*
X-30842388Y-37255188D01*
X-30845415Y-37238517D01*
X-30850006Y-37225000D01*
X-30855345Y-37213942D01*
X-30876339Y-37181915D01*
X-30902837Y-37156773D01*
X-30936786Y-37137553D01*
X-30980133Y-37123294D01*
X-31034826Y-37113035D01*
X-31067828Y-37109021D01*
X-31142939Y-37104916D01*
X-31216208Y-37108061D01*
X-31283105Y-37118158D01*
X-31310240Y-37124982D01*
X-31341154Y-37135549D01*
X-31365660Y-37148706D01*
X-31390111Y-37168190D01*
X-31401157Y-37178457D01*
X-31441977Y-37217392D01*
X-31556105Y-37130321D01*
X-31595732Y-37099849D01*
X-31624949Y-37076691D01*
X-31645081Y-37059614D01*
X-31657450Y-37047386D01*
X-31663380Y-37038775D01*
X-31664195Y-37032549D01*
X-31663380Y-37030442D01*
X-31649502Y-37011818D01*
X-31626260Y-36988207D01*
X-31596704Y-36962140D01*
X-31563883Y-36936154D01*
X-31530846Y-36912781D01*
X-31500643Y-36894557D01*
X-31498523Y-36893440D01*
X-31453483Y-36872121D01*
X-31408792Y-36855850D01*
X-31361312Y-36843956D01*
X-31307905Y-36835767D01*
X-31245434Y-36830613D01*
X-31194828Y-36828457D01*
X-31080169Y-36829074D01*
X-31080169Y-36829074D01*
G37*
X-31080169Y-36829074D02*
X-30976981Y-36838406D01*
X-30885043Y-36856570D01*
X-30804133Y-36883682D01*
X-30734031Y-36919858D01*
X-30674514Y-36965213D01*
X-30625363Y-37019865D01*
X-30586354Y-37083928D01*
X-30557268Y-37157520D01*
X-30555361Y-37163829D01*
X-30552982Y-37172786D01*
X-30550900Y-37183188D01*
X-30549091Y-37196046D01*
X-30547529Y-37212375D01*
X-30546188Y-37233185D01*
X-30545043Y-37259490D01*
X-30544068Y-37292302D01*
X-30543239Y-37332633D01*
X-30542530Y-37381497D01*
X-30541915Y-37439905D01*
X-30541370Y-37508870D01*
X-30540868Y-37589404D01*
X-30540385Y-37682520D01*
X-30539940Y-37778872D01*
X-30537402Y-38350372D01*
X-30835600Y-38350372D01*
X-30835600Y-38281429D01*
X-30836214Y-38251805D01*
X-30837865Y-38228557D01*
X-30840266Y-38214837D01*
X-30841893Y-38212486D01*
X-30849283Y-38218030D01*
X-30860843Y-38232086D01*
X-30867007Y-38240927D01*
X-30899836Y-38278126D01*
X-30944645Y-38309763D01*
X-30999642Y-38334851D01*
X-31063034Y-38352407D01*
X-31073528Y-38354396D01*
X-31118939Y-38360062D01*
X-31173173Y-38363076D01*
X-31230881Y-38363443D01*
X-31286715Y-38361169D01*
X-31335328Y-38356258D01*
X-31348432Y-38354140D01*
X-31435309Y-38332279D01*
X-31512700Y-38300082D01*
X-31580193Y-38257825D01*
X-31637378Y-38205788D01*
X-31683842Y-38144248D01*
X-31699641Y-38116447D01*
X-31728283Y-38046798D01*
X-31744814Y-37973054D01*
X-31749465Y-37897491D01*
X-31748578Y-37887962D01*
X-31466812Y-37887962D01*
X-31460691Y-37938710D01*
X-31441978Y-37982300D01*
X-31410767Y-38018624D01*
X-31367151Y-38047578D01*
X-31311223Y-38069056D01*
X-31305495Y-38070644D01*
X-31280011Y-38075121D01*
X-31243613Y-38078390D01*
X-31199854Y-38080433D01*
X-31152286Y-38081228D01*
X-31104460Y-38080757D01*
X-31059929Y-38079000D01*
X-31022246Y-38075937D01*
X-30998493Y-38072343D01*
X-30946406Y-38056352D01*
X-30905988Y-38032428D01*
X-30876422Y-38000043D01*
X-30869648Y-37988784D01*
X-30853836Y-37948890D01*
X-30842943Y-37897387D01*
X-30837294Y-37836436D01*
X-30837027Y-37773429D01*
X-30839228Y-37708114D01*
X-31060571Y-37708114D01*
X-31123721Y-37708169D01*
X-31174254Y-37708406D01*
X-31214066Y-37708939D01*
X-31245056Y-37709879D01*
X-31269119Y-37711338D01*
X-31288152Y-37713428D01*
X-31304054Y-37716261D01*
X-31318720Y-37719950D01*
X-31332714Y-37724183D01*
X-31384258Y-37745867D01*
X-31423130Y-37774459D01*
X-31449589Y-37810274D01*
X-31463893Y-37853629D01*
X-31466812Y-37887962D01*
X-31748578Y-37887962D01*
X-31742469Y-37822382D01*
X-31724060Y-37750001D01*
X-31694470Y-37682622D01*
X-31653932Y-37622518D01*
X-31648367Y-37615930D01*
X-31611723Y-37580689D01*
X-31565008Y-37546521D01*
X-31512565Y-37516208D01*
X-31458737Y-37492536D01*
X-31452283Y-37490236D01*
X-31390771Y-37468923D01*
X-31115000Y-37465147D01*
X-30839228Y-37461372D01*
X-30839444Y-37352514D01*
X-30839729Y-37309346D01*
X-30840602Y-37277851D01*
X-30842388Y-37255188D01*
X-30845415Y-37238517D01*
X-30850006Y-37225000D01*
X-30855345Y-37213942D01*
X-30876339Y-37181915D01*
X-30902837Y-37156773D01*
X-30936786Y-37137553D01*
X-30980133Y-37123294D01*
X-31034826Y-37113035D01*
X-31067828Y-37109021D01*
X-31142939Y-37104916D01*
X-31216208Y-37108061D01*
X-31283105Y-37118158D01*
X-31310240Y-37124982D01*
X-31341154Y-37135549D01*
X-31365660Y-37148706D01*
X-31390111Y-37168190D01*
X-31401157Y-37178457D01*
X-31441977Y-37217392D01*
X-31556105Y-37130321D01*
X-31595732Y-37099849D01*
X-31624949Y-37076691D01*
X-31645081Y-37059614D01*
X-31657450Y-37047386D01*
X-31663380Y-37038775D01*
X-31664195Y-37032549D01*
X-31663380Y-37030442D01*
X-31649502Y-37011818D01*
X-31626260Y-36988207D01*
X-31596704Y-36962140D01*
X-31563883Y-36936154D01*
X-31530846Y-36912781D01*
X-31500643Y-36894557D01*
X-31498523Y-36893440D01*
X-31453483Y-36872121D01*
X-31408792Y-36855850D01*
X-31361312Y-36843956D01*
X-31307905Y-36835767D01*
X-31245434Y-36830613D01*
X-31194828Y-36828457D01*
X-31080169Y-36829074D01*
G36*
X-28486210Y-36831357D02*
X-28433070Y-36835927D01*
X-28386106Y-36844668D01*
X-28341241Y-36858500D01*
X-28294400Y-36878346D01*
X-28259809Y-36895503D01*
X-28179594Y-36944450D01*
X-28110585Y-37002570D01*
X-28052577Y-37070063D01*
X-28006107Y-37145686D01*
X-27984834Y-37189434D01*
X-27967958Y-37230539D01*
X-27955009Y-37271534D01*
X-27945520Y-37314956D01*
X-27939021Y-37363338D01*
X-27935044Y-37419217D01*
X-27933120Y-37485127D01*
X-27932743Y-37542480D01*
X-27932743Y-37704380D01*
X-28872543Y-37708114D01*
X-28870281Y-37748029D01*
X-28860466Y-37816625D01*
X-28839749Y-37880763D01*
X-28809293Y-37938495D01*
X-28770263Y-37987871D01*
X-28723823Y-38026945D01*
X-28693191Y-38044486D01*
X-28625432Y-38069280D01*
X-28553381Y-38081357D01*
X-28479164Y-38081022D01*
X-28404905Y-38068575D01*
X-28332729Y-38044322D01*
X-28264761Y-38008563D01*
X-28221301Y-37977237D01*
X-28200935Y-37961016D01*
X-28185200Y-37949174D01*
X-28177191Y-37944029D01*
X-28176911Y-37943972D01*
X-28170542Y-37948456D01*
X-28154915Y-37960946D01*
X-28131787Y-37979991D01*
X-28102915Y-38004146D01*
X-28070056Y-38031961D01*
X-28067388Y-38034233D01*
X-27961419Y-38124494D01*
X-27984184Y-38150422D01*
X-28024712Y-38189680D01*
X-28076130Y-38228847D01*
X-28134943Y-38265900D01*
X-28197657Y-38298817D01*
X-28260777Y-38325576D01*
X-28317687Y-38343390D01*
X-28357935Y-38350989D01*
X-28408174Y-38356828D01*
X-28463967Y-38360707D01*
X-28520875Y-38362427D01*
X-28574461Y-38361787D01*
X-28620284Y-38358587D01*
X-28629428Y-38357444D01*
X-28675073Y-38348674D01*
X-28726820Y-38334867D01*
X-28778631Y-38317894D01*
X-28824468Y-38299622D01*
X-28839927Y-38292294D01*
X-28905630Y-38251788D01*
X-28967512Y-38199384D01*
X-29023027Y-38137639D01*
X-29069625Y-38069112D01*
X-29079145Y-38052041D01*
X-29100105Y-38006453D01*
X-29120309Y-37950716D01*
X-29138376Y-37889181D01*
X-29152925Y-37826199D01*
X-29156034Y-37809714D01*
X-29162583Y-37760621D01*
X-29166983Y-37701221D01*
X-29169233Y-37635564D01*
X-29169330Y-37567698D01*
X-29167273Y-37501671D01*
X-29163460Y-37447243D01*
X-28873436Y-37447243D01*
X-28871037Y-37460309D01*
X-28870409Y-37461086D01*
X-28862560Y-37461903D01*
X-28841688Y-37462663D01*
X-28809286Y-37463347D01*
X-28766844Y-37463937D01*
X-28715854Y-37464414D01*
X-28657809Y-37464761D01*
X-28594200Y-37464959D01*
X-28548390Y-37465000D01*
X-28230285Y-37465000D01*
X-28230412Y-37441414D01*
X-28233781Y-37405794D01*
X-28242596Y-37363104D01*
X-28255401Y-37319042D01*
X-28270737Y-37279308D01*
X-28273203Y-37273997D01*
X-28305775Y-37221186D01*
X-28347137Y-37178289D01*
X-28395462Y-37145325D01*
X-28448921Y-37122316D01*
X-28505686Y-37109279D01*
X-28563928Y-37106235D01*
X-28621819Y-37113203D01*
X-28677531Y-37130204D01*
X-28729235Y-37157256D01*
X-28775103Y-37194379D01*
X-28813307Y-37241593D01*
X-28828479Y-37268029D01*
X-28839574Y-37293956D01*
X-28850151Y-37325712D01*
X-28859519Y-37360107D01*
X-28866984Y-37393953D01*
X-28871854Y-37424061D01*
X-28873436Y-37447243D01*
X-29163460Y-37447243D01*
X-29163060Y-37441534D01*
X-29156688Y-37391334D01*
X-29156250Y-37388800D01*
X-29131767Y-37282618D01*
X-29097597Y-37186839D01*
X-29053884Y-37101641D01*
X-29000771Y-37027202D01*
X-28938402Y-36963698D01*
X-28866919Y-36911308D01*
X-28786465Y-36870209D01*
X-28718629Y-36846408D01*
X-28693494Y-36839771D01*
X-28669372Y-36835165D01*
X-28642695Y-36832243D01*
X-28609897Y-36830661D01*
X-28567410Y-36830074D01*
X-28549600Y-36830039D01*
X-28486210Y-36831357D01*
X-28486210Y-36831357D01*
G37*
X-28486210Y-36831357D02*
X-28433070Y-36835927D01*
X-28386106Y-36844668D01*
X-28341241Y-36858500D01*
X-28294400Y-36878346D01*
X-28259809Y-36895503D01*
X-28179594Y-36944450D01*
X-28110585Y-37002570D01*
X-28052577Y-37070063D01*
X-28006107Y-37145686D01*
X-27984834Y-37189434D01*
X-27967958Y-37230539D01*
X-27955009Y-37271534D01*
X-27945520Y-37314956D01*
X-27939021Y-37363338D01*
X-27935044Y-37419217D01*
X-27933120Y-37485127D01*
X-27932743Y-37542480D01*
X-27932743Y-37704380D01*
X-28872543Y-37708114D01*
X-28870281Y-37748029D01*
X-28860466Y-37816625D01*
X-28839749Y-37880763D01*
X-28809293Y-37938495D01*
X-28770263Y-37987871D01*
X-28723823Y-38026945D01*
X-28693191Y-38044486D01*
X-28625432Y-38069280D01*
X-28553381Y-38081357D01*
X-28479164Y-38081022D01*
X-28404905Y-38068575D01*
X-28332729Y-38044322D01*
X-28264761Y-38008563D01*
X-28221301Y-37977237D01*
X-28200935Y-37961016D01*
X-28185200Y-37949174D01*
X-28177191Y-37944029D01*
X-28176911Y-37943972D01*
X-28170542Y-37948456D01*
X-28154915Y-37960946D01*
X-28131787Y-37979991D01*
X-28102915Y-38004146D01*
X-28070056Y-38031961D01*
X-28067388Y-38034233D01*
X-27961419Y-38124494D01*
X-27984184Y-38150422D01*
X-28024712Y-38189680D01*
X-28076130Y-38228847D01*
X-28134943Y-38265900D01*
X-28197657Y-38298817D01*
X-28260777Y-38325576D01*
X-28317687Y-38343390D01*
X-28357935Y-38350989D01*
X-28408174Y-38356828D01*
X-28463967Y-38360707D01*
X-28520875Y-38362427D01*
X-28574461Y-38361787D01*
X-28620284Y-38358587D01*
X-28629428Y-38357444D01*
X-28675073Y-38348674D01*
X-28726820Y-38334867D01*
X-28778631Y-38317894D01*
X-28824468Y-38299622D01*
X-28839927Y-38292294D01*
X-28905630Y-38251788D01*
X-28967512Y-38199384D01*
X-29023027Y-38137639D01*
X-29069625Y-38069112D01*
X-29079145Y-38052041D01*
X-29100105Y-38006453D01*
X-29120309Y-37950716D01*
X-29138376Y-37889181D01*
X-29152925Y-37826199D01*
X-29156034Y-37809714D01*
X-29162583Y-37760621D01*
X-29166983Y-37701221D01*
X-29169233Y-37635564D01*
X-29169330Y-37567698D01*
X-29167273Y-37501671D01*
X-29163460Y-37447243D01*
X-28873436Y-37447243D01*
X-28871037Y-37460309D01*
X-28870409Y-37461086D01*
X-28862560Y-37461903D01*
X-28841688Y-37462663D01*
X-28809286Y-37463347D01*
X-28766844Y-37463937D01*
X-28715854Y-37464414D01*
X-28657809Y-37464761D01*
X-28594200Y-37464959D01*
X-28548390Y-37465000D01*
X-28230285Y-37465000D01*
X-28230412Y-37441414D01*
X-28233781Y-37405794D01*
X-28242596Y-37363104D01*
X-28255401Y-37319042D01*
X-28270737Y-37279308D01*
X-28273203Y-37273997D01*
X-28305775Y-37221186D01*
X-28347137Y-37178289D01*
X-28395462Y-37145325D01*
X-28448921Y-37122316D01*
X-28505686Y-37109279D01*
X-28563928Y-37106235D01*
X-28621819Y-37113203D01*
X-28677531Y-37130204D01*
X-28729235Y-37157256D01*
X-28775103Y-37194379D01*
X-28813307Y-37241593D01*
X-28828479Y-37268029D01*
X-28839574Y-37293956D01*
X-28850151Y-37325712D01*
X-28859519Y-37360107D01*
X-28866984Y-37393953D01*
X-28871854Y-37424061D01*
X-28873436Y-37447243D01*
X-29163460Y-37447243D01*
X-29163060Y-37441534D01*
X-29156688Y-37391334D01*
X-29156250Y-37388800D01*
X-29131767Y-37282618D01*
X-29097597Y-37186839D01*
X-29053884Y-37101641D01*
X-29000771Y-37027202D01*
X-28938402Y-36963698D01*
X-28866919Y-36911308D01*
X-28786465Y-36870209D01*
X-28718629Y-36846408D01*
X-28693494Y-36839771D01*
X-28669372Y-36835165D01*
X-28642695Y-36832243D01*
X-28609897Y-36830661D01*
X-28567410Y-36830074D01*
X-28549600Y-36830039D01*
X-28486210Y-36831357D01*
G36*
X-38520705Y-34443387D02*
X-38481000Y-34449623D01*
X-38451453Y-34457799D01*
X-38415178Y-34470750D01*
X-38378161Y-34486250D01*
X-38362351Y-34493713D01*
X-38294267Y-34534994D01*
X-38234267Y-34586891D01*
X-38183770Y-34647600D01*
X-38144190Y-34715314D01*
X-38116945Y-34788227D01*
X-38110541Y-34814856D01*
X-38102826Y-34862606D01*
X-38096581Y-34922209D01*
X-38091805Y-34991159D01*
X-38088499Y-35066952D01*
X-38086663Y-35147083D01*
X-38086297Y-35229046D01*
X-38087400Y-35310338D01*
X-38089973Y-35388452D01*
X-38094016Y-35460885D01*
X-38099530Y-35525131D01*
X-38106513Y-35578685D01*
X-38110524Y-35600518D01*
X-38133731Y-35677219D01*
X-38169558Y-35748013D01*
X-38216885Y-35811668D01*
X-38274592Y-35866950D01*
X-38341558Y-35912626D01*
X-38416663Y-35947465D01*
X-38430200Y-35952235D01*
X-38508906Y-35971306D01*
X-38590652Y-35977291D01*
X-38672600Y-35970363D01*
X-38751909Y-35950694D01*
X-38804406Y-35929404D01*
X-38838099Y-35911441D01*
X-38874825Y-35888923D01*
X-38910712Y-35864503D01*
X-38941892Y-35840834D01*
X-38964494Y-35820568D01*
X-38966824Y-35818075D01*
X-38978780Y-35807065D01*
X-38986496Y-35803114D01*
X-38987436Y-35810193D01*
X-38988332Y-35830717D01*
X-38989173Y-35863617D01*
X-38989949Y-35907824D01*
X-38990647Y-35962268D01*
X-38991258Y-36025881D01*
X-38991770Y-36097593D01*
X-38992173Y-36176335D01*
X-38992455Y-36261037D01*
X-38992606Y-36350632D01*
X-38992628Y-36402406D01*
X-38992628Y-37001698D01*
X-38943643Y-36957461D01*
X-38878135Y-36907735D01*
X-38805523Y-36869459D01*
X-38727818Y-36842953D01*
X-38647028Y-36828536D01*
X-38565165Y-36826527D01*
X-38484238Y-36837244D01*
X-38406257Y-36861007D01*
X-38387214Y-36869134D01*
X-38311277Y-36910911D01*
X-38245860Y-36962643D01*
X-38190892Y-37024414D01*
X-38146299Y-37096310D01*
X-38112008Y-37178414D01*
X-38106253Y-37196486D01*
X-38103182Y-37206809D01*
X-38100514Y-37216817D01*
X-38098214Y-37227568D01*
X-38096249Y-37240121D01*
X-38094587Y-37255535D01*
X-38093193Y-37274868D01*
X-38092035Y-37299180D01*
X-38091079Y-37329529D01*
X-38090292Y-37366974D01*
X-38089640Y-37412573D01*
X-38089091Y-37467386D01*
X-38088610Y-37532471D01*
X-38088165Y-37608888D01*
X-38087723Y-37697694D01*
X-38087249Y-37799949D01*
X-38087246Y-37800643D01*
X-38084731Y-38350372D01*
X-38382024Y-38350372D01*
X-38384920Y-37865957D01*
X-38385515Y-37766947D01*
X-38386089Y-37681313D01*
X-38386730Y-37607919D01*
X-38387525Y-37545628D01*
X-38388561Y-37493302D01*
X-38389927Y-37449805D01*
X-38391710Y-37413999D01*
X-38393997Y-37384747D01*
X-38396876Y-37360913D01*
X-38400435Y-37341358D01*
X-38404760Y-37324947D01*
X-38409940Y-37310541D01*
X-38416062Y-37297004D01*
X-38423213Y-37283199D01*
X-38430857Y-37269136D01*
X-38458712Y-37229200D01*
X-38495851Y-37191767D01*
X-38537617Y-37161011D01*
X-38569924Y-37144534D01*
X-38592390Y-37136605D01*
X-38614828Y-37131571D01*
X-38641596Y-37128829D01*
X-38677050Y-37127774D01*
X-38691457Y-37127693D01*
X-38727641Y-37127913D01*
X-38753635Y-37129246D01*
X-38773758Y-37132464D01*
X-38792330Y-37138339D01*
X-38813670Y-37147642D01*
X-38820088Y-37150662D01*
X-38874698Y-37184406D01*
X-38920456Y-37229164D01*
X-38951249Y-37274910D01*
X-38959055Y-37289673D01*
X-38965805Y-37303998D01*
X-38971578Y-37319013D01*
X-38976449Y-37335844D01*
X-38980496Y-37355619D01*
X-38983796Y-37379463D01*
X-38986425Y-37408505D01*
X-38988460Y-37443869D01*
X-38989978Y-37486684D01*
X-38991055Y-37538076D01*
X-38991768Y-37599171D01*
X-38992194Y-37671096D01*
X-38992410Y-37754979D01*
X-38992493Y-37851945D01*
X-38992502Y-37880472D01*
X-38992628Y-38350372D01*
X-39290171Y-38350372D01*
X-39290171Y-35208029D01*
X-38987628Y-35208029D01*
X-38987040Y-35279182D01*
X-38985069Y-35338138D01*
X-38981399Y-35387173D01*
X-38975716Y-35428564D01*
X-38967705Y-35464589D01*
X-38957052Y-35497525D01*
X-38943442Y-35529647D01*
X-38943105Y-35530366D01*
X-38917649Y-35576604D01*
X-38889429Y-35611267D01*
X-38855997Y-35637292D01*
X-38851988Y-35639700D01*
X-38803090Y-35661228D01*
X-38746056Y-35674563D01*
X-38685054Y-35679208D01*
X-38624257Y-35674665D01*
X-38599673Y-35669870D01*
X-38543800Y-35650598D01*
X-38497122Y-35620983D01*
X-38459207Y-35580521D01*
X-38429624Y-35528708D01*
X-38407942Y-35465043D01*
X-38402023Y-35439300D01*
X-38394510Y-35390913D01*
X-38389281Y-35332452D01*
X-38386309Y-35267331D01*
X-38385568Y-35198967D01*
X-38387031Y-35130774D01*
X-38390671Y-35066166D01*
X-38396462Y-35008560D01*
X-38404377Y-34961368D01*
X-38405801Y-34955172D01*
X-38427389Y-34890788D01*
X-38458408Y-34837396D01*
X-38498610Y-34795168D01*
X-38547750Y-34764275D01*
X-38605582Y-34744890D01*
X-38671860Y-34737186D01*
X-38715392Y-34738229D01*
X-38779626Y-34747696D01*
X-38833459Y-34766708D01*
X-38877978Y-34795938D01*
X-38914273Y-34836063D01*
X-38938093Y-34876406D01*
X-38953028Y-34909389D01*
X-38964763Y-34942213D01*
X-38973645Y-34977200D01*
X-38980020Y-35016673D01*
X-38984237Y-35062955D01*
X-38986641Y-35118370D01*
X-38987580Y-35185238D01*
X-38987628Y-35208029D01*
X-39290171Y-35208029D01*
X-39290171Y-34453286D01*
X-38992628Y-34453286D01*
X-38992628Y-34613043D01*
X-38940014Y-34568865D01*
X-38892914Y-34534028D01*
X-38839144Y-34501993D01*
X-38783315Y-34475111D01*
X-38730036Y-34455730D01*
X-38705971Y-34449623D01*
X-38647916Y-34441610D01*
X-38583775Y-34439531D01*
X-38520705Y-34443387D01*
X-38520705Y-34443387D01*
G37*
X-38520705Y-34443387D02*
X-38481000Y-34449623D01*
X-38451453Y-34457799D01*
X-38415178Y-34470750D01*
X-38378161Y-34486250D01*
X-38362351Y-34493713D01*
X-38294267Y-34534994D01*
X-38234267Y-34586891D01*
X-38183770Y-34647600D01*
X-38144190Y-34715314D01*
X-38116945Y-34788227D01*
X-38110541Y-34814856D01*
X-38102826Y-34862606D01*
X-38096581Y-34922209D01*
X-38091805Y-34991159D01*
X-38088499Y-35066952D01*
X-38086663Y-35147083D01*
X-38086297Y-35229046D01*
X-38087400Y-35310338D01*
X-38089973Y-35388452D01*
X-38094016Y-35460885D01*
X-38099530Y-35525131D01*
X-38106513Y-35578685D01*
X-38110524Y-35600518D01*
X-38133731Y-35677219D01*
X-38169558Y-35748013D01*
X-38216885Y-35811668D01*
X-38274592Y-35866950D01*
X-38341558Y-35912626D01*
X-38416663Y-35947465D01*
X-38430200Y-35952235D01*
X-38508906Y-35971306D01*
X-38590652Y-35977291D01*
X-38672600Y-35970363D01*
X-38751909Y-35950694D01*
X-38804406Y-35929404D01*
X-38838099Y-35911441D01*
X-38874825Y-35888923D01*
X-38910712Y-35864503D01*
X-38941892Y-35840834D01*
X-38964494Y-35820568D01*
X-38966824Y-35818075D01*
X-38978780Y-35807065D01*
X-38986496Y-35803114D01*
X-38987436Y-35810193D01*
X-38988332Y-35830717D01*
X-38989173Y-35863617D01*
X-38989949Y-35907824D01*
X-38990647Y-35962268D01*
X-38991258Y-36025881D01*
X-38991770Y-36097593D01*
X-38992173Y-36176335D01*
X-38992455Y-36261037D01*
X-38992606Y-36350632D01*
X-38992628Y-36402406D01*
X-38992628Y-37001698D01*
X-38943643Y-36957461D01*
X-38878135Y-36907735D01*
X-38805523Y-36869459D01*
X-38727818Y-36842953D01*
X-38647028Y-36828536D01*
X-38565165Y-36826527D01*
X-38484238Y-36837244D01*
X-38406257Y-36861007D01*
X-38387214Y-36869134D01*
X-38311277Y-36910911D01*
X-38245860Y-36962643D01*
X-38190892Y-37024414D01*
X-38146299Y-37096310D01*
X-38112008Y-37178414D01*
X-38106253Y-37196486D01*
X-38103182Y-37206809D01*
X-38100514Y-37216817D01*
X-38098214Y-37227568D01*
X-38096249Y-37240121D01*
X-38094587Y-37255535D01*
X-38093193Y-37274868D01*
X-38092035Y-37299180D01*
X-38091079Y-37329529D01*
X-38090292Y-37366974D01*
X-38089640Y-37412573D01*
X-38089091Y-37467386D01*
X-38088610Y-37532471D01*
X-38088165Y-37608888D01*
X-38087723Y-37697694D01*
X-38087249Y-37799949D01*
X-38087246Y-37800643D01*
X-38084731Y-38350372D01*
X-38382024Y-38350372D01*
X-38384920Y-37865957D01*
X-38385515Y-37766947D01*
X-38386089Y-37681313D01*
X-38386730Y-37607919D01*
X-38387525Y-37545628D01*
X-38388561Y-37493302D01*
X-38389927Y-37449805D01*
X-38391710Y-37413999D01*
X-38393997Y-37384747D01*
X-38396876Y-37360913D01*
X-38400435Y-37341358D01*
X-38404760Y-37324947D01*
X-38409940Y-37310541D01*
X-38416062Y-37297004D01*
X-38423213Y-37283199D01*
X-38430857Y-37269136D01*
X-38458712Y-37229200D01*
X-38495851Y-37191767D01*
X-38537617Y-37161011D01*
X-38569924Y-37144534D01*
X-38592390Y-37136605D01*
X-38614828Y-37131571D01*
X-38641596Y-37128829D01*
X-38677050Y-37127774D01*
X-38691457Y-37127693D01*
X-38727641Y-37127913D01*
X-38753635Y-37129246D01*
X-38773758Y-37132464D01*
X-38792330Y-37138339D01*
X-38813670Y-37147642D01*
X-38820088Y-37150662D01*
X-38874698Y-37184406D01*
X-38920456Y-37229164D01*
X-38951249Y-37274910D01*
X-38959055Y-37289673D01*
X-38965805Y-37303998D01*
X-38971578Y-37319013D01*
X-38976449Y-37335844D01*
X-38980496Y-37355619D01*
X-38983796Y-37379463D01*
X-38986425Y-37408505D01*
X-38988460Y-37443869D01*
X-38989978Y-37486684D01*
X-38991055Y-37538076D01*
X-38991768Y-37599171D01*
X-38992194Y-37671096D01*
X-38992410Y-37754979D01*
X-38992493Y-37851945D01*
X-38992502Y-37880472D01*
X-38992628Y-38350372D01*
X-39290171Y-38350372D01*
X-39290171Y-35208029D01*
X-38987628Y-35208029D01*
X-38987040Y-35279182D01*
X-38985069Y-35338138D01*
X-38981399Y-35387173D01*
X-38975716Y-35428564D01*
X-38967705Y-35464589D01*
X-38957052Y-35497525D01*
X-38943442Y-35529647D01*
X-38943105Y-35530366D01*
X-38917649Y-35576604D01*
X-38889429Y-35611267D01*
X-38855997Y-35637292D01*
X-38851988Y-35639700D01*
X-38803090Y-35661228D01*
X-38746056Y-35674563D01*
X-38685054Y-35679208D01*
X-38624257Y-35674665D01*
X-38599673Y-35669870D01*
X-38543800Y-35650598D01*
X-38497122Y-35620983D01*
X-38459207Y-35580521D01*
X-38429624Y-35528708D01*
X-38407942Y-35465043D01*
X-38402023Y-35439300D01*
X-38394510Y-35390913D01*
X-38389281Y-35332452D01*
X-38386309Y-35267331D01*
X-38385568Y-35198967D01*
X-38387031Y-35130774D01*
X-38390671Y-35066166D01*
X-38396462Y-35008560D01*
X-38404377Y-34961368D01*
X-38405801Y-34955172D01*
X-38427389Y-34890788D01*
X-38458408Y-34837396D01*
X-38498610Y-34795168D01*
X-38547750Y-34764275D01*
X-38605582Y-34744890D01*
X-38671860Y-34737186D01*
X-38715392Y-34738229D01*
X-38779626Y-34747696D01*
X-38833459Y-34766708D01*
X-38877978Y-34795938D01*
X-38914273Y-34836063D01*
X-38938093Y-34876406D01*
X-38953028Y-34909389D01*
X-38964763Y-34942213D01*
X-38973645Y-34977200D01*
X-38980020Y-35016673D01*
X-38984237Y-35062955D01*
X-38986641Y-35118370D01*
X-38987580Y-35185238D01*
X-38987628Y-35208029D01*
X-39290171Y-35208029D01*
X-39290171Y-34453286D01*
X-38992628Y-34453286D01*
X-38992628Y-34613043D01*
X-38940014Y-34568865D01*
X-38892914Y-34534028D01*
X-38839144Y-34501993D01*
X-38783315Y-34475111D01*
X-38730036Y-34455730D01*
X-38705971Y-34449623D01*
X-38647916Y-34441610D01*
X-38583775Y-34439531D01*
X-38520705Y-34443387D01*
G36*
X-35516035Y-36836656D02*
X-35439254Y-36859305D01*
X-35397859Y-36877729D01*
X-35365680Y-36895191D01*
X-35338492Y-36912212D01*
X-35318578Y-36927160D01*
X-35308218Y-36938403D01*
X-35307430Y-36942445D01*
X-35312561Y-36949476D01*
X-35325716Y-36965908D01*
X-35345526Y-36990075D01*
X-35370622Y-37020314D01*
X-35399635Y-37054960D01*
X-35414349Y-37072429D01*
X-35448294Y-37112547D01*
X-35474234Y-37142758D01*
X-35493474Y-37164292D01*
X-35507317Y-37178379D01*
X-35517066Y-37186248D01*
X-35524027Y-37189130D01*
X-35529502Y-37188254D01*
X-35534092Y-37185377D01*
X-35548090Y-37176584D01*
X-35570381Y-37164220D01*
X-35596152Y-37150954D01*
X-35596285Y-37150888D01*
X-35618717Y-37140285D01*
X-35637283Y-37133504D01*
X-35656432Y-37129712D01*
X-35680608Y-37128075D01*
X-35714259Y-37127760D01*
X-35719657Y-37127773D01*
X-35758814Y-37128551D01*
X-35788109Y-37131046D01*
X-35812157Y-37135919D01*
X-35835573Y-37143829D01*
X-35837561Y-37144614D01*
X-35879311Y-37167092D01*
X-35920164Y-37199354D01*
X-35955393Y-37237187D01*
X-35976112Y-37268188D01*
X-35983837Y-37282805D01*
X-35990522Y-37297014D01*
X-35996242Y-37311933D01*
X-36001073Y-37328686D01*
X-36005090Y-37348391D01*
X-36008369Y-37372171D01*
X-36010984Y-37401146D01*
X-36013012Y-37436437D01*
X-36014527Y-37479165D01*
X-36015606Y-37530451D01*
X-36016324Y-37591415D01*
X-36016755Y-37663179D01*
X-36016976Y-37746863D01*
X-36017063Y-37843589D01*
X-36017074Y-37876843D01*
X-36017200Y-38350372D01*
X-36314743Y-38350372D01*
X-36314743Y-36840886D01*
X-36017200Y-36840886D01*
X-36017200Y-36920714D01*
X-36016813Y-36952793D01*
X-36015765Y-36978717D01*
X-36014222Y-36995558D01*
X-36012639Y-37000543D01*
X-36005690Y-36995882D01*
X-35990895Y-36983398D01*
X-35970861Y-36965335D01*
X-35959984Y-36955186D01*
X-35898116Y-36906538D01*
X-35828698Y-36869075D01*
X-35753754Y-36843076D01*
X-35675312Y-36828820D01*
X-35595397Y-36826587D01*
X-35516035Y-36836656D01*
X-35516035Y-36836656D01*
G37*
X-35516035Y-36836656D02*
X-35439254Y-36859305D01*
X-35397859Y-36877729D01*
X-35365680Y-36895191D01*
X-35338492Y-36912212D01*
X-35318578Y-36927160D01*
X-35308218Y-36938403D01*
X-35307430Y-36942445D01*
X-35312561Y-36949476D01*
X-35325716Y-36965908D01*
X-35345526Y-36990075D01*
X-35370622Y-37020314D01*
X-35399635Y-37054960D01*
X-35414349Y-37072429D01*
X-35448294Y-37112547D01*
X-35474234Y-37142758D01*
X-35493474Y-37164292D01*
X-35507317Y-37178379D01*
X-35517066Y-37186248D01*
X-35524027Y-37189130D01*
X-35529502Y-37188254D01*
X-35534092Y-37185377D01*
X-35548090Y-37176584D01*
X-35570381Y-37164220D01*
X-35596152Y-37150954D01*
X-35596285Y-37150888D01*
X-35618717Y-37140285D01*
X-35637283Y-37133504D01*
X-35656432Y-37129712D01*
X-35680608Y-37128075D01*
X-35714259Y-37127760D01*
X-35719657Y-37127773D01*
X-35758814Y-37128551D01*
X-35788109Y-37131046D01*
X-35812157Y-37135919D01*
X-35835573Y-37143829D01*
X-35837561Y-37144614D01*
X-35879311Y-37167092D01*
X-35920164Y-37199354D01*
X-35955393Y-37237187D01*
X-35976112Y-37268188D01*
X-35983837Y-37282805D01*
X-35990522Y-37297014D01*
X-35996242Y-37311933D01*
X-36001073Y-37328686D01*
X-36005090Y-37348391D01*
X-36008369Y-37372171D01*
X-36010984Y-37401146D01*
X-36013012Y-37436437D01*
X-36014527Y-37479165D01*
X-36015606Y-37530451D01*
X-36016324Y-37591415D01*
X-36016755Y-37663179D01*
X-36016976Y-37746863D01*
X-36017063Y-37843589D01*
X-36017074Y-37876843D01*
X-36017200Y-38350372D01*
X-36314743Y-38350372D01*
X-36314743Y-36840886D01*
X-36017200Y-36840886D01*
X-36017200Y-36920714D01*
X-36016813Y-36952793D01*
X-36015765Y-36978717D01*
X-36014222Y-36995558D01*
X-36012639Y-37000543D01*
X-36005690Y-36995882D01*
X-35990895Y-36983398D01*
X-35970861Y-36965335D01*
X-35959984Y-36955186D01*
X-35898116Y-36906538D01*
X-35828698Y-36869075D01*
X-35753754Y-36843076D01*
X-35675312Y-36828820D01*
X-35595397Y-36826587D01*
X-35516035Y-36836656D01*
G36*
X-32569309Y-37368663D02*
X-32541999Y-37452697D01*
X-32515871Y-37532572D01*
X-32491279Y-37607233D01*
X-32468580Y-37675625D01*
X-32448128Y-37736694D01*
X-32430279Y-37789386D01*
X-32415389Y-37832646D01*
X-32403812Y-37865420D01*
X-32395903Y-37886652D01*
X-32392019Y-37895290D01*
X-32391794Y-37895432D01*
X-32388891Y-37888385D01*
X-32382501Y-37868416D01*
X-32372934Y-37836615D01*
X-32360501Y-37794068D01*
X-32345510Y-37741865D01*
X-32328274Y-37681092D01*
X-32309101Y-37612838D01*
X-32288303Y-37538190D01*
X-32266189Y-37458237D01*
X-32243070Y-37374066D01*
X-32241956Y-37369996D01*
X-32218844Y-37285631D01*
X-32196816Y-37205401D01*
X-32176175Y-37130396D01*
X-32157222Y-37061707D01*
X-32140260Y-37000426D01*
X-32125592Y-36947642D01*
X-32113520Y-36904446D01*
X-32104346Y-36871930D01*
X-32098374Y-36851183D01*
X-32095905Y-36843298D01*
X-32095881Y-36843262D01*
X-32088164Y-36842564D01*
X-32068079Y-36842115D01*
X-32037772Y-36841923D01*
X-31999388Y-36841999D01*
X-31955072Y-36842351D01*
X-31937475Y-36842556D01*
X-31781735Y-36844514D01*
X-32021852Y-37595629D01*
X-32261969Y-38346743D01*
X-32394078Y-38348720D01*
X-32526186Y-38350698D01*
X-32546307Y-38283559D01*
X-32551887Y-38264933D01*
X-32561216Y-38233778D01*
X-32573883Y-38191469D01*
X-32589476Y-38139383D01*
X-32607582Y-38078896D01*
X-32627792Y-38011383D01*
X-32649691Y-37938219D01*
X-32672869Y-37860782D01*
X-32696914Y-37780447D01*
X-32704399Y-37755439D01*
X-32728044Y-37676790D01*
X-32750609Y-37602414D01*
X-32771735Y-37533450D01*
X-32791063Y-37471040D01*
X-32808234Y-37416323D01*
X-32822888Y-37370440D01*
X-32834668Y-37334530D01*
X-32843213Y-37309734D01*
X-32848165Y-37297191D01*
X-32849137Y-37295850D01*
X-32852250Y-37302857D01*
X-32859149Y-37322704D01*
X-32869502Y-37354314D01*
X-32882972Y-37396611D01*
X-32899226Y-37448519D01*
X-32917928Y-37508960D01*
X-32938743Y-37576859D01*
X-32961338Y-37651139D01*
X-32985376Y-37730722D01*
X-33010524Y-37814534D01*
X-33012754Y-37821993D01*
X-33169603Y-38346743D01*
X-33301302Y-38348720D01*
X-33433001Y-38350696D01*
X-33487409Y-38181805D01*
X-33513828Y-38099723D01*
X-33541644Y-38013164D01*
X-33570531Y-37923149D01*
X-33600164Y-37830702D01*
X-33630216Y-37736844D01*
X-33660363Y-37642598D01*
X-33690278Y-37548986D01*
X-33719635Y-37457031D01*
X-33748109Y-37367755D01*
X-33775374Y-37282181D01*
X-33801104Y-37201330D01*
X-33824974Y-37126225D01*
X-33846657Y-37057889D01*
X-33865829Y-36997343D01*
X-33882163Y-36945610D01*
X-33895333Y-36903713D01*
X-33905014Y-36872674D01*
X-33910880Y-36853515D01*
X-33912628Y-36847276D01*
X-33905721Y-36845398D01*
X-33886396Y-36843738D01*
X-33856752Y-36842383D01*
X-33818883Y-36841418D01*
X-33774887Y-36840929D01*
X-33756803Y-36840886D01*
X-33600977Y-36840886D01*
X-33590000Y-36878986D01*
X-33586261Y-36892312D01*
X-33579035Y-36918398D01*
X-33568664Y-36956002D01*
X-33555489Y-37003881D01*
X-33539850Y-37060796D01*
X-33522088Y-37125503D01*
X-33502546Y-37196763D01*
X-33481562Y-37273333D01*
X-33459480Y-37353972D01*
X-33445333Y-37405659D01*
X-33423000Y-37487116D01*
X-33401714Y-37564444D01*
X-33381794Y-37636505D01*
X-33363557Y-37702165D01*
X-33347322Y-37760289D01*
X-33333405Y-37809740D01*
X-33322126Y-37849383D01*
X-33313802Y-37878083D01*
X-33308751Y-37894704D01*
X-33307336Y-37898540D01*
X-33301119Y-37900158D01*
X-33300820Y-37899824D01*
X-33298286Y-37892604D01*
X-33291636Y-37872641D01*
X-33281216Y-37841002D01*
X-33267376Y-37798755D01*
X-33250464Y-37746965D01*
X-33230827Y-37686702D01*
X-33208813Y-37619031D01*
X-33184771Y-37545020D01*
X-33159049Y-37465737D01*
X-33131994Y-37382248D01*
X-33128241Y-37370657D01*
X-32957870Y-36844514D01*
X-32849132Y-36842520D01*
X-32740395Y-36840526D01*
X-32569309Y-37368663D01*
X-32569309Y-37368663D01*
G37*
X-32569309Y-37368663D02*
X-32541999Y-37452697D01*
X-32515871Y-37532572D01*
X-32491279Y-37607233D01*
X-32468580Y-37675625D01*
X-32448128Y-37736694D01*
X-32430279Y-37789386D01*
X-32415389Y-37832646D01*
X-32403812Y-37865420D01*
X-32395903Y-37886652D01*
X-32392019Y-37895290D01*
X-32391794Y-37895432D01*
X-32388891Y-37888385D01*
X-32382501Y-37868416D01*
X-32372934Y-37836615D01*
X-32360501Y-37794068D01*
X-32345510Y-37741865D01*
X-32328274Y-37681092D01*
X-32309101Y-37612838D01*
X-32288303Y-37538190D01*
X-32266189Y-37458237D01*
X-32243070Y-37374066D01*
X-32241956Y-37369996D01*
X-32218844Y-37285631D01*
X-32196816Y-37205401D01*
X-32176175Y-37130396D01*
X-32157222Y-37061707D01*
X-32140260Y-37000426D01*
X-32125592Y-36947642D01*
X-32113520Y-36904446D01*
X-32104346Y-36871930D01*
X-32098374Y-36851183D01*
X-32095905Y-36843298D01*
X-32095881Y-36843262D01*
X-32088164Y-36842564D01*
X-32068079Y-36842115D01*
X-32037772Y-36841923D01*
X-31999388Y-36841999D01*
X-31955072Y-36842351D01*
X-31937475Y-36842556D01*
X-31781735Y-36844514D01*
X-32021852Y-37595629D01*
X-32261969Y-38346743D01*
X-32394078Y-38348720D01*
X-32526186Y-38350698D01*
X-32546307Y-38283559D01*
X-32551887Y-38264933D01*
X-32561216Y-38233778D01*
X-32573883Y-38191469D01*
X-32589476Y-38139383D01*
X-32607582Y-38078896D01*
X-32627792Y-38011383D01*
X-32649691Y-37938219D01*
X-32672869Y-37860782D01*
X-32696914Y-37780447D01*
X-32704399Y-37755439D01*
X-32728044Y-37676790D01*
X-32750609Y-37602414D01*
X-32771735Y-37533450D01*
X-32791063Y-37471040D01*
X-32808234Y-37416323D01*
X-32822888Y-37370440D01*
X-32834668Y-37334530D01*
X-32843213Y-37309734D01*
X-32848165Y-37297191D01*
X-32849137Y-37295850D01*
X-32852250Y-37302857D01*
X-32859149Y-37322704D01*
X-32869502Y-37354314D01*
X-32882972Y-37396611D01*
X-32899226Y-37448519D01*
X-32917928Y-37508960D01*
X-32938743Y-37576859D01*
X-32961338Y-37651139D01*
X-32985376Y-37730722D01*
X-33010524Y-37814534D01*
X-33012754Y-37821993D01*
X-33169603Y-38346743D01*
X-33301302Y-38348720D01*
X-33433001Y-38350696D01*
X-33487409Y-38181805D01*
X-33513828Y-38099723D01*
X-33541644Y-38013164D01*
X-33570531Y-37923149D01*
X-33600164Y-37830702D01*
X-33630216Y-37736844D01*
X-33660363Y-37642598D01*
X-33690278Y-37548986D01*
X-33719635Y-37457031D01*
X-33748109Y-37367755D01*
X-33775374Y-37282181D01*
X-33801104Y-37201330D01*
X-33824974Y-37126225D01*
X-33846657Y-37057889D01*
X-33865829Y-36997343D01*
X-33882163Y-36945610D01*
X-33895333Y-36903713D01*
X-33905014Y-36872674D01*
X-33910880Y-36853515D01*
X-33912628Y-36847276D01*
X-33905721Y-36845398D01*
X-33886396Y-36843738D01*
X-33856752Y-36842383D01*
X-33818883Y-36841418D01*
X-33774887Y-36840929D01*
X-33756803Y-36840886D01*
X-33600977Y-36840886D01*
X-33590000Y-36878986D01*
X-33586261Y-36892312D01*
X-33579035Y-36918398D01*
X-33568664Y-36956002D01*
X-33555489Y-37003881D01*
X-33539850Y-37060796D01*
X-33522088Y-37125503D01*
X-33502546Y-37196763D01*
X-33481562Y-37273333D01*
X-33459480Y-37353972D01*
X-33445333Y-37405659D01*
X-33423000Y-37487116D01*
X-33401714Y-37564444D01*
X-33381794Y-37636505D01*
X-33363557Y-37702165D01*
X-33347322Y-37760289D01*
X-33333405Y-37809740D01*
X-33322126Y-37849383D01*
X-33313802Y-37878083D01*
X-33308751Y-37894704D01*
X-33307336Y-37898540D01*
X-33301119Y-37900158D01*
X-33300820Y-37899824D01*
X-33298286Y-37892604D01*
X-33291636Y-37872641D01*
X-33281216Y-37841002D01*
X-33267376Y-37798755D01*
X-33250464Y-37746965D01*
X-33230827Y-37686702D01*
X-33208813Y-37619031D01*
X-33184771Y-37545020D01*
X-33159049Y-37465737D01*
X-33131994Y-37382248D01*
X-33128241Y-37370657D01*
X-32957870Y-36844514D01*
X-32849132Y-36842520D01*
X-32740395Y-36840526D01*
X-32569309Y-37368663D01*
G36*
X-29395492Y-36838303D02*
X-29317274Y-36862522D01*
X-29267025Y-36885868D01*
X-29239544Y-36900283D01*
X-29218879Y-36911864D01*
X-29205289Y-36922354D01*
X-29199036Y-36933494D01*
X-29200380Y-36947027D01*
X-29209580Y-36964694D01*
X-29226897Y-36988238D01*
X-29252591Y-37019401D01*
X-29286923Y-37059924D01*
X-29294338Y-37068700D01*
X-29401727Y-37195985D01*
X-29423792Y-37181196D01*
X-29442847Y-37169669D01*
X-29468306Y-37155805D01*
X-29485771Y-37146975D01*
X-29505727Y-37138004D01*
X-29523892Y-37132309D01*
X-29544550Y-37129184D01*
X-29571982Y-37127920D01*
X-29601885Y-37127773D01*
X-29656978Y-37130334D01*
X-29702037Y-37138564D01*
X-29740895Y-37153840D01*
X-29777386Y-37177540D01*
X-29804241Y-37200497D01*
X-29845861Y-37248670D01*
X-29875550Y-37305089D01*
X-29892199Y-37363545D01*
X-29893639Y-37378557D01*
X-29894951Y-37407144D01*
X-29896121Y-37448364D01*
X-29897136Y-37501279D01*
X-29897982Y-37564947D01*
X-29898646Y-37638430D01*
X-29899115Y-37720787D01*
X-29899377Y-37811079D01*
X-29899428Y-37876019D01*
X-29899428Y-38350372D01*
X-30196971Y-38350372D01*
X-30196971Y-36840886D01*
X-29899428Y-36840886D01*
X-29899428Y-36920714D01*
X-29899042Y-36952793D01*
X-29897993Y-36978717D01*
X-29896450Y-36995558D01*
X-29894868Y-37000543D01*
X-29887939Y-36995878D01*
X-29873123Y-36983360D01*
X-29852984Y-36965206D01*
X-29840938Y-36953970D01*
X-29778423Y-36904678D01*
X-29708849Y-36867111D01*
X-29633991Y-36841479D01*
X-29555627Y-36827993D01*
X-29475535Y-36826864D01*
X-29395492Y-36838303D01*
X-29395492Y-36838303D01*
G37*
X-29395492Y-36838303D02*
X-29317274Y-36862522D01*
X-29267025Y-36885868D01*
X-29239544Y-36900283D01*
X-29218879Y-36911864D01*
X-29205289Y-36922354D01*
X-29199036Y-36933494D01*
X-29200380Y-36947027D01*
X-29209580Y-36964694D01*
X-29226897Y-36988238D01*
X-29252591Y-37019401D01*
X-29286923Y-37059924D01*
X-29294338Y-37068700D01*
X-29401727Y-37195985D01*
X-29423792Y-37181196D01*
X-29442847Y-37169669D01*
X-29468306Y-37155805D01*
X-29485771Y-37146975D01*
X-29505727Y-37138004D01*
X-29523892Y-37132309D01*
X-29544550Y-37129184D01*
X-29571982Y-37127920D01*
X-29601885Y-37127773D01*
X-29656978Y-37130334D01*
X-29702037Y-37138564D01*
X-29740895Y-37153840D01*
X-29777386Y-37177540D01*
X-29804241Y-37200497D01*
X-29845861Y-37248670D01*
X-29875550Y-37305089D01*
X-29892199Y-37363545D01*
X-29893639Y-37378557D01*
X-29894951Y-37407144D01*
X-29896121Y-37448364D01*
X-29897136Y-37501279D01*
X-29897982Y-37564947D01*
X-29898646Y-37638430D01*
X-29899115Y-37720787D01*
X-29899377Y-37811079D01*
X-29899428Y-37876019D01*
X-29899428Y-38350372D01*
X-30196971Y-38350372D01*
X-30196971Y-36840886D01*
X-29899428Y-36840886D01*
X-29899428Y-36920714D01*
X-29899042Y-36952793D01*
X-29897993Y-36978717D01*
X-29896450Y-36995558D01*
X-29894868Y-37000543D01*
X-29887939Y-36995878D01*
X-29873123Y-36983360D01*
X-29852984Y-36965206D01*
X-29840938Y-36953970D01*
X-29778423Y-36904678D01*
X-29708849Y-36867111D01*
X-29633991Y-36841479D01*
X-29555627Y-36827993D01*
X-29475535Y-36826864D01*
X-29395492Y-36838303D01*
G36*
X-40124274Y-34439736D02*
X-40033551Y-34452192D01*
X-39946981Y-34476370D01*
X-39866823Y-34512082D01*
X-39852600Y-34520099D01*
X-39818924Y-34543169D01*
X-39780685Y-34574796D01*
X-39741174Y-34611722D01*
X-39703683Y-34650690D01*
X-39671506Y-34688442D01*
X-39647934Y-34721721D01*
X-39646663Y-34723848D01*
X-39612547Y-34794031D01*
X-39586073Y-34875360D01*
X-39576877Y-34914818D01*
X-39569642Y-34960505D01*
X-39564106Y-35017524D01*
X-39560268Y-35082850D01*
X-39558129Y-35153456D01*
X-39557689Y-35226315D01*
X-39558948Y-35298402D01*
X-39561908Y-35366690D01*
X-39566567Y-35428154D01*
X-39572927Y-35479766D01*
X-39576809Y-35501240D01*
X-39594956Y-35573747D01*
X-39617887Y-35635934D01*
X-39647710Y-35691746D01*
X-39686532Y-35745128D01*
X-39736463Y-35800025D01*
X-39736485Y-35800048D01*
X-39803493Y-35860126D01*
X-39873434Y-35906791D01*
X-39948355Y-35941118D01*
X-40030305Y-35964181D01*
X-40059428Y-35969533D01*
X-40095981Y-35973525D01*
X-40141643Y-35975702D01*
X-40191188Y-35976071D01*
X-40239391Y-35974643D01*
X-40281024Y-35971425D01*
X-40297725Y-35969150D01*
X-40382248Y-35947982D01*
X-40463649Y-35913752D01*
X-40539038Y-35867905D01*
X-40599080Y-35818178D01*
X-40660725Y-35751484D01*
X-40708981Y-35681825D01*
X-40744935Y-35607316D01*
X-40769673Y-35526074D01*
X-40771089Y-35519736D01*
X-40780795Y-35463985D01*
X-40788343Y-35397345D01*
X-40793560Y-35323307D01*
X-40796269Y-35245361D01*
X-40796272Y-35234522D01*
X-40494347Y-35234522D01*
X-40493401Y-35290397D01*
X-40491494Y-35341651D01*
X-40488624Y-35385101D01*
X-40484795Y-35417562D01*
X-40484410Y-35419801D01*
X-40465896Y-35487242D01*
X-40436312Y-35545817D01*
X-40396264Y-35594852D01*
X-40346358Y-35633676D01*
X-40287199Y-35661616D01*
X-40259000Y-35670134D01*
X-40219711Y-35676146D01*
X-40173043Y-35677178D01*
X-40124930Y-35673564D01*
X-40081306Y-35665639D01*
X-40059594Y-35658891D01*
X-40001078Y-35630196D01*
X-39953360Y-35592803D01*
X-39915406Y-35545582D01*
X-39886179Y-35487404D01*
X-39875931Y-35458400D01*
X-39871086Y-35442204D01*
X-39867321Y-35426561D01*
X-39864502Y-35409393D01*
X-39862494Y-35388624D01*
X-39861161Y-35362177D01*
X-39860368Y-35327974D01*
X-39859980Y-35283939D01*
X-39859861Y-35227993D01*
X-39859857Y-35211657D01*
X-39860055Y-35144823D01*
X-39860833Y-35090452D01*
X-39862463Y-35046496D01*
X-39865220Y-35010907D01*
X-39869375Y-34981637D01*
X-39875204Y-34956637D01*
X-39882979Y-34933859D01*
X-39892973Y-34911256D01*
X-39902466Y-34892467D01*
X-39936684Y-34840625D01*
X-39979911Y-34799431D01*
X-40033053Y-34768198D01*
X-40093488Y-34747140D01*
X-40160773Y-34736972D01*
X-40228730Y-34740861D01*
X-40295407Y-34758586D01*
X-40329968Y-34773720D01*
X-40381572Y-34807565D01*
X-40423997Y-34852255D01*
X-40456653Y-34906936D01*
X-40478945Y-34970752D01*
X-40484585Y-34997269D01*
X-40488474Y-35028491D01*
X-40491393Y-35071011D01*
X-40493344Y-35121645D01*
X-40494328Y-35177210D01*
X-40494347Y-35234522D01*
X-40796272Y-35234522D01*
X-40796294Y-35166996D01*
X-40793462Y-35091703D01*
X-40792980Y-35083945D01*
X-40786868Y-35007766D01*
X-40778848Y-34943204D01*
X-40768305Y-34887423D01*
X-40754625Y-34837583D01*
X-40737194Y-34790848D01*
X-40722600Y-34758805D01*
X-40707305Y-34728739D01*
X-40692698Y-34704124D01*
X-40676124Y-34681440D01*
X-40654927Y-34657171D01*
X-40626453Y-34627795D01*
X-40615559Y-34616930D01*
X-40570466Y-34574200D01*
X-40530123Y-34541046D01*
X-40490978Y-34515137D01*
X-40449480Y-34494140D01*
X-40402081Y-34475724D01*
X-40398781Y-34474585D01*
X-40309148Y-34450745D01*
X-40216892Y-34439191D01*
X-40124274Y-34439736D01*
X-40124274Y-34439736D01*
G37*
X-40124274Y-34439736D02*
X-40033551Y-34452192D01*
X-39946981Y-34476370D01*
X-39866823Y-34512082D01*
X-39852600Y-34520099D01*
X-39818924Y-34543169D01*
X-39780685Y-34574796D01*
X-39741174Y-34611722D01*
X-39703683Y-34650690D01*
X-39671506Y-34688442D01*
X-39647934Y-34721721D01*
X-39646663Y-34723848D01*
X-39612547Y-34794031D01*
X-39586073Y-34875360D01*
X-39576877Y-34914818D01*
X-39569642Y-34960505D01*
X-39564106Y-35017524D01*
X-39560268Y-35082850D01*
X-39558129Y-35153456D01*
X-39557689Y-35226315D01*
X-39558948Y-35298402D01*
X-39561908Y-35366690D01*
X-39566567Y-35428154D01*
X-39572927Y-35479766D01*
X-39576809Y-35501240D01*
X-39594956Y-35573747D01*
X-39617887Y-35635934D01*
X-39647710Y-35691746D01*
X-39686532Y-35745128D01*
X-39736463Y-35800025D01*
X-39736485Y-35800048D01*
X-39803493Y-35860126D01*
X-39873434Y-35906791D01*
X-39948355Y-35941118D01*
X-40030305Y-35964181D01*
X-40059428Y-35969533D01*
X-40095981Y-35973525D01*
X-40141643Y-35975702D01*
X-40191188Y-35976071D01*
X-40239391Y-35974643D01*
X-40281024Y-35971425D01*
X-40297725Y-35969150D01*
X-40382248Y-35947982D01*
X-40463649Y-35913752D01*
X-40539038Y-35867905D01*
X-40599080Y-35818178D01*
X-40660725Y-35751484D01*
X-40708981Y-35681825D01*
X-40744935Y-35607316D01*
X-40769673Y-35526074D01*
X-40771089Y-35519736D01*
X-40780795Y-35463985D01*
X-40788343Y-35397345D01*
X-40793560Y-35323307D01*
X-40796269Y-35245361D01*
X-40796272Y-35234522D01*
X-40494347Y-35234522D01*
X-40493401Y-35290397D01*
X-40491494Y-35341651D01*
X-40488624Y-35385101D01*
X-40484795Y-35417562D01*
X-40484410Y-35419801D01*
X-40465896Y-35487242D01*
X-40436312Y-35545817D01*
X-40396264Y-35594852D01*
X-40346358Y-35633676D01*
X-40287199Y-35661616D01*
X-40259000Y-35670134D01*
X-40219711Y-35676146D01*
X-40173043Y-35677178D01*
X-40124930Y-35673564D01*
X-40081306Y-35665639D01*
X-40059594Y-35658891D01*
X-40001078Y-35630196D01*
X-39953360Y-35592803D01*
X-39915406Y-35545582D01*
X-39886179Y-35487404D01*
X-39875931Y-35458400D01*
X-39871086Y-35442204D01*
X-39867321Y-35426561D01*
X-39864502Y-35409393D01*
X-39862494Y-35388624D01*
X-39861161Y-35362177D01*
X-39860368Y-35327974D01*
X-39859980Y-35283939D01*
X-39859861Y-35227993D01*
X-39859857Y-35211657D01*
X-39860055Y-35144823D01*
X-39860833Y-35090452D01*
X-39862463Y-35046496D01*
X-39865220Y-35010907D01*
X-39869375Y-34981637D01*
X-39875204Y-34956637D01*
X-39882979Y-34933859D01*
X-39892973Y-34911256D01*
X-39902466Y-34892467D01*
X-39936684Y-34840625D01*
X-39979911Y-34799431D01*
X-40033053Y-34768198D01*
X-40093488Y-34747140D01*
X-40160773Y-34736972D01*
X-40228730Y-34740861D01*
X-40295407Y-34758586D01*
X-40329968Y-34773720D01*
X-40381572Y-34807565D01*
X-40423997Y-34852255D01*
X-40456653Y-34906936D01*
X-40478945Y-34970752D01*
X-40484585Y-34997269D01*
X-40488474Y-35028491D01*
X-40491393Y-35071011D01*
X-40493344Y-35121645D01*
X-40494328Y-35177210D01*
X-40494347Y-35234522D01*
X-40796272Y-35234522D01*
X-40796294Y-35166996D01*
X-40793462Y-35091703D01*
X-40792980Y-35083945D01*
X-40786868Y-35007766D01*
X-40778848Y-34943204D01*
X-40768305Y-34887423D01*
X-40754625Y-34837583D01*
X-40737194Y-34790848D01*
X-40722600Y-34758805D01*
X-40707305Y-34728739D01*
X-40692698Y-34704124D01*
X-40676124Y-34681440D01*
X-40654927Y-34657171D01*
X-40626453Y-34627795D01*
X-40615559Y-34616930D01*
X-40570466Y-34574200D01*
X-40530123Y-34541046D01*
X-40490978Y-34515137D01*
X-40449480Y-34494140D01*
X-40402081Y-34475724D01*
X-40398781Y-34474585D01*
X-40309148Y-34450745D01*
X-40216892Y-34439191D01*
X-40124274Y-34439736D01*
G36*
X-37159194Y-34445508D02*
X-37067743Y-34465242D01*
X-36982680Y-34497258D01*
X-36904857Y-34540842D01*
X-36835124Y-34595281D01*
X-36774334Y-34659860D01*
X-36723337Y-34733864D01*
X-36682986Y-34816579D01*
X-36654131Y-34907291D01*
X-36644944Y-34951556D01*
X-36639776Y-34992310D01*
X-36636273Y-35046015D01*
X-36634406Y-35113226D01*
X-36634057Y-35165383D01*
X-36634057Y-35316780D01*
X-37573857Y-35320514D01*
X-37572084Y-35367686D01*
X-37563611Y-35432710D01*
X-37544013Y-35494679D01*
X-37514625Y-35550905D01*
X-37476778Y-35598700D01*
X-37443054Y-35627822D01*
X-37391662Y-35658882D01*
X-37336901Y-35679838D01*
X-37274317Y-35692326D01*
X-37264188Y-35693547D01*
X-37187537Y-35695998D01*
X-37114289Y-35685454D01*
X-37043114Y-35661517D01*
X-36972686Y-35623787D01*
X-36927794Y-35592523D01*
X-36903412Y-35574597D01*
X-36887435Y-35564671D01*
X-36877076Y-35561504D01*
X-36869544Y-35563856D01*
X-36867248Y-35565595D01*
X-36810852Y-35613107D01*
X-36763257Y-35653709D01*
X-36724946Y-35686976D01*
X-36696399Y-35712484D01*
X-36678099Y-35729808D01*
X-36670529Y-35738522D01*
X-36670343Y-35739148D01*
X-36675656Y-35748365D01*
X-36689967Y-35764251D01*
X-36710836Y-35784539D01*
X-36735819Y-35806967D01*
X-36762475Y-35829269D01*
X-36788363Y-35849182D01*
X-36791221Y-35851246D01*
X-36845732Y-35885333D01*
X-36908864Y-35916688D01*
X-36974723Y-35942599D01*
X-37018685Y-35955888D01*
X-37061745Y-35964332D01*
X-37114572Y-35970513D01*
X-37172712Y-35974278D01*
X-37231709Y-35975477D01*
X-37287107Y-35973958D01*
X-37334451Y-35969568D01*
X-37349251Y-35967145D01*
X-37412958Y-35953103D01*
X-37467306Y-35936592D01*
X-37517434Y-35915924D01*
X-37541742Y-35903908D01*
X-37618473Y-35856255D01*
X-37685193Y-35798129D01*
X-37741874Y-35729600D01*
X-37788484Y-35650734D01*
X-37824992Y-35561599D01*
X-37851368Y-35462262D01*
X-37867582Y-35352793D01*
X-37873602Y-35233257D01*
X-37872844Y-35171743D01*
X-37864746Y-35058951D01*
X-37577485Y-35058951D01*
X-37577485Y-35077400D01*
X-37254543Y-35077400D01*
X-37177558Y-35077372D01*
X-37113842Y-35077253D01*
X-37062148Y-35076997D01*
X-37021231Y-35076552D01*
X-36989844Y-35075871D01*
X-36966741Y-35074904D01*
X-36950676Y-35073602D01*
X-36940404Y-35071916D01*
X-36934679Y-35069797D01*
X-36932253Y-35067196D01*
X-36931853Y-35064700D01*
X-36933204Y-35051713D01*
X-36936546Y-35028978D01*
X-36941205Y-35001016D01*
X-36942089Y-34996014D01*
X-36960729Y-34925615D01*
X-36989595Y-34864226D01*
X-37028039Y-34812634D01*
X-37075408Y-34771630D01*
X-37131052Y-34742003D01*
X-37159380Y-34732374D01*
X-37202703Y-34724570D01*
X-37253540Y-34722454D01*
X-37306171Y-34725756D01*
X-37354876Y-34734205D01*
X-37383333Y-34742946D01*
X-37430144Y-34768069D01*
X-37473761Y-34804759D01*
X-37511044Y-34850066D01*
X-37528702Y-34879463D01*
X-37543726Y-34913537D01*
X-37557526Y-34954414D01*
X-37568672Y-34996832D01*
X-37575732Y-35035529D01*
X-37577485Y-35058951D01*
X-37864746Y-35058951D01*
X-37864192Y-35051239D01*
X-37846070Y-34941651D01*
X-37818418Y-34842848D01*
X-37781178Y-34754694D01*
X-37734290Y-34677056D01*
X-37677692Y-34609800D01*
X-37611327Y-34552792D01*
X-37589543Y-34537694D01*
X-37509902Y-34492841D01*
X-37427376Y-34461736D01*
X-37340324Y-34443894D01*
X-37256181Y-34438772D01*
X-37159194Y-34445508D01*
X-37159194Y-34445508D01*
G37*
X-37159194Y-34445508D02*
X-37067743Y-34465242D01*
X-36982680Y-34497258D01*
X-36904857Y-34540842D01*
X-36835124Y-34595281D01*
X-36774334Y-34659860D01*
X-36723337Y-34733864D01*
X-36682986Y-34816579D01*
X-36654131Y-34907291D01*
X-36644944Y-34951556D01*
X-36639776Y-34992310D01*
X-36636273Y-35046015D01*
X-36634406Y-35113226D01*
X-36634057Y-35165383D01*
X-36634057Y-35316780D01*
X-37573857Y-35320514D01*
X-37572084Y-35367686D01*
X-37563611Y-35432710D01*
X-37544013Y-35494679D01*
X-37514625Y-35550905D01*
X-37476778Y-35598700D01*
X-37443054Y-35627822D01*
X-37391662Y-35658882D01*
X-37336901Y-35679838D01*
X-37274317Y-35692326D01*
X-37264188Y-35693547D01*
X-37187537Y-35695998D01*
X-37114289Y-35685454D01*
X-37043114Y-35661517D01*
X-36972686Y-35623787D01*
X-36927794Y-35592523D01*
X-36903412Y-35574597D01*
X-36887435Y-35564671D01*
X-36877076Y-35561504D01*
X-36869544Y-35563856D01*
X-36867248Y-35565595D01*
X-36810852Y-35613107D01*
X-36763257Y-35653709D01*
X-36724946Y-35686976D01*
X-36696399Y-35712484D01*
X-36678099Y-35729808D01*
X-36670529Y-35738522D01*
X-36670343Y-35739148D01*
X-36675656Y-35748365D01*
X-36689967Y-35764251D01*
X-36710836Y-35784539D01*
X-36735819Y-35806967D01*
X-36762475Y-35829269D01*
X-36788363Y-35849182D01*
X-36791221Y-35851246D01*
X-36845732Y-35885333D01*
X-36908864Y-35916688D01*
X-36974723Y-35942599D01*
X-37018685Y-35955888D01*
X-37061745Y-35964332D01*
X-37114572Y-35970513D01*
X-37172712Y-35974278D01*
X-37231709Y-35975477D01*
X-37287107Y-35973958D01*
X-37334451Y-35969568D01*
X-37349251Y-35967145D01*
X-37412958Y-35953103D01*
X-37467306Y-35936592D01*
X-37517434Y-35915924D01*
X-37541742Y-35903908D01*
X-37618473Y-35856255D01*
X-37685193Y-35798129D01*
X-37741874Y-35729600D01*
X-37788484Y-35650734D01*
X-37824992Y-35561599D01*
X-37851368Y-35462262D01*
X-37867582Y-35352793D01*
X-37873602Y-35233257D01*
X-37872844Y-35171743D01*
X-37864746Y-35058951D01*
X-37577485Y-35058951D01*
X-37577485Y-35077400D01*
X-37254543Y-35077400D01*
X-37177558Y-35077372D01*
X-37113842Y-35077253D01*
X-37062148Y-35076997D01*
X-37021231Y-35076552D01*
X-36989844Y-35075871D01*
X-36966741Y-35074904D01*
X-36950676Y-35073602D01*
X-36940404Y-35071916D01*
X-36934679Y-35069797D01*
X-36932253Y-35067196D01*
X-36931853Y-35064700D01*
X-36933204Y-35051713D01*
X-36936546Y-35028978D01*
X-36941205Y-35001016D01*
X-36942089Y-34996014D01*
X-36960729Y-34925615D01*
X-36989595Y-34864226D01*
X-37028039Y-34812634D01*
X-37075408Y-34771630D01*
X-37131052Y-34742003D01*
X-37159380Y-34732374D01*
X-37202703Y-34724570D01*
X-37253540Y-34722454D01*
X-37306171Y-34725756D01*
X-37354876Y-34734205D01*
X-37383333Y-34742946D01*
X-37430144Y-34768069D01*
X-37473761Y-34804759D01*
X-37511044Y-34850066D01*
X-37528702Y-34879463D01*
X-37543726Y-34913537D01*
X-37557526Y-34954414D01*
X-37568672Y-34996832D01*
X-37575732Y-35035529D01*
X-37577485Y-35058951D01*
X-37864746Y-35058951D01*
X-37864192Y-35051239D01*
X-37846070Y-34941651D01*
X-37818418Y-34842848D01*
X-37781178Y-34754694D01*
X-37734290Y-34677056D01*
X-37677692Y-34609800D01*
X-37611327Y-34552792D01*
X-37589543Y-34537694D01*
X-37509902Y-34492841D01*
X-37427376Y-34461736D01*
X-37340324Y-34443894D01*
X-37256181Y-34438772D01*
X-37159194Y-34445508D01*
G36*
X-33591720Y-34444351D02*
X-33521199Y-34449136D01*
X-33458249Y-34458156D01*
X-33399540Y-34472105D01*
X-33341743Y-34491674D01*
X-33281526Y-34517557D01*
X-33255857Y-34529912D01*
X-33225119Y-34546206D01*
X-33192738Y-34565239D01*
X-33161190Y-34585322D01*
X-33132951Y-34604765D01*
X-33110499Y-34621877D01*
X-33096310Y-34634968D01*
X-33092571Y-34641345D01*
X-33097038Y-34648606D01*
X-33109243Y-34664572D01*
X-33127389Y-34687124D01*
X-33149682Y-34714146D01*
X-33174324Y-34743517D01*
X-33199520Y-34773119D01*
X-33223476Y-34800834D01*
X-33244394Y-34824544D01*
X-33260479Y-34842130D01*
X-33269935Y-34851472D01*
X-33271495Y-34852429D01*
X-33279383Y-34848929D01*
X-33296016Y-34839748D01*
X-33317809Y-34826867D01*
X-33318042Y-34826726D01*
X-33393332Y-34786138D01*
X-33470327Y-34754210D01*
X-33533070Y-34735527D01*
X-33564148Y-34728858D01*
X-33592935Y-34724679D01*
X-33623953Y-34722644D01*
X-33661722Y-34722408D01*
X-33694914Y-34723136D01*
X-33736378Y-34724612D01*
X-33766751Y-34726629D01*
X-33789457Y-34729717D01*
X-33807920Y-34734408D01*
X-33825562Y-34741230D01*
X-33832800Y-34744510D01*
X-33877728Y-34771088D01*
X-33909614Y-34803429D01*
X-33929123Y-34842520D01*
X-33936921Y-34889351D01*
X-33937134Y-34899600D01*
X-33930775Y-34942271D01*
X-33911808Y-34977871D01*
X-33880386Y-35006246D01*
X-33836660Y-35027242D01*
X-33801372Y-35036932D01*
X-33778416Y-35040762D01*
X-33744001Y-35045143D01*
X-33701155Y-35049756D01*
X-33652907Y-35054282D01*
X-33602285Y-35058401D01*
X-33587391Y-35059488D01*
X-33505314Y-35066317D01*
X-33435823Y-35074564D01*
X-33377012Y-35084819D01*
X-33326978Y-35097673D01*
X-33283814Y-35113718D01*
X-33245616Y-35133543D01*
X-33210479Y-35157739D01*
X-33176498Y-35186899D01*
X-33176471Y-35186924D01*
X-33130764Y-35239304D01*
X-33094946Y-35300450D01*
X-33069374Y-35368182D01*
X-33054406Y-35440320D01*
X-33050397Y-35514685D01*
X-33057705Y-35589098D01*
X-33076686Y-35661379D01*
X-33092474Y-35699954D01*
X-33115023Y-35737750D01*
X-33147435Y-35778313D01*
X-33186406Y-35818297D01*
X-33228634Y-35854354D01*
X-33270817Y-35883140D01*
X-33276415Y-35886335D01*
X-33332822Y-35913096D01*
X-33398761Y-35936749D01*
X-33469330Y-35955723D01*
X-33527221Y-35966690D01*
X-33580999Y-35972578D01*
X-33642038Y-35975640D01*
X-33705209Y-35975879D01*
X-33765386Y-35973297D01*
X-33817440Y-35967897D01*
X-33826116Y-35966532D01*
X-33935044Y-35941104D01*
X-34042147Y-35902326D01*
X-34145003Y-35851350D01*
X-34241192Y-35789327D01*
X-34304172Y-35739163D01*
X-34336486Y-35711058D01*
X-34231600Y-35608874D01*
X-34126714Y-35506689D01*
X-34104943Y-35526865D01*
X-34030581Y-35586071D01*
X-33948877Y-35632872D01*
X-33860449Y-35667002D01*
X-33765911Y-35688193D01*
X-33719777Y-35693587D01*
X-33638861Y-35696477D01*
X-33566597Y-35691027D01*
X-33503638Y-35677578D01*
X-33450640Y-35656469D01*
X-33408257Y-35628041D01*
X-33377142Y-35592635D01*
X-33357952Y-35550590D01*
X-33351339Y-35502248D01*
X-33351338Y-35501943D01*
X-33357087Y-35455764D01*
X-33374465Y-35418230D01*
X-33403585Y-35389192D01*
X-33444564Y-35368503D01*
X-33457725Y-35364314D01*
X-33475690Y-35360622D01*
X-33505541Y-35356136D01*
X-33544695Y-35351171D01*
X-33590566Y-35346044D01*
X-33640569Y-35341069D01*
X-33669514Y-35338459D01*
X-33743429Y-35331560D01*
X-33805053Y-35324569D01*
X-33856602Y-35317028D01*
X-33900294Y-35308478D01*
X-33938348Y-35298459D01*
X-33972981Y-35286513D01*
X-34006411Y-35272180D01*
X-34019049Y-35266116D01*
X-34082438Y-35227217D01*
X-34135888Y-35178335D01*
X-34178761Y-35120631D01*
X-34210417Y-35055265D01*
X-34230221Y-34983395D01*
X-34237534Y-34906183D01*
X-34236612Y-34870528D01*
X-34225261Y-34788999D01*
X-34201832Y-34715506D01*
X-34166370Y-34650119D01*
X-34118922Y-34592907D01*
X-34059534Y-34543939D01*
X-33996493Y-34507260D01*
X-33952397Y-34486607D01*
X-33912683Y-34470833D01*
X-33874178Y-34459307D01*
X-33833707Y-34451400D01*
X-33788095Y-34446483D01*
X-33734168Y-34443925D01*
X-33673143Y-34443109D01*
X-33591720Y-34444351D01*
X-33591720Y-34444351D01*
G37*
X-33591720Y-34444351D02*
X-33521199Y-34449136D01*
X-33458249Y-34458156D01*
X-33399540Y-34472105D01*
X-33341743Y-34491674D01*
X-33281526Y-34517557D01*
X-33255857Y-34529912D01*
X-33225119Y-34546206D01*
X-33192738Y-34565239D01*
X-33161190Y-34585322D01*
X-33132951Y-34604765D01*
X-33110499Y-34621877D01*
X-33096310Y-34634968D01*
X-33092571Y-34641345D01*
X-33097038Y-34648606D01*
X-33109243Y-34664572D01*
X-33127389Y-34687124D01*
X-33149682Y-34714146D01*
X-33174324Y-34743517D01*
X-33199520Y-34773119D01*
X-33223476Y-34800834D01*
X-33244394Y-34824544D01*
X-33260479Y-34842130D01*
X-33269935Y-34851472D01*
X-33271495Y-34852429D01*
X-33279383Y-34848929D01*
X-33296016Y-34839748D01*
X-33317809Y-34826867D01*
X-33318042Y-34826726D01*
X-33393332Y-34786138D01*
X-33470327Y-34754210D01*
X-33533070Y-34735527D01*
X-33564148Y-34728858D01*
X-33592935Y-34724679D01*
X-33623953Y-34722644D01*
X-33661722Y-34722408D01*
X-33694914Y-34723136D01*
X-33736378Y-34724612D01*
X-33766751Y-34726629D01*
X-33789457Y-34729717D01*
X-33807920Y-34734408D01*
X-33825562Y-34741230D01*
X-33832800Y-34744510D01*
X-33877728Y-34771088D01*
X-33909614Y-34803429D01*
X-33929123Y-34842520D01*
X-33936921Y-34889351D01*
X-33937134Y-34899600D01*
X-33930775Y-34942271D01*
X-33911808Y-34977871D01*
X-33880386Y-35006246D01*
X-33836660Y-35027242D01*
X-33801372Y-35036932D01*
X-33778416Y-35040762D01*
X-33744001Y-35045143D01*
X-33701155Y-35049756D01*
X-33652907Y-35054282D01*
X-33602285Y-35058401D01*
X-33587391Y-35059488D01*
X-33505314Y-35066317D01*
X-33435823Y-35074564D01*
X-33377012Y-35084819D01*
X-33326978Y-35097673D01*
X-33283814Y-35113718D01*
X-33245616Y-35133543D01*
X-33210479Y-35157739D01*
X-33176498Y-35186899D01*
X-33176471Y-35186924D01*
X-33130764Y-35239304D01*
X-33094946Y-35300450D01*
X-33069374Y-35368182D01*
X-33054406Y-35440320D01*
X-33050397Y-35514685D01*
X-33057705Y-35589098D01*
X-33076686Y-35661379D01*
X-33092474Y-35699954D01*
X-33115023Y-35737750D01*
X-33147435Y-35778313D01*
X-33186406Y-35818297D01*
X-33228634Y-35854354D01*
X-33270817Y-35883140D01*
X-33276415Y-35886335D01*
X-33332822Y-35913096D01*
X-33398761Y-35936749D01*
X-33469330Y-35955723D01*
X-33527221Y-35966690D01*
X-33580999Y-35972578D01*
X-33642038Y-35975640D01*
X-33705209Y-35975879D01*
X-33765386Y-35973297D01*
X-33817440Y-35967897D01*
X-33826116Y-35966532D01*
X-33935044Y-35941104D01*
X-34042147Y-35902326D01*
X-34145003Y-35851350D01*
X-34241192Y-35789327D01*
X-34304172Y-35739163D01*
X-34336486Y-35711058D01*
X-34231600Y-35608874D01*
X-34126714Y-35506689D01*
X-34104943Y-35526865D01*
X-34030581Y-35586071D01*
X-33948877Y-35632872D01*
X-33860449Y-35667002D01*
X-33765911Y-35688193D01*
X-33719777Y-35693587D01*
X-33638861Y-35696477D01*
X-33566597Y-35691027D01*
X-33503638Y-35677578D01*
X-33450640Y-35656469D01*
X-33408257Y-35628041D01*
X-33377142Y-35592635D01*
X-33357952Y-35550590D01*
X-33351339Y-35502248D01*
X-33351338Y-35501943D01*
X-33357087Y-35455764D01*
X-33374465Y-35418230D01*
X-33403585Y-35389192D01*
X-33444564Y-35368503D01*
X-33457725Y-35364314D01*
X-33475690Y-35360622D01*
X-33505541Y-35356136D01*
X-33544695Y-35351171D01*
X-33590566Y-35346044D01*
X-33640569Y-35341069D01*
X-33669514Y-35338459D01*
X-33743429Y-35331560D01*
X-33805053Y-35324569D01*
X-33856602Y-35317028D01*
X-33900294Y-35308478D01*
X-33938348Y-35298459D01*
X-33972981Y-35286513D01*
X-34006411Y-35272180D01*
X-34019049Y-35266116D01*
X-34082438Y-35227217D01*
X-34135888Y-35178335D01*
X-34178761Y-35120631D01*
X-34210417Y-35055265D01*
X-34230221Y-34983395D01*
X-34237534Y-34906183D01*
X-34236612Y-34870528D01*
X-34225261Y-34788999D01*
X-34201832Y-34715506D01*
X-34166370Y-34650119D01*
X-34118922Y-34592907D01*
X-34059534Y-34543939D01*
X-33996493Y-34507260D01*
X-33952397Y-34486607D01*
X-33912683Y-34470833D01*
X-33874178Y-34459307D01*
X-33833707Y-34451400D01*
X-33788095Y-34446483D01*
X-33734168Y-34443925D01*
X-33673143Y-34443109D01*
X-33591720Y-34444351D01*
G36*
X-32180397Y-34441508D02*
X-32117385Y-34450061D01*
X-32055387Y-34465552D01*
X-32027504Y-34474585D01*
X-31979317Y-34493042D01*
X-31937339Y-34513963D01*
X-31897987Y-34539703D01*
X-31857676Y-34572613D01*
X-31812824Y-34615049D01*
X-31811324Y-34616540D01*
X-31779794Y-34648614D01*
X-31756350Y-34674609D01*
X-31738264Y-34698132D01*
X-31722812Y-34722789D01*
X-31707267Y-34752186D01*
X-31704334Y-34758086D01*
X-31683786Y-34803977D01*
X-31667460Y-34850966D01*
X-31654731Y-34901901D01*
X-31644972Y-34959630D01*
X-31637559Y-35026999D01*
X-31633479Y-35080681D01*
X-31630337Y-35154744D01*
X-31630079Y-35232974D01*
X-31632523Y-35311696D01*
X-31637491Y-35387236D01*
X-31644802Y-35455917D01*
X-31654278Y-35514066D01*
X-31654770Y-35516457D01*
X-31677946Y-35598277D01*
X-31712537Y-35673509D01*
X-31759522Y-35743869D01*
X-31819881Y-35811071D01*
X-31827205Y-35818178D01*
X-31896520Y-35874671D01*
X-31973963Y-35919495D01*
X-32058217Y-35952002D01*
X-32134628Y-35969533D01*
X-32171181Y-35973525D01*
X-32216843Y-35975702D01*
X-32266388Y-35976071D01*
X-32314591Y-35974643D01*
X-32356224Y-35971425D01*
X-32372925Y-35969150D01*
X-32458141Y-35948348D01*
X-32537215Y-35915051D01*
X-32611177Y-35868707D01*
X-32681061Y-35808766D01*
X-32689800Y-35800048D01*
X-32739735Y-35745149D01*
X-32778562Y-35691767D01*
X-32808388Y-35635957D01*
X-32831321Y-35573774D01*
X-32849470Y-35501271D01*
X-32849477Y-35501240D01*
X-32856562Y-35456577D01*
X-32862001Y-35400496D01*
X-32865793Y-35335999D01*
X-32867939Y-35266088D01*
X-32868315Y-35211657D01*
X-32566428Y-35211657D01*
X-32566135Y-35280350D01*
X-32565019Y-35336609D01*
X-32562728Y-35382507D01*
X-32558910Y-35420118D01*
X-32553212Y-35451514D01*
X-32545282Y-35478770D01*
X-32534768Y-35503957D01*
X-32521317Y-35529149D01*
X-32509007Y-35549424D01*
X-32472713Y-35594001D01*
X-32426323Y-35630075D01*
X-32372051Y-35656831D01*
X-32312111Y-35673456D01*
X-32248718Y-35679136D01*
X-32184085Y-35673058D01*
X-32176714Y-35671577D01*
X-32131741Y-35657800D01*
X-32086613Y-35636676D01*
X-32046920Y-35611102D01*
X-32027375Y-35594166D01*
X-31995393Y-35553995D01*
X-31968393Y-35504258D01*
X-31948680Y-35449657D01*
X-31941876Y-35419801D01*
X-31937961Y-35388466D01*
X-31935007Y-35345861D01*
X-31933014Y-35295170D01*
X-31931983Y-35239576D01*
X-31931917Y-35182263D01*
X-31932816Y-35126415D01*
X-31934681Y-35075215D01*
X-31937514Y-35031848D01*
X-31941316Y-34999496D01*
X-31941700Y-34997269D01*
X-31959892Y-34930201D01*
X-31988672Y-34871941D01*
X-32027448Y-34823346D01*
X-32075627Y-34785272D01*
X-32096317Y-34773720D01*
X-32159041Y-34749336D01*
X-32223002Y-34737641D01*
X-32286365Y-34738121D01*
X-32347298Y-34750260D01*
X-32403968Y-34773545D01*
X-32454542Y-34807462D01*
X-32497186Y-34851497D01*
X-32524443Y-34893820D01*
X-32536187Y-34917335D01*
X-32545533Y-34939586D01*
X-32552750Y-34962609D01*
X-32558108Y-34988442D01*
X-32561875Y-35019123D01*
X-32564320Y-35056687D01*
X-32565713Y-35103173D01*
X-32566323Y-35160617D01*
X-32566428Y-35211657D01*
X-32868315Y-35211657D01*
X-32868439Y-35193765D01*
X-32867292Y-35122031D01*
X-32864499Y-35053890D01*
X-32860059Y-34992344D01*
X-32853973Y-34940394D01*
X-32849477Y-34914818D01*
X-32831329Y-34842310D01*
X-32808398Y-34780124D01*
X-32778576Y-34724312D01*
X-32739753Y-34670930D01*
X-32689822Y-34616032D01*
X-32689800Y-34616009D01*
X-32623000Y-34556128D01*
X-32552957Y-34509280D01*
X-32478120Y-34474841D01*
X-32396940Y-34452185D01*
X-32307864Y-34440686D01*
X-32250743Y-34438881D01*
X-32180397Y-34441508D01*
X-32180397Y-34441508D01*
G37*
X-32180397Y-34441508D02*
X-32117385Y-34450061D01*
X-32055387Y-34465552D01*
X-32027504Y-34474585D01*
X-31979317Y-34493042D01*
X-31937339Y-34513963D01*
X-31897987Y-34539703D01*
X-31857676Y-34572613D01*
X-31812824Y-34615049D01*
X-31811324Y-34616540D01*
X-31779794Y-34648614D01*
X-31756350Y-34674609D01*
X-31738264Y-34698132D01*
X-31722812Y-34722789D01*
X-31707267Y-34752186D01*
X-31704334Y-34758086D01*
X-31683786Y-34803977D01*
X-31667460Y-34850966D01*
X-31654731Y-34901901D01*
X-31644972Y-34959630D01*
X-31637559Y-35026999D01*
X-31633479Y-35080681D01*
X-31630337Y-35154744D01*
X-31630079Y-35232974D01*
X-31632523Y-35311696D01*
X-31637491Y-35387236D01*
X-31644802Y-35455917D01*
X-31654278Y-35514066D01*
X-31654770Y-35516457D01*
X-31677946Y-35598277D01*
X-31712537Y-35673509D01*
X-31759522Y-35743869D01*
X-31819881Y-35811071D01*
X-31827205Y-35818178D01*
X-31896520Y-35874671D01*
X-31973963Y-35919495D01*
X-32058217Y-35952002D01*
X-32134628Y-35969533D01*
X-32171181Y-35973525D01*
X-32216843Y-35975702D01*
X-32266388Y-35976071D01*
X-32314591Y-35974643D01*
X-32356224Y-35971425D01*
X-32372925Y-35969150D01*
X-32458141Y-35948348D01*
X-32537215Y-35915051D01*
X-32611177Y-35868707D01*
X-32681061Y-35808766D01*
X-32689800Y-35800048D01*
X-32739735Y-35745149D01*
X-32778562Y-35691767D01*
X-32808388Y-35635957D01*
X-32831321Y-35573774D01*
X-32849470Y-35501271D01*
X-32849477Y-35501240D01*
X-32856562Y-35456577D01*
X-32862001Y-35400496D01*
X-32865793Y-35335999D01*
X-32867939Y-35266088D01*
X-32868315Y-35211657D01*
X-32566428Y-35211657D01*
X-32566135Y-35280350D01*
X-32565019Y-35336609D01*
X-32562728Y-35382507D01*
X-32558910Y-35420118D01*
X-32553212Y-35451514D01*
X-32545282Y-35478770D01*
X-32534768Y-35503957D01*
X-32521317Y-35529149D01*
X-32509007Y-35549424D01*
X-32472713Y-35594001D01*
X-32426323Y-35630075D01*
X-32372051Y-35656831D01*
X-32312111Y-35673456D01*
X-32248718Y-35679136D01*
X-32184085Y-35673058D01*
X-32176714Y-35671577D01*
X-32131741Y-35657800D01*
X-32086613Y-35636676D01*
X-32046920Y-35611102D01*
X-32027375Y-35594166D01*
X-31995393Y-35553995D01*
X-31968393Y-35504258D01*
X-31948680Y-35449657D01*
X-31941876Y-35419801D01*
X-31937961Y-35388466D01*
X-31935007Y-35345861D01*
X-31933014Y-35295170D01*
X-31931983Y-35239576D01*
X-31931917Y-35182263D01*
X-31932816Y-35126415D01*
X-31934681Y-35075215D01*
X-31937514Y-35031848D01*
X-31941316Y-34999496D01*
X-31941700Y-34997269D01*
X-31959892Y-34930201D01*
X-31988672Y-34871941D01*
X-32027448Y-34823346D01*
X-32075627Y-34785272D01*
X-32096317Y-34773720D01*
X-32159041Y-34749336D01*
X-32223002Y-34737641D01*
X-32286365Y-34738121D01*
X-32347298Y-34750260D01*
X-32403968Y-34773545D01*
X-32454542Y-34807462D01*
X-32497186Y-34851497D01*
X-32524443Y-34893820D01*
X-32536187Y-34917335D01*
X-32545533Y-34939586D01*
X-32552750Y-34962609D01*
X-32558108Y-34988442D01*
X-32561875Y-35019123D01*
X-32564320Y-35056687D01*
X-32565713Y-35103173D01*
X-32566323Y-35160617D01*
X-32566428Y-35211657D01*
X-32868315Y-35211657D01*
X-32868439Y-35193765D01*
X-32867292Y-35122031D01*
X-32864499Y-35053890D01*
X-32860059Y-34992344D01*
X-32853973Y-34940394D01*
X-32849477Y-34914818D01*
X-32831329Y-34842310D01*
X-32808398Y-34780124D01*
X-32778576Y-34724312D01*
X-32739753Y-34670930D01*
X-32689822Y-34616032D01*
X-32689800Y-34616009D01*
X-32623000Y-34556128D01*
X-32552957Y-34509280D01*
X-32478120Y-34474841D01*
X-32396940Y-34452185D01*
X-32307864Y-34440686D01*
X-32250743Y-34438881D01*
X-32180397Y-34441508D01*
G36*
X-31067828Y-34902704D02*
X-31067697Y-35000253D01*
X-31067311Y-35089728D01*
X-31066685Y-35170229D01*
X-31065832Y-35240857D01*
X-31064765Y-35300713D01*
X-31063500Y-35348897D01*
X-31062048Y-35384510D01*
X-31060424Y-35406653D01*
X-31060148Y-35408889D01*
X-31044741Y-35476581D01*
X-31018381Y-35536206D01*
X-30981880Y-35586781D01*
X-30936051Y-35627319D01*
X-30881708Y-35656836D01*
X-30845617Y-35668778D01*
X-30779306Y-35679274D01*
X-30715243Y-35676443D01*
X-30654984Y-35661094D01*
X-30600084Y-35634038D01*
X-30552098Y-35596084D01*
X-30512582Y-35548043D01*
X-30483091Y-35490725D01*
X-30478274Y-35477457D01*
X-30475072Y-35467757D01*
X-30472314Y-35458229D01*
X-30469963Y-35447749D01*
X-30467980Y-35435193D01*
X-30466326Y-35419439D01*
X-30464962Y-35399360D01*
X-30463849Y-35373835D01*
X-30462950Y-35341738D01*
X-30462225Y-35301946D01*
X-30461635Y-35253334D01*
X-30461142Y-35194780D01*
X-30460708Y-35125159D01*
X-30460293Y-35043347D01*
X-30459860Y-34948220D01*
X-30459829Y-34941329D01*
X-30457652Y-34453286D01*
X-30160685Y-34453286D01*
X-30160685Y-35962772D01*
X-30458228Y-35962772D01*
X-30458228Y-35882943D01*
X-30458611Y-35850864D01*
X-30459650Y-35824940D01*
X-30461179Y-35808099D01*
X-30462746Y-35803114D01*
X-30469724Y-35807750D01*
X-30484520Y-35820137D01*
X-30504464Y-35837997D01*
X-30513825Y-35846670D01*
X-30572051Y-35894345D01*
X-30632949Y-35930061D01*
X-30698934Y-35954769D01*
X-30772423Y-35969416D01*
X-30839228Y-35974562D01*
X-30882690Y-35975376D01*
X-30916270Y-35974295D01*
X-30944521Y-35970955D01*
X-30971995Y-35964992D01*
X-30977647Y-35963494D01*
X-31062157Y-35933724D01*
X-31137519Y-35893110D01*
X-31203120Y-35842334D01*
X-31258351Y-35782078D01*
X-31302601Y-35713025D01*
X-31335258Y-35635857D01*
X-31355712Y-35551256D01*
X-31357537Y-35539076D01*
X-31359233Y-35519035D01*
X-31360736Y-35484966D01*
X-31362041Y-35437355D01*
X-31363141Y-35376684D01*
X-31364028Y-35303441D01*
X-31364697Y-35218110D01*
X-31365141Y-35121175D01*
X-31365353Y-35013122D01*
X-31365371Y-34968018D01*
X-31365371Y-34453286D01*
X-31067828Y-34453286D01*
X-31067828Y-34902704D01*
X-31067828Y-34902704D01*
G37*
X-31067828Y-34902704D02*
X-31067697Y-35000253D01*
X-31067311Y-35089728D01*
X-31066685Y-35170229D01*
X-31065832Y-35240857D01*
X-31064765Y-35300713D01*
X-31063500Y-35348897D01*
X-31062048Y-35384510D01*
X-31060424Y-35406653D01*
X-31060148Y-35408889D01*
X-31044741Y-35476581D01*
X-31018381Y-35536206D01*
X-30981880Y-35586781D01*
X-30936051Y-35627319D01*
X-30881708Y-35656836D01*
X-30845617Y-35668778D01*
X-30779306Y-35679274D01*
X-30715243Y-35676443D01*
X-30654984Y-35661094D01*
X-30600084Y-35634038D01*
X-30552098Y-35596084D01*
X-30512582Y-35548043D01*
X-30483091Y-35490725D01*
X-30478274Y-35477457D01*
X-30475072Y-35467757D01*
X-30472314Y-35458229D01*
X-30469963Y-35447749D01*
X-30467980Y-35435193D01*
X-30466326Y-35419439D01*
X-30464962Y-35399360D01*
X-30463849Y-35373835D01*
X-30462950Y-35341738D01*
X-30462225Y-35301946D01*
X-30461635Y-35253334D01*
X-30461142Y-35194780D01*
X-30460708Y-35125159D01*
X-30460293Y-35043347D01*
X-30459860Y-34948220D01*
X-30459829Y-34941329D01*
X-30457652Y-34453286D01*
X-30160685Y-34453286D01*
X-30160685Y-35962772D01*
X-30458228Y-35962772D01*
X-30458228Y-35882943D01*
X-30458611Y-35850864D01*
X-30459650Y-35824940D01*
X-30461179Y-35808099D01*
X-30462746Y-35803114D01*
X-30469724Y-35807750D01*
X-30484520Y-35820137D01*
X-30504464Y-35837997D01*
X-30513825Y-35846670D01*
X-30572051Y-35894345D01*
X-30632949Y-35930061D01*
X-30698934Y-35954769D01*
X-30772423Y-35969416D01*
X-30839228Y-35974562D01*
X-30882690Y-35975376D01*
X-30916270Y-35974295D01*
X-30944521Y-35970955D01*
X-30971995Y-35964992D01*
X-30977647Y-35963494D01*
X-31062157Y-35933724D01*
X-31137519Y-35893110D01*
X-31203120Y-35842334D01*
X-31258351Y-35782078D01*
X-31302601Y-35713025D01*
X-31335258Y-35635857D01*
X-31355712Y-35551256D01*
X-31357537Y-35539076D01*
X-31359233Y-35519035D01*
X-31360736Y-35484966D01*
X-31362041Y-35437355D01*
X-31363141Y-35376684D01*
X-31364028Y-35303441D01*
X-31364697Y-35218110D01*
X-31365141Y-35121175D01*
X-31365353Y-35013122D01*
X-31365371Y-34968018D01*
X-31365371Y-34453286D01*
X-31067828Y-34453286D01*
X-31067828Y-34902704D01*
G36*
X-28080594Y-34442996D02*
X-28020858Y-34451385D01*
X-28019756Y-34451612D01*
X-27928153Y-34476933D01*
X-27842941Y-34513923D01*
X-27762492Y-34563459D01*
X-27685179Y-34626418D01*
X-27670996Y-34639698D01*
X-27611983Y-34696078D01*
X-27637481Y-34718011D01*
X-27651953Y-34730641D01*
X-27674580Y-34750603D01*
X-27702704Y-34775545D01*
X-27733669Y-34803113D01*
X-27747008Y-34815020D01*
X-27831037Y-34890097D01*
X-27879600Y-34845598D01*
X-27941828Y-34797461D01*
X-28008246Y-34763217D01*
X-28078776Y-34742888D01*
X-28153340Y-34736494D01*
X-28231859Y-34744057D01*
X-28247229Y-34747076D01*
X-28316415Y-34768260D01*
X-28376268Y-34800535D01*
X-28426826Y-34843938D01*
X-28468124Y-34898504D01*
X-28500200Y-34964269D01*
X-28514366Y-35006765D01*
X-28520421Y-35029272D01*
X-28524865Y-35050166D01*
X-28527942Y-35072317D01*
X-28529894Y-35098591D01*
X-28530966Y-35131858D01*
X-28531400Y-35174986D01*
X-28531457Y-35208029D01*
X-28530653Y-35273583D01*
X-28527909Y-35327536D01*
X-28522732Y-35372729D01*
X-28514626Y-35412002D01*
X-28503094Y-35448196D01*
X-28487643Y-35484153D01*
X-28480952Y-35497732D01*
X-28445025Y-35552938D01*
X-28398240Y-35599287D01*
X-28341931Y-35635799D01*
X-28277432Y-35661493D01*
X-28248428Y-35668778D01*
X-28168995Y-35679283D01*
X-28094353Y-35676134D01*
X-28024034Y-35659206D01*
X-27957568Y-35628372D01*
X-27894487Y-35583506D01*
X-27878200Y-35569176D01*
X-27831172Y-35526084D01*
X-27799815Y-35553928D01*
X-27782556Y-35569258D01*
X-27757559Y-35591469D01*
X-27727936Y-35617796D01*
X-27696795Y-35645475D01*
X-27691019Y-35650609D01*
X-27613580Y-35719446D01*
X-27662490Y-35769056D01*
X-27735018Y-35832958D01*
X-27815832Y-35886681D01*
X-27902513Y-35928896D01*
X-27992647Y-35958274D01*
X-28016071Y-35963588D01*
X-28073198Y-35971999D01*
X-28137939Y-35976020D01*
X-28204159Y-35975586D01*
X-28265719Y-35970629D01*
X-28291971Y-35966594D01*
X-28388251Y-35942124D01*
X-28476004Y-35906004D01*
X-28554969Y-35858517D01*
X-28624886Y-35799944D01*
X-28685492Y-35730566D01*
X-28736527Y-35650665D01*
X-28777731Y-35560522D01*
X-28808841Y-35460420D01*
X-28822841Y-35394070D01*
X-28829140Y-35345156D01*
X-28833046Y-35286304D01*
X-28834565Y-35221896D01*
X-28833702Y-35156308D01*
X-28830460Y-35093921D01*
X-28824845Y-35039112D01*
X-28822446Y-35023282D01*
X-28798674Y-34917976D01*
X-28764340Y-34822151D01*
X-28719690Y-34736096D01*
X-28664971Y-34660101D01*
X-28600430Y-34594455D01*
X-28526314Y-34539449D01*
X-28442869Y-34495371D01*
X-28350342Y-34462511D01*
X-28342771Y-34460434D01*
X-28284454Y-34448718D01*
X-28217748Y-34441809D01*
X-28148009Y-34439853D01*
X-28080594Y-34442996D01*
X-28080594Y-34442996D01*
G37*
X-28080594Y-34442996D02*
X-28020858Y-34451385D01*
X-28019756Y-34451612D01*
X-27928153Y-34476933D01*
X-27842941Y-34513923D01*
X-27762492Y-34563459D01*
X-27685179Y-34626418D01*
X-27670996Y-34639698D01*
X-27611983Y-34696078D01*
X-27637481Y-34718011D01*
X-27651953Y-34730641D01*
X-27674580Y-34750603D01*
X-27702704Y-34775545D01*
X-27733669Y-34803113D01*
X-27747008Y-34815020D01*
X-27831037Y-34890097D01*
X-27879600Y-34845598D01*
X-27941828Y-34797461D01*
X-28008246Y-34763217D01*
X-28078776Y-34742888D01*
X-28153340Y-34736494D01*
X-28231859Y-34744057D01*
X-28247229Y-34747076D01*
X-28316415Y-34768260D01*
X-28376268Y-34800535D01*
X-28426826Y-34843938D01*
X-28468124Y-34898504D01*
X-28500200Y-34964269D01*
X-28514366Y-35006765D01*
X-28520421Y-35029272D01*
X-28524865Y-35050166D01*
X-28527942Y-35072317D01*
X-28529894Y-35098591D01*
X-28530966Y-35131858D01*
X-28531400Y-35174986D01*
X-28531457Y-35208029D01*
X-28530653Y-35273583D01*
X-28527909Y-35327536D01*
X-28522732Y-35372729D01*
X-28514626Y-35412002D01*
X-28503094Y-35448196D01*
X-28487643Y-35484153D01*
X-28480952Y-35497732D01*
X-28445025Y-35552938D01*
X-28398240Y-35599287D01*
X-28341931Y-35635799D01*
X-28277432Y-35661493D01*
X-28248428Y-35668778D01*
X-28168995Y-35679283D01*
X-28094353Y-35676134D01*
X-28024034Y-35659206D01*
X-27957568Y-35628372D01*
X-27894487Y-35583506D01*
X-27878200Y-35569176D01*
X-27831172Y-35526084D01*
X-27799815Y-35553928D01*
X-27782556Y-35569258D01*
X-27757559Y-35591469D01*
X-27727936Y-35617796D01*
X-27696795Y-35645475D01*
X-27691019Y-35650609D01*
X-27613580Y-35719446D01*
X-27662490Y-35769056D01*
X-27735018Y-35832958D01*
X-27815832Y-35886681D01*
X-27902513Y-35928896D01*
X-27992647Y-35958274D01*
X-28016071Y-35963588D01*
X-28073198Y-35971999D01*
X-28137939Y-35976020D01*
X-28204159Y-35975586D01*
X-28265719Y-35970629D01*
X-28291971Y-35966594D01*
X-28388251Y-35942124D01*
X-28476004Y-35906004D01*
X-28554969Y-35858517D01*
X-28624886Y-35799944D01*
X-28685492Y-35730566D01*
X-28736527Y-35650665D01*
X-28777731Y-35560522D01*
X-28808841Y-35460420D01*
X-28822841Y-35394070D01*
X-28829140Y-35345156D01*
X-28833046Y-35286304D01*
X-28834565Y-35221896D01*
X-28833702Y-35156308D01*
X-28830460Y-35093921D01*
X-28824845Y-35039112D01*
X-28822446Y-35023282D01*
X-28798674Y-34917976D01*
X-28764340Y-34822151D01*
X-28719690Y-34736096D01*
X-28664971Y-34660101D01*
X-28600430Y-34594455D01*
X-28526314Y-34539449D01*
X-28442869Y-34495371D01*
X-28350342Y-34462511D01*
X-28342771Y-34460434D01*
X-28284454Y-34448718D01*
X-28217748Y-34441809D01*
X-28148009Y-34439853D01*
X-28080594Y-34442996D01*
G36*
X-26782901Y-34450712D02*
X-26695400Y-34473982D01*
X-26612992Y-34509726D01*
X-26537083Y-34557431D01*
X-26469159Y-34615676D01*
X-26410704Y-34683041D01*
X-26363204Y-34758104D01*
X-26335931Y-34817900D01*
X-26322852Y-34853443D01*
X-26312533Y-34886158D01*
X-26304590Y-34918638D01*
X-26298638Y-34953481D01*
X-26294294Y-34993279D01*
X-26291174Y-35040629D01*
X-26288895Y-35098126D01*
X-26287625Y-35144529D01*
X-26283442Y-35316886D01*
X-27228800Y-35316886D01*
X-27228800Y-35355275D01*
X-27222256Y-35421007D01*
X-27203502Y-35484020D01*
X-27173858Y-35542036D01*
X-27134641Y-35592778D01*
X-27087172Y-35633971D01*
X-27056700Y-35652422D01*
X-27006581Y-35674890D01*
X-26957495Y-35688664D01*
X-26903694Y-35695094D01*
X-26871213Y-35695987D01*
X-26797835Y-35689742D01*
X-26725090Y-35671367D01*
X-26656450Y-35642129D01*
X-26595383Y-35603292D01*
X-26577912Y-35588960D01*
X-26558610Y-35572602D01*
X-26543661Y-35560904D01*
X-26536266Y-35556372D01*
X-26536237Y-35556372D01*
X-26529976Y-35560772D01*
X-26514754Y-35572806D01*
X-26492677Y-35590721D01*
X-26465857Y-35612763D01*
X-26436401Y-35637179D01*
X-26406419Y-35662218D01*
X-26378018Y-35686125D01*
X-26353310Y-35707149D01*
X-26334401Y-35723536D01*
X-26325591Y-35731453D01*
X-26325810Y-35740316D01*
X-26336308Y-35755555D01*
X-26355216Y-35775602D01*
X-26380666Y-35798888D01*
X-26410789Y-35823843D01*
X-26443717Y-35848900D01*
X-26477582Y-35872488D01*
X-26510515Y-35893040D01*
X-26531975Y-35904760D01*
X-26582466Y-35926683D01*
X-26641512Y-35946384D01*
X-26703157Y-35961974D01*
X-26727193Y-35966634D01*
X-26772210Y-35972214D01*
X-26826252Y-35975355D01*
X-26884031Y-35976012D01*
X-26940257Y-35974140D01*
X-26989639Y-35969694D01*
X-26995352Y-35968914D01*
X-27038825Y-35960298D01*
X-27088165Y-35946719D01*
X-27138160Y-35929911D01*
X-27183595Y-35911610D01*
X-27215930Y-35895498D01*
X-27288990Y-35845432D01*
X-27352742Y-35784380D01*
X-27406998Y-35712643D01*
X-27451571Y-35630526D01*
X-27486272Y-35538333D01*
X-27510915Y-35436366D01*
X-27515136Y-35411589D01*
X-27521006Y-35361578D01*
X-27524847Y-35301623D01*
X-27526650Y-35236047D01*
X-27526406Y-35169176D01*
X-27524105Y-35105332D01*
X-27521947Y-35077400D01*
X-27228800Y-35077400D01*
X-26590171Y-35077400D01*
X-26590278Y-35046557D01*
X-26594615Y-35002301D01*
X-26606218Y-34952912D01*
X-26623392Y-34904674D01*
X-26635407Y-34879380D01*
X-26672159Y-34824994D01*
X-26718700Y-34780295D01*
X-26771579Y-34747794D01*
X-26792205Y-34738405D01*
X-26809615Y-34732091D01*
X-26827554Y-34728244D01*
X-26849766Y-34726257D01*
X-26879997Y-34725523D01*
X-26909485Y-34725429D01*
X-26947896Y-34725619D01*
X-26975565Y-34726608D01*
X-26996265Y-34729021D01*
X-27013768Y-34733481D01*
X-27031846Y-34740616D01*
X-27049002Y-34748547D01*
X-27103366Y-34782162D01*
X-27149304Y-34826839D01*
X-27184831Y-34880631D01*
X-27185806Y-34882545D01*
X-27204512Y-34927046D01*
X-27218856Y-34975806D01*
X-27227220Y-35022632D01*
X-27228693Y-35046557D01*
X-27228800Y-35077400D01*
X-27521947Y-35077400D01*
X-27519739Y-35048842D01*
X-27515980Y-35019343D01*
X-27493510Y-34912248D01*
X-27460251Y-34813338D01*
X-27430154Y-34747733D01*
X-27410967Y-34712123D01*
X-27392620Y-34683216D01*
X-27371731Y-34656469D01*
X-27344917Y-34627339D01*
X-27327080Y-34609313D01*
X-27297618Y-34581397D01*
X-27267125Y-34554872D01*
X-27239372Y-34532891D01*
X-27219667Y-34519490D01*
X-27140565Y-34481306D01*
X-27055205Y-34455151D01*
X-26965720Y-34441211D01*
X-26874241Y-34439669D01*
X-26782901Y-34450712D01*
X-26782901Y-34450712D01*
G37*
X-26782901Y-34450712D02*
X-26695400Y-34473982D01*
X-26612992Y-34509726D01*
X-26537083Y-34557431D01*
X-26469159Y-34615676D01*
X-26410704Y-34683041D01*
X-26363204Y-34758104D01*
X-26335931Y-34817900D01*
X-26322852Y-34853443D01*
X-26312533Y-34886158D01*
X-26304590Y-34918638D01*
X-26298638Y-34953481D01*
X-26294294Y-34993279D01*
X-26291174Y-35040629D01*
X-26288895Y-35098126D01*
X-26287625Y-35144529D01*
X-26283442Y-35316886D01*
X-27228800Y-35316886D01*
X-27228800Y-35355275D01*
X-27222256Y-35421007D01*
X-27203502Y-35484020D01*
X-27173858Y-35542036D01*
X-27134641Y-35592778D01*
X-27087172Y-35633971D01*
X-27056700Y-35652422D01*
X-27006581Y-35674890D01*
X-26957495Y-35688664D01*
X-26903694Y-35695094D01*
X-26871213Y-35695987D01*
X-26797835Y-35689742D01*
X-26725090Y-35671367D01*
X-26656450Y-35642129D01*
X-26595383Y-35603292D01*
X-26577912Y-35588960D01*
X-26558610Y-35572602D01*
X-26543661Y-35560904D01*
X-26536266Y-35556372D01*
X-26536237Y-35556372D01*
X-26529976Y-35560772D01*
X-26514754Y-35572806D01*
X-26492677Y-35590721D01*
X-26465857Y-35612763D01*
X-26436401Y-35637179D01*
X-26406419Y-35662218D01*
X-26378018Y-35686125D01*
X-26353310Y-35707149D01*
X-26334401Y-35723536D01*
X-26325591Y-35731453D01*
X-26325810Y-35740316D01*
X-26336308Y-35755555D01*
X-26355216Y-35775602D01*
X-26380666Y-35798888D01*
X-26410789Y-35823843D01*
X-26443717Y-35848900D01*
X-26477582Y-35872488D01*
X-26510515Y-35893040D01*
X-26531975Y-35904760D01*
X-26582466Y-35926683D01*
X-26641512Y-35946384D01*
X-26703157Y-35961974D01*
X-26727193Y-35966634D01*
X-26772210Y-35972214D01*
X-26826252Y-35975355D01*
X-26884031Y-35976012D01*
X-26940257Y-35974140D01*
X-26989639Y-35969694D01*
X-26995352Y-35968914D01*
X-27038825Y-35960298D01*
X-27088165Y-35946719D01*
X-27138160Y-35929911D01*
X-27183595Y-35911610D01*
X-27215930Y-35895498D01*
X-27288990Y-35845432D01*
X-27352742Y-35784380D01*
X-27406998Y-35712643D01*
X-27451571Y-35630526D01*
X-27486272Y-35538333D01*
X-27510915Y-35436366D01*
X-27515136Y-35411589D01*
X-27521006Y-35361578D01*
X-27524847Y-35301623D01*
X-27526650Y-35236047D01*
X-27526406Y-35169176D01*
X-27524105Y-35105332D01*
X-27521947Y-35077400D01*
X-27228800Y-35077400D01*
X-26590171Y-35077400D01*
X-26590278Y-35046557D01*
X-26594615Y-35002301D01*
X-26606218Y-34952912D01*
X-26623392Y-34904674D01*
X-26635407Y-34879380D01*
X-26672159Y-34824994D01*
X-26718700Y-34780295D01*
X-26771579Y-34747794D01*
X-26792205Y-34738405D01*
X-26809615Y-34732091D01*
X-26827554Y-34728244D01*
X-26849766Y-34726257D01*
X-26879997Y-34725523D01*
X-26909485Y-34725429D01*
X-26947896Y-34725619D01*
X-26975565Y-34726608D01*
X-26996265Y-34729021D01*
X-27013768Y-34733481D01*
X-27031846Y-34740616D01*
X-27049002Y-34748547D01*
X-27103366Y-34782162D01*
X-27149304Y-34826839D01*
X-27184831Y-34880631D01*
X-27185806Y-34882545D01*
X-27204512Y-34927046D01*
X-27218856Y-34975806D01*
X-27227220Y-35022632D01*
X-27228693Y-35046557D01*
X-27228800Y-35077400D01*
X-27521947Y-35077400D01*
X-27519739Y-35048842D01*
X-27515980Y-35019343D01*
X-27493510Y-34912248D01*
X-27460251Y-34813338D01*
X-27430154Y-34747733D01*
X-27410967Y-34712123D01*
X-27392620Y-34683216D01*
X-27371731Y-34656469D01*
X-27344917Y-34627339D01*
X-27327080Y-34609313D01*
X-27297618Y-34581397D01*
X-27267125Y-34554872D01*
X-27239372Y-34532891D01*
X-27219667Y-34519490D01*
X-27140565Y-34481306D01*
X-27055205Y-34455151D01*
X-26965720Y-34441211D01*
X-26874241Y-34439669D01*
X-26782901Y-34450712D01*
G36*
X-35585937Y-34446026D02*
X-35506023Y-34466369D01*
X-35431546Y-34498948D01*
X-35363762Y-34542783D01*
X-35303926Y-34596894D01*
X-35253294Y-34660303D01*
X-35213123Y-34732029D01*
X-35184666Y-34811094D01*
X-35182576Y-34819118D01*
X-35179860Y-34830428D01*
X-35177506Y-34842001D01*
X-35175488Y-34854913D01*
X-35173782Y-34870240D01*
X-35172361Y-34889057D01*
X-35171198Y-34912439D01*
X-35170269Y-34941464D01*
X-35169547Y-34977206D01*
X-35169006Y-35020741D01*
X-35168621Y-35073144D01*
X-35168365Y-35135491D01*
X-35168212Y-35208859D01*
X-35168138Y-35294322D01*
X-35168115Y-35392956D01*
X-35168114Y-35419647D01*
X-35168114Y-35962772D01*
X-35465657Y-35962772D01*
X-35465657Y-35487786D01*
X-35465780Y-35374701D01*
X-35466150Y-35275950D01*
X-35466769Y-35191354D01*
X-35467642Y-35120737D01*
X-35468771Y-35063918D01*
X-35470158Y-35020721D01*
X-35471806Y-34990966D01*
X-35473718Y-34974476D01*
X-35473746Y-34974343D01*
X-35493816Y-34909842D01*
X-35524926Y-34854762D01*
X-35567099Y-34809070D01*
X-35620359Y-34772735D01*
X-35630855Y-34767319D01*
X-35656376Y-34755045D01*
X-35676221Y-34747144D01*
X-35694983Y-34742675D01*
X-35717259Y-34740698D01*
X-35747644Y-34740274D01*
X-35762823Y-34740328D01*
X-35802365Y-34741204D01*
X-35832047Y-34743810D01*
X-35856488Y-34748805D01*
X-35880302Y-34756849D01*
X-35881363Y-34757266D01*
X-35938856Y-34787249D01*
X-35986588Y-34827966D01*
X-36024497Y-34879354D01*
X-36048467Y-34930089D01*
X-36051577Y-34938569D01*
X-36054257Y-34947088D01*
X-36056546Y-34956748D01*
X-36058479Y-34968652D01*
X-36060093Y-34983900D01*
X-36061426Y-35003595D01*
X-36062514Y-35028839D01*
X-36063394Y-35060733D01*
X-36064103Y-35100381D01*
X-36064677Y-35148882D01*
X-36065154Y-35207341D01*
X-36065570Y-35276858D01*
X-36065962Y-35358535D01*
X-36066367Y-35453475D01*
X-36066425Y-35467472D01*
X-36068479Y-35962772D01*
X-36365543Y-35962772D01*
X-36365543Y-34453286D01*
X-36068000Y-34453286D01*
X-36068000Y-34533114D01*
X-36067520Y-34565192D01*
X-36066219Y-34591116D01*
X-36064304Y-34607957D01*
X-36062340Y-34612943D01*
X-36054443Y-34608089D01*
X-36040775Y-34595758D01*
X-36032733Y-34587555D01*
X-35971886Y-34533391D01*
X-35903078Y-34491106D01*
X-35827172Y-34461053D01*
X-35745028Y-34443585D01*
X-35670033Y-34438898D01*
X-35585937Y-34446026D01*
X-35585937Y-34446026D01*
G37*
X-35585937Y-34446026D02*
X-35506023Y-34466369D01*
X-35431546Y-34498948D01*
X-35363762Y-34542783D01*
X-35303926Y-34596894D01*
X-35253294Y-34660303D01*
X-35213123Y-34732029D01*
X-35184666Y-34811094D01*
X-35182576Y-34819118D01*
X-35179860Y-34830428D01*
X-35177506Y-34842001D01*
X-35175488Y-34854913D01*
X-35173782Y-34870240D01*
X-35172361Y-34889057D01*
X-35171198Y-34912439D01*
X-35170269Y-34941464D01*
X-35169547Y-34977206D01*
X-35169006Y-35020741D01*
X-35168621Y-35073144D01*
X-35168365Y-35135491D01*
X-35168212Y-35208859D01*
X-35168138Y-35294322D01*
X-35168115Y-35392956D01*
X-35168114Y-35419647D01*
X-35168114Y-35962772D01*
X-35465657Y-35962772D01*
X-35465657Y-35487786D01*
X-35465780Y-35374701D01*
X-35466150Y-35275950D01*
X-35466769Y-35191354D01*
X-35467642Y-35120737D01*
X-35468771Y-35063918D01*
X-35470158Y-35020721D01*
X-35471806Y-34990966D01*
X-35473718Y-34974476D01*
X-35473746Y-34974343D01*
X-35493816Y-34909842D01*
X-35524926Y-34854762D01*
X-35567099Y-34809070D01*
X-35620359Y-34772735D01*
X-35630855Y-34767319D01*
X-35656376Y-34755045D01*
X-35676221Y-34747144D01*
X-35694983Y-34742675D01*
X-35717259Y-34740698D01*
X-35747644Y-34740274D01*
X-35762823Y-34740328D01*
X-35802365Y-34741204D01*
X-35832047Y-34743810D01*
X-35856488Y-34748805D01*
X-35880302Y-34756849D01*
X-35881363Y-34757266D01*
X-35938856Y-34787249D01*
X-35986588Y-34827966D01*
X-36024497Y-34879354D01*
X-36048467Y-34930089D01*
X-36051577Y-34938569D01*
X-36054257Y-34947088D01*
X-36056546Y-34956748D01*
X-36058479Y-34968652D01*
X-36060093Y-34983900D01*
X-36061426Y-35003595D01*
X-36062514Y-35028839D01*
X-36063394Y-35060733D01*
X-36064103Y-35100381D01*
X-36064677Y-35148882D01*
X-36065154Y-35207341D01*
X-36065570Y-35276858D01*
X-36065962Y-35358535D01*
X-36066367Y-35453475D01*
X-36066425Y-35467472D01*
X-36068479Y-35962772D01*
X-36365543Y-35962772D01*
X-36365543Y-34453286D01*
X-36068000Y-34453286D01*
X-36068000Y-34533114D01*
X-36067520Y-34565192D01*
X-36066219Y-34591116D01*
X-36064304Y-34607957D01*
X-36062340Y-34612943D01*
X-36054443Y-34608089D01*
X-36040775Y-34595758D01*
X-36032733Y-34587555D01*
X-35971886Y-34533391D01*
X-35903078Y-34491106D01*
X-35827172Y-34461053D01*
X-35745028Y-34443585D01*
X-35670033Y-34438898D01*
X-35585937Y-34446026D01*
G36*
X-29017685Y-34449653D02*
X-28982499Y-34459559D01*
X-28941727Y-34474947D01*
X-28900101Y-34493663D01*
X-28862354Y-34513552D01*
X-28833218Y-34532460D01*
X-28829712Y-34535217D01*
X-28808653Y-34552374D01*
X-28916277Y-34680524D01*
X-29023901Y-34808673D01*
X-29046193Y-34793740D01*
X-29065394Y-34782123D01*
X-29090959Y-34768198D01*
X-29108400Y-34759381D01*
X-29128305Y-34750425D01*
X-29146372Y-34744749D01*
X-29166875Y-34741650D01*
X-29194090Y-34740427D01*
X-29224514Y-34740334D01*
X-29279680Y-34742977D01*
X-29324762Y-34751205D01*
X-29363565Y-34766382D01*
X-29399893Y-34789871D01*
X-29426870Y-34812897D01*
X-29468490Y-34861070D01*
X-29498178Y-34917489D01*
X-29514827Y-34975945D01*
X-29516268Y-34990957D01*
X-29517580Y-35019544D01*
X-29518750Y-35060764D01*
X-29519764Y-35113679D01*
X-29520610Y-35177347D01*
X-29521275Y-35250830D01*
X-29521744Y-35333187D01*
X-29522005Y-35423479D01*
X-29522057Y-35488419D01*
X-29522057Y-35962772D01*
X-29819600Y-35962772D01*
X-29819600Y-34453286D01*
X-29522057Y-34453286D01*
X-29522057Y-34533114D01*
X-29521670Y-34565193D01*
X-29520622Y-34591117D01*
X-29519079Y-34607958D01*
X-29517497Y-34612943D01*
X-29510568Y-34608278D01*
X-29495751Y-34595760D01*
X-29475612Y-34577606D01*
X-29463566Y-34566370D01*
X-29402382Y-34518391D01*
X-29332937Y-34481174D01*
X-29257270Y-34455251D01*
X-29177419Y-34441157D01*
X-29095422Y-34439424D01*
X-29017685Y-34449653D01*
X-29017685Y-34449653D01*
G37*
X-29017685Y-34449653D02*
X-28982499Y-34459559D01*
X-28941727Y-34474947D01*
X-28900101Y-34493663D01*
X-28862354Y-34513552D01*
X-28833218Y-34532460D01*
X-28829712Y-34535217D01*
X-28808653Y-34552374D01*
X-28916277Y-34680524D01*
X-29023901Y-34808673D01*
X-29046193Y-34793740D01*
X-29065394Y-34782123D01*
X-29090959Y-34768198D01*
X-29108400Y-34759381D01*
X-29128305Y-34750425D01*
X-29146372Y-34744749D01*
X-29166875Y-34741650D01*
X-29194090Y-34740427D01*
X-29224514Y-34740334D01*
X-29279680Y-34742977D01*
X-29324762Y-34751205D01*
X-29363565Y-34766382D01*
X-29399893Y-34789871D01*
X-29426870Y-34812897D01*
X-29468490Y-34861070D01*
X-29498178Y-34917489D01*
X-29514827Y-34975945D01*
X-29516268Y-34990957D01*
X-29517580Y-35019544D01*
X-29518750Y-35060764D01*
X-29519764Y-35113679D01*
X-29520610Y-35177347D01*
X-29521275Y-35250830D01*
X-29521744Y-35333187D01*
X-29522005Y-35423479D01*
X-29522057Y-35488419D01*
X-29522057Y-35962772D01*
X-29819600Y-35962772D01*
X-29819600Y-34453286D01*
X-29522057Y-34453286D01*
X-29522057Y-34533114D01*
X-29521670Y-34565193D01*
X-29520622Y-34591117D01*
X-29519079Y-34607958D01*
X-29517497Y-34612943D01*
X-29510568Y-34608278D01*
X-29495751Y-34595760D01*
X-29475612Y-34577606D01*
X-29463566Y-34566370D01*
X-29402382Y-34518391D01*
X-29332937Y-34481174D01*
X-29257270Y-34455251D01*
X-29177419Y-34441157D01*
X-29095422Y-34439424D01*
X-29017685Y-34449653D01*
G36*
X-33423155Y-23139405D02*
X-33317453Y-23139429D01*
X-33224552Y-23139491D01*
X-33143596Y-23139606D01*
X-33073727Y-23139791D01*
X-33014088Y-23140063D01*
X-32963824Y-23140438D01*
X-32922077Y-23140934D01*
X-32887990Y-23141566D01*
X-32860708Y-23142353D01*
X-32839373Y-23143309D01*
X-32823128Y-23144453D01*
X-32811117Y-23145800D01*
X-32802483Y-23147367D01*
X-32796370Y-23149172D01*
X-32791920Y-23151230D01*
X-32788277Y-23153558D01*
X-32787506Y-23154103D01*
X-32772236Y-23167644D01*
X-32763173Y-23180577D01*
X-32762913Y-23181317D01*
X-32761058Y-23190061D01*
X-32756733Y-23212102D01*
X-32750121Y-23246468D01*
X-32741406Y-23292185D01*
X-32730771Y-23348282D01*
X-32718399Y-23413786D01*
X-32704475Y-23487723D01*
X-32689181Y-23569123D01*
X-32672701Y-23657011D01*
X-32655219Y-23750417D01*
X-32636918Y-23848366D01*
X-32624579Y-23914497D01*
X-32605758Y-24015085D01*
X-32587522Y-24111885D01*
X-32570063Y-24203913D01*
X-32553574Y-24290183D01*
X-32538247Y-24369710D01*
X-32524274Y-24441508D01*
X-32511849Y-24504591D01*
X-32501163Y-24557973D01*
X-32492410Y-24600670D01*
X-32485781Y-24631696D01*
X-32481469Y-24650066D01*
X-32480013Y-24654726D01*
X-32466626Y-24674577D01*
X-32452818Y-24689646D01*
X-32443465Y-24694822D01*
X-32421745Y-24704975D01*
X-32388748Y-24719644D01*
X-32345564Y-24738365D01*
X-32293282Y-24760677D01*
X-32232991Y-24786118D01*
X-32165783Y-24814225D01*
X-32092745Y-24844536D01*
X-32014969Y-24876589D01*
X-31933543Y-24909922D01*
X-31933100Y-24910102D01*
X-31838092Y-24948833D01*
X-31755562Y-24982391D01*
X-31684566Y-25011132D01*
X-31624160Y-25035411D01*
X-31573403Y-25055586D01*
X-31531350Y-25072010D01*
X-31497058Y-25085040D01*
X-31469586Y-25095032D01*
X-31447988Y-25102340D01*
X-31431323Y-25107322D01*
X-31418648Y-25110333D01*
X-31409018Y-25111727D01*
X-31401491Y-25111862D01*
X-31398770Y-25111633D01*
X-31393916Y-25110708D01*
X-31387762Y-25108687D01*
X-31379793Y-25105226D01*
X-31369491Y-25099980D01*
X-31356342Y-25092601D01*
X-31339829Y-25082746D01*
X-31319435Y-25070069D01*
X-31294644Y-25054223D01*
X-31264941Y-25034865D01*
X-31229809Y-25011647D01*
X-31188732Y-24984225D01*
X-31141194Y-24952253D01*
X-31086678Y-24915385D01*
X-31024668Y-24873277D01*
X-30954649Y-24825582D01*
X-30876104Y-24771955D01*
X-30788516Y-24712051D01*
X-30691370Y-24645523D01*
X-30584150Y-24572028D01*
X-30466339Y-24491218D01*
X-30337421Y-24402749D01*
X-30247963Y-24341344D01*
X-30204297Y-24311791D01*
X-30170345Y-24290112D01*
X-30144173Y-24275519D01*
X-30123850Y-24267222D01*
X-30107441Y-24264434D01*
X-30093014Y-24266367D01*
X-30078637Y-24272232D01*
X-30078566Y-24272268D01*
X-30071293Y-24278432D01*
X-30054485Y-24294163D01*
X-30028857Y-24318756D01*
X-29995126Y-24351506D01*
X-29954011Y-24391708D01*
X-29906228Y-24438656D01*
X-29852494Y-24491645D01*
X-29793526Y-24549970D01*
X-29730041Y-24612924D01*
X-29662757Y-24679804D01*
X-29592390Y-24749903D01*
X-29552870Y-24789340D01*
X-29455459Y-24886747D01*
X-29368393Y-24974120D01*
X-29291599Y-25051531D01*
X-29225007Y-25119056D01*
X-29168545Y-25176766D01*
X-29122141Y-25224736D01*
X-29085723Y-25263039D01*
X-29059221Y-25291748D01*
X-29042562Y-25310938D01*
X-29035676Y-25320681D01*
X-29035581Y-25320940D01*
X-29032171Y-25349085D01*
X-29035904Y-25363912D01*
X-29041043Y-25372684D01*
X-29053849Y-25392561D01*
X-29073749Y-25422701D01*
X-29100172Y-25462258D01*
X-29132547Y-25510388D01*
X-29170303Y-25566246D01*
X-29212868Y-25628990D01*
X-29259672Y-25697773D01*
X-29310142Y-25771752D01*
X-29363708Y-25850083D01*
X-29419798Y-25931920D01*
X-29447424Y-25972162D01*
X-29504606Y-26055553D01*
X-29559568Y-26135981D01*
X-29611735Y-26212587D01*
X-29660530Y-26284514D01*
X-29705378Y-26350902D01*
X-29745703Y-26410896D01*
X-29780928Y-26463635D01*
X-29810478Y-26508264D01*
X-29833776Y-26543922D01*
X-29850248Y-26569754D01*
X-29859317Y-26584899D01*
X-29860852Y-26588068D01*
X-29866069Y-26611309D01*
X-29866531Y-26632620D01*
X-29865965Y-26635821D01*
X-29862426Y-26645521D01*
X-29853605Y-26667477D01*
X-29839953Y-26700615D01*
X-29821924Y-26743858D01*
X-29799972Y-26796130D01*
X-29774549Y-26856356D01*
X-29746109Y-26923459D01*
X-29715105Y-26996365D01*
X-29681989Y-27073996D01*
X-29647216Y-27155278D01*
X-29643699Y-27163486D01*
X-29601746Y-27261263D01*
X-29565012Y-27346556D01*
X-29533067Y-27420254D01*
X-29505483Y-27483243D01*
X-29481831Y-27536411D01*
X-29461685Y-27580645D01*
X-29444615Y-27616834D01*
X-29430194Y-27645865D01*
X-29417992Y-27668625D01*
X-29407583Y-27686002D01*
X-29398537Y-27698883D01*
X-29390427Y-27708157D01*
X-29382825Y-27714710D01*
X-29375557Y-27719292D01*
X-29373278Y-27720430D01*
X-29370154Y-27721649D01*
X-29365423Y-27723095D01*
X-29358320Y-27724913D01*
X-29348085Y-27727250D01*
X-29333954Y-27730250D01*
X-29315164Y-27734060D01*
X-29290952Y-27738824D01*
X-29260557Y-27744689D01*
X-29223215Y-27751800D01*
X-29178164Y-27760302D01*
X-29124640Y-27770341D01*
X-29061882Y-27782063D01*
X-28989126Y-27795614D01*
X-28905611Y-27811137D01*
X-28810572Y-27828781D01*
X-28703248Y-27848689D01*
X-28582875Y-27871007D01*
X-28503549Y-27885713D01*
X-28414643Y-27902291D01*
X-28329965Y-27918272D01*
X-28250618Y-27933434D01*
X-28177706Y-27947560D01*
X-28112332Y-27960429D01*
X-28055601Y-27971822D01*
X-28008616Y-27981519D01*
X-27972480Y-27989301D01*
X-27948297Y-27994948D01*
X-27937171Y-27998240D01*
X-27936796Y-27998446D01*
X-27921022Y-28013563D01*
X-27912090Y-28027529D01*
X-27910610Y-28035036D01*
X-27909292Y-28051062D01*
X-27908132Y-28076163D01*
X-27907122Y-28110894D01*
X-27906257Y-28155808D01*
X-27905529Y-28211462D01*
X-27904933Y-28278410D01*
X-27904463Y-28357208D01*
X-27904113Y-28448409D01*
X-27903876Y-28552569D01*
X-27903745Y-28670243D01*
X-27903714Y-28774798D01*
X-27903714Y-29503685D01*
X-27923995Y-29526383D01*
X-27944276Y-29549082D01*
X-28328581Y-29620365D01*
X-28468099Y-29646246D01*
X-28594058Y-29669622D01*
X-28707169Y-29690632D01*
X-28808142Y-29709417D01*
X-28897690Y-29726118D01*
X-28976522Y-29740876D01*
X-29045352Y-29753830D01*
X-29104890Y-29765121D01*
X-29155846Y-29774891D01*
X-29198934Y-29783278D01*
X-29234863Y-29790423D01*
X-29264346Y-29796468D01*
X-29288093Y-29801553D01*
X-29306815Y-29805817D01*
X-29321225Y-29809402D01*
X-29332033Y-29812447D01*
X-29339951Y-29815094D01*
X-29345689Y-29817483D01*
X-29349960Y-29819755D01*
X-29353474Y-29822049D01*
X-29354879Y-29823041D01*
X-29372891Y-29839243D01*
X-29386468Y-29857110D01*
X-29387089Y-29858272D01*
X-29391304Y-29867932D01*
X-29400480Y-29890008D01*
X-29414186Y-29923439D01*
X-29431994Y-29967164D01*
X-29453475Y-30020123D01*
X-29478198Y-30081255D01*
X-29505736Y-30149499D01*
X-29535657Y-30223795D01*
X-29567534Y-30303082D01*
X-29600936Y-30386299D01*
X-29611951Y-30413771D01*
X-29652335Y-30514583D01*
X-29687593Y-30602843D01*
X-29718035Y-30679458D01*
X-29743967Y-30745335D01*
X-29765697Y-30801383D01*
X-29783533Y-30848508D01*
X-29797782Y-30887618D01*
X-29808753Y-30919620D01*
X-29816752Y-30945422D01*
X-29822088Y-30965930D01*
X-29825067Y-30982053D01*
X-29825998Y-30994697D01*
X-29825188Y-31004770D01*
X-29822945Y-31013180D01*
X-29819576Y-31020833D01*
X-29818481Y-31022949D01*
X-29813225Y-31031129D01*
X-29800329Y-31050401D01*
X-29780382Y-31079901D01*
X-29753975Y-31118767D01*
X-29721696Y-31166135D01*
X-29684137Y-31221140D01*
X-29641885Y-31282921D01*
X-29595532Y-31350612D01*
X-29545666Y-31423352D01*
X-29492878Y-31500276D01*
X-29437757Y-31580520D01*
X-29429429Y-31592638D01*
X-29373935Y-31673436D01*
X-29320646Y-31751146D01*
X-29270156Y-31824893D01*
X-29223060Y-31893802D01*
X-29179953Y-31957000D01*
X-29141430Y-32013613D01*
X-29108086Y-32062765D01*
X-29080515Y-32103582D01*
X-29059312Y-32135190D01*
X-29045073Y-32156715D01*
X-29038392Y-32167282D01*
X-29038098Y-32167829D01*
X-29031180Y-32192783D01*
X-29031950Y-32209691D01*
X-29037653Y-32217693D01*
X-29052860Y-32235031D01*
X-29076732Y-32260863D01*
X-29108426Y-32294346D01*
X-29147102Y-32334635D01*
X-29191920Y-32380889D01*
X-29242038Y-32432262D01*
X-29296616Y-32487914D01*
X-29354813Y-32546998D01*
X-29415789Y-32608674D01*
X-29478701Y-32672097D01*
X-29542710Y-32736424D01*
X-29606975Y-32800812D01*
X-29670654Y-32864418D01*
X-29732908Y-32926397D01*
X-29792894Y-32985908D01*
X-29849774Y-33042106D01*
X-29902705Y-33094148D01*
X-29950846Y-33141192D01*
X-29993358Y-33182393D01*
X-30029399Y-33216909D01*
X-30058129Y-33243897D01*
X-30078706Y-33262512D01*
X-30090289Y-33271911D01*
X-30091979Y-33272842D01*
X-30114246Y-33275058D01*
X-30130101Y-33272001D01*
X-30138897Y-33266951D01*
X-30158770Y-33254259D01*
X-30188845Y-33234519D01*
X-30228243Y-33208320D01*
X-30276088Y-33176253D01*
X-30331503Y-33138910D01*
X-30393611Y-33096882D01*
X-30461536Y-33050760D01*
X-30534400Y-33001134D01*
X-30611326Y-32948595D01*
X-30691439Y-32893736D01*
X-30697818Y-32889361D01*
X-30778240Y-32834271D01*
X-30855610Y-32781400D01*
X-30929044Y-32731345D01*
X-30997657Y-32684701D01*
X-31060566Y-32642067D01*
X-31116886Y-32604038D01*
X-31165734Y-32571213D01*
X-31206224Y-32544188D01*
X-31237472Y-32523560D01*
X-31258595Y-32509925D01*
X-31268709Y-32503882D01*
X-31268981Y-32503759D01*
X-31279628Y-32499277D01*
X-31289326Y-32495916D01*
X-31299248Y-32494160D01*
X-31310566Y-32494496D01*
X-31324451Y-32497406D01*
X-31342076Y-32503376D01*
X-31364611Y-32512891D01*
X-31393230Y-32526435D01*
X-31429103Y-32544493D01*
X-31473403Y-32567550D01*
X-31527301Y-32596090D01*
X-31591970Y-32630599D01*
X-31647851Y-32660478D01*
X-31707096Y-32691806D01*
X-31759059Y-32718575D01*
X-31802665Y-32740264D01*
X-31836841Y-32756351D01*
X-31860510Y-32766312D01*
X-31872442Y-32769629D01*
X-31891988Y-32765079D01*
X-31904817Y-32756453D01*
X-31907764Y-32751265D01*
X-31913644Y-32738859D01*
X-31922589Y-32718922D01*
X-31934728Y-32691140D01*
X-31950193Y-32655200D01*
X-31969115Y-32610787D01*
X-31991624Y-32557588D01*
X-32017852Y-32495288D01*
X-32047930Y-32423575D01*
X-32081989Y-32342134D01*
X-32120159Y-32250652D01*
X-32162572Y-32148814D01*
X-32209359Y-32036306D01*
X-32260650Y-31912816D01*
X-32316577Y-31778029D01*
X-32377270Y-31631631D01*
X-32442860Y-31473309D01*
X-32513479Y-31302748D01*
X-32589258Y-31119635D01*
X-32670327Y-30923657D01*
X-32736751Y-30763029D01*
X-32767983Y-30687430D01*
X-32797644Y-30615503D01*
X-32825256Y-30548419D01*
X-32850340Y-30487347D01*
X-32872417Y-30433456D01*
X-32891009Y-30387915D01*
X-32905637Y-30351894D01*
X-32915821Y-30326562D01*
X-32921083Y-30313090D01*
X-32921654Y-30311459D01*
X-32923271Y-30290776D01*
X-32914767Y-30270064D01*
X-32895150Y-30248123D01*
X-32863426Y-30223752D01*
X-32833000Y-30204312D01*
X-32797973Y-30182381D01*
X-32761492Y-30158358D01*
X-32728975Y-30135861D01*
X-32713922Y-30124826D01*
X-32684139Y-30102622D01*
X-32652021Y-30079240D01*
X-32624363Y-30059623D01*
X-32623588Y-30059086D01*
X-32601642Y-30042922D01*
X-32572536Y-30020149D01*
X-32540001Y-29993747D01*
X-32507773Y-29966697D01*
X-32506647Y-29965733D01*
X-32399762Y-29864662D01*
X-32303331Y-29753920D01*
X-32217821Y-29634367D01*
X-32143699Y-29506864D01*
X-32081432Y-29372269D01*
X-32031488Y-29231446D01*
X-31994333Y-29085253D01*
X-31977800Y-28991448D01*
X-31971618Y-28935095D01*
X-31967733Y-28868723D01*
X-31966142Y-28796644D01*
X-31966840Y-28723168D01*
X-31969824Y-28652608D01*
X-31975090Y-28589275D01*
X-31978176Y-28564477D01*
X-32006107Y-28416705D01*
X-32047239Y-28273916D01*
X-32100969Y-28136836D01*
X-32166690Y-28006191D01*
X-32243800Y-27882704D01*
X-32331692Y-27767102D01*
X-32429761Y-27660109D01*
X-32537404Y-27562451D01*
X-32654016Y-27474852D01*
X-32778991Y-27398039D01*
X-32911725Y-27332735D01*
X-33049028Y-27280511D01*
X-33153458Y-27249602D01*
X-33253926Y-27227199D01*
X-33355090Y-27212577D01*
X-33461608Y-27205009D01*
X-33542514Y-27203519D01*
X-33655612Y-27206547D01*
X-33760070Y-27216117D01*
X-33860545Y-27232954D01*
X-33961696Y-27257786D01*
X-34036000Y-27280511D01*
X-34175297Y-27333658D01*
X-34307811Y-27399169D01*
X-34432842Y-27476298D01*
X-34549692Y-27564301D01*
X-34657661Y-27662434D01*
X-34756051Y-27769952D01*
X-34844162Y-27886110D01*
X-34921296Y-28010165D01*
X-34986753Y-28141371D01*
X-35039835Y-28278984D01*
X-35070107Y-28382039D01*
X-35092046Y-28477945D01*
X-35107080Y-28569494D01*
X-35115924Y-28662439D01*
X-35119294Y-28762534D01*
X-35119371Y-28778200D01*
X-35112554Y-28929928D01*
X-35091717Y-29078215D01*
X-35057045Y-29222588D01*
X-35008725Y-29362576D01*
X-34946944Y-29497706D01*
X-34871889Y-29627506D01*
X-34783746Y-29751504D01*
X-34692284Y-29858940D01*
X-34662181Y-29889486D01*
X-34623889Y-29925350D01*
X-34581018Y-29963399D01*
X-34537183Y-30000502D01*
X-34495993Y-30033527D01*
X-34461433Y-30059086D01*
X-34434048Y-30078488D01*
X-34401973Y-30101824D01*
X-34372001Y-30124148D01*
X-34371106Y-30124826D01*
X-34343438Y-30144745D01*
X-34308625Y-30168312D01*
X-34272088Y-30191908D01*
X-34252028Y-30204312D01*
X-34211104Y-30231136D01*
X-34182991Y-30254680D01*
X-34166696Y-30276147D01*
X-34161223Y-30296735D01*
X-34163356Y-30311459D01*
X-34166911Y-30320824D01*
X-34175545Y-30342429D01*
X-34188778Y-30375102D01*
X-34206132Y-30417676D01*
X-34227127Y-30468981D01*
X-34251285Y-30527846D01*
X-34278128Y-30593104D01*
X-34307175Y-30663583D01*
X-34337949Y-30738116D01*
X-34348248Y-30763029D01*
X-34433456Y-30969063D01*
X-34513273Y-31161991D01*
X-34587831Y-31342127D01*
X-34657260Y-31509786D01*
X-34721692Y-31665284D01*
X-34781259Y-31808937D01*
X-34836093Y-31941059D01*
X-34886326Y-32061966D01*
X-34932087Y-32171973D01*
X-34973511Y-32271395D01*
X-35010727Y-32360549D01*
X-35043868Y-32439749D01*
X-35073065Y-32509310D01*
X-35098450Y-32569548D01*
X-35120154Y-32620778D01*
X-35138309Y-32663315D01*
X-35153047Y-32697476D01*
X-35164498Y-32723574D01*
X-35172796Y-32741926D01*
X-35178071Y-32752846D01*
X-35180211Y-32756453D01*
X-35196269Y-32766392D01*
X-35212586Y-32769629D01*
X-35224985Y-32766138D01*
X-35248936Y-32756013D01*
X-35283366Y-32739777D01*
X-35327200Y-32717951D01*
X-35379363Y-32691058D01*
X-35437177Y-32660478D01*
X-35510631Y-32621208D01*
X-35572441Y-32588268D01*
X-35623780Y-32561172D01*
X-35665820Y-32539436D01*
X-35699731Y-32522575D01*
X-35726687Y-32510104D01*
X-35747859Y-32501538D01*
X-35764420Y-32496394D01*
X-35777540Y-32494185D01*
X-35788391Y-32494427D01*
X-35798147Y-32496636D01*
X-35807978Y-32500326D01*
X-35816047Y-32503749D01*
X-35825359Y-32509238D01*
X-35845745Y-32522356D01*
X-35876319Y-32542508D01*
X-35916199Y-32569096D01*
X-35964498Y-32601524D01*
X-36020334Y-32639195D01*
X-36082821Y-32681512D01*
X-36151075Y-32727879D01*
X-36224213Y-32777699D01*
X-36301350Y-32830376D01*
X-36381600Y-32885312D01*
X-36387314Y-32889228D01*
X-36467581Y-32944195D01*
X-36544671Y-32996879D01*
X-36617712Y-33046692D01*
X-36685834Y-33093044D01*
X-36748164Y-33135346D01*
X-36803834Y-33173008D01*
X-36851971Y-33205442D01*
X-36891705Y-33232059D01*
X-36922165Y-33252269D01*
X-36942479Y-33265483D01*
X-36951778Y-33271113D01*
X-36952029Y-33271222D01*
X-36973653Y-33276729D01*
X-36993272Y-33273600D01*
X-36998723Y-33271583D01*
X-37005528Y-33265849D01*
X-37021878Y-33250533D01*
X-37047069Y-33226328D01*
X-37080397Y-33193929D01*
X-37121157Y-33154030D01*
X-37168644Y-33107323D01*
X-37222154Y-33054504D01*
X-37280982Y-32996265D01*
X-37344424Y-32933302D01*
X-37411775Y-32866307D01*
X-37482331Y-32795974D01*
X-37529996Y-32748378D01*
X-37623136Y-32655201D01*
X-37706215Y-32571854D01*
X-37779542Y-32498017D01*
X-37843429Y-32433370D01*
X-37898189Y-32377592D01*
X-37944131Y-32330362D01*
X-37981567Y-32291360D01*
X-38010808Y-32260265D01*
X-38032167Y-32236757D01*
X-38045954Y-32220514D01*
X-38052480Y-32211217D01*
X-38053078Y-32209691D01*
X-38052750Y-32185203D01*
X-38047031Y-32168031D01*
X-38041452Y-32159073D01*
X-38028233Y-32139035D01*
X-38007965Y-32108788D01*
X-37981244Y-32069206D01*
X-37948661Y-32021160D01*
X-37910812Y-31965523D01*
X-37868289Y-31903167D01*
X-37821685Y-31834964D01*
X-37771595Y-31761785D01*
X-37718611Y-31684504D01*
X-37663327Y-31603993D01*
X-37654388Y-31590986D01*
X-37598868Y-31510124D01*
X-37545620Y-31432401D01*
X-37495233Y-31358684D01*
X-37448292Y-31289839D01*
X-37405385Y-31226733D01*
X-37367098Y-31170232D01*
X-37334019Y-31121203D01*
X-37306735Y-31080513D01*
X-37285833Y-31049027D01*
X-37271899Y-31027613D01*
X-37265520Y-31017137D01*
X-37265234Y-31016517D01*
X-37260083Y-30995403D01*
X-37258171Y-30974111D01*
X-37260796Y-30964756D01*
X-37268344Y-30943174D01*
X-37280327Y-30910607D01*
X-37296255Y-30868296D01*
X-37315639Y-30817481D01*
X-37337991Y-30759403D01*
X-37362821Y-30695304D01*
X-37389640Y-30626424D01*
X-37417959Y-30554005D01*
X-37447289Y-30479286D01*
X-37477141Y-30403510D01*
X-37507026Y-30327916D01*
X-37536455Y-30253747D01*
X-37564939Y-30182243D01*
X-37591988Y-30114645D01*
X-37617114Y-30052193D01*
X-37639828Y-29996130D01*
X-37659640Y-29947695D01*
X-37676062Y-29908129D01*
X-37688604Y-29878675D01*
X-37696778Y-29860572D01*
X-37697923Y-29858272D01*
X-37710881Y-29840611D01*
X-37728831Y-29824000D01*
X-37730150Y-29823041D01*
X-37733559Y-29820696D01*
X-37737429Y-29818432D01*
X-37742472Y-29816109D01*
X-37749399Y-29813586D01*
X-37758922Y-29810723D01*
X-37771750Y-29807379D01*
X-37788597Y-29803414D01*
X-37810173Y-29798687D01*
X-37837189Y-29793058D01*
X-37870356Y-29786386D01*
X-37910387Y-29778531D01*
X-37957992Y-29769352D01*
X-38013882Y-29758710D01*
X-38078769Y-29746462D01*
X-38153365Y-29732470D01*
X-38238380Y-29716593D01*
X-38334525Y-29698689D01*
X-38442512Y-29678619D01*
X-38563053Y-29656243D01*
X-38696859Y-29631419D01*
X-38756448Y-29620365D01*
X-39140753Y-29549082D01*
X-39161033Y-29526383D01*
X-39181314Y-29503685D01*
X-39181314Y-28774798D01*
X-39181265Y-28645881D01*
X-39181114Y-28530923D01*
X-39180855Y-28429368D01*
X-39180481Y-28340663D01*
X-39179987Y-28264253D01*
X-39179366Y-28199581D01*
X-39178612Y-28146095D01*
X-39177718Y-28103237D01*
X-39176679Y-28070455D01*
X-39175488Y-28047192D01*
X-39174139Y-28032894D01*
X-39172938Y-28027529D01*
X-39160386Y-28009302D01*
X-39148233Y-27998446D01*
X-39138587Y-27995422D01*
X-39115765Y-27990019D01*
X-39080871Y-27982458D01*
X-39035007Y-27972958D01*
X-38979278Y-27961738D01*
X-38914788Y-27949019D01*
X-38842639Y-27935019D01*
X-38763936Y-27919958D01*
X-38679782Y-27904055D01*
X-38591281Y-27887531D01*
X-38581480Y-27885713D01*
X-38452859Y-27861868D01*
X-38337746Y-27840522D01*
X-38235380Y-27821529D01*
X-38144998Y-27804742D01*
X-38065836Y-27790018D01*
X-37997132Y-27777209D01*
X-37938123Y-27766171D01*
X-37888047Y-27756758D01*
X-37846141Y-27748824D01*
X-37811642Y-27742225D01*
X-37783788Y-27736813D01*
X-37761815Y-27732444D01*
X-37744962Y-27728973D01*
X-37732465Y-27726253D01*
X-37723562Y-27724139D01*
X-37717490Y-27722485D01*
X-37713486Y-27721147D01*
X-37710789Y-27719978D01*
X-37709471Y-27719292D01*
X-37701938Y-27714524D01*
X-37694321Y-27707914D01*
X-37686193Y-27698573D01*
X-37677125Y-27685614D01*
X-37666688Y-27668149D01*
X-37654454Y-27645290D01*
X-37639995Y-27616148D01*
X-37622881Y-27579836D01*
X-37602685Y-27535465D01*
X-37578977Y-27482148D01*
X-37551330Y-27418997D01*
X-37519314Y-27345123D01*
X-37482501Y-27259639D01*
X-37441247Y-27163486D01*
X-37406334Y-27081901D01*
X-37373036Y-27003861D01*
X-37341804Y-26930439D01*
X-37313093Y-26862713D01*
X-37287355Y-26801759D01*
X-37265044Y-26748651D01*
X-37246612Y-26704466D01*
X-37232512Y-26670279D01*
X-37223198Y-26647167D01*
X-37219123Y-26636204D01*
X-37219021Y-26635821D01*
X-37218457Y-26616114D01*
X-37222814Y-26592436D01*
X-37224316Y-26587661D01*
X-37229757Y-26577731D01*
X-37242871Y-26556718D01*
X-37263080Y-26525480D01*
X-37289809Y-26484876D01*
X-37322481Y-26435764D01*
X-37360521Y-26379003D01*
X-37403351Y-26315452D01*
X-37450395Y-26245970D01*
X-37501077Y-26171415D01*
X-37554821Y-26092646D01*
X-37611050Y-26010523D01*
X-37637849Y-25971480D01*
X-37694944Y-25888278D01*
X-37749786Y-25808183D01*
X-37801804Y-25732038D01*
X-37850428Y-25660689D01*
X-37895086Y-25594978D01*
X-37935207Y-25535749D01*
X-37970220Y-25483847D01*
X-37999554Y-25440115D01*
X-38022637Y-25405398D01*
X-38038898Y-25380538D01*
X-38047767Y-25366381D01*
X-38049229Y-25363638D01*
X-38052923Y-25336489D01*
X-38049448Y-25320940D01*
X-38043089Y-25311707D01*
X-38026962Y-25293032D01*
X-38000996Y-25264841D01*
X-37965118Y-25227060D01*
X-37919257Y-25179616D01*
X-37863342Y-25122436D01*
X-37797301Y-25055446D01*
X-37721063Y-24978572D01*
X-37634555Y-24891741D01*
X-37537707Y-24794880D01*
X-37532158Y-24789340D01*
X-37460409Y-24717778D01*
X-37391351Y-24649051D01*
X-37325700Y-24583863D01*
X-37264173Y-24522919D01*
X-37207489Y-24466925D01*
X-37156363Y-24416587D01*
X-37111513Y-24372609D01*
X-37073656Y-24335697D01*
X-37043509Y-24306557D01*
X-37021790Y-24285893D01*
X-37009214Y-24274410D01*
X-37006463Y-24272268D01*
X-36995021Y-24267267D01*
X-36983622Y-24264805D01*
X-36970825Y-24265583D01*
X-36955189Y-24270306D01*
X-36935274Y-24279674D01*
X-36909640Y-24294393D01*
X-36876844Y-24315163D01*
X-36835447Y-24342688D01*
X-36784009Y-24377671D01*
X-36768202Y-24388493D01*
X-36636685Y-24478609D01*
X-36516609Y-24560885D01*
X-36407437Y-24635679D01*
X-36308632Y-24703347D01*
X-36219659Y-24764249D01*
X-36139979Y-24818741D01*
X-36069057Y-24867182D01*
X-36006357Y-24909930D01*
X-35951341Y-24947341D01*
X-35903472Y-24979774D01*
X-35862215Y-25007587D01*
X-35827033Y-25031137D01*
X-35797389Y-25050783D01*
X-35772746Y-25066881D01*
X-35752568Y-25079790D01*
X-35736318Y-25089868D01*
X-35723460Y-25097472D01*
X-35713457Y-25102960D01*
X-35705773Y-25106690D01*
X-35699870Y-25109019D01*
X-35695213Y-25110306D01*
X-35691264Y-25110908D01*
X-35687488Y-25111184D01*
X-35683917Y-25111436D01*
X-35674020Y-25111721D01*
X-35662515Y-25110525D01*
X-35647973Y-25107345D01*
X-35628964Y-25101677D01*
X-35604059Y-25093019D01*
X-35571828Y-25080867D01*
X-35530840Y-25064717D01*
X-35479667Y-25044068D01*
X-35416878Y-25018415D01*
X-35400343Y-25011631D01*
X-35328344Y-24982109D01*
X-35247212Y-24948901D01*
X-35161236Y-24913758D01*
X-35074705Y-24878433D01*
X-34991908Y-24844676D01*
X-34917132Y-24814240D01*
X-34899600Y-24807114D01*
X-34842137Y-24783537D01*
X-34788404Y-24761056D01*
X-34740019Y-24740381D01*
X-34698601Y-24722222D01*
X-34665766Y-24707287D01*
X-34643135Y-24696288D01*
X-34632324Y-24689933D01*
X-34632210Y-24689832D01*
X-34615918Y-24671371D01*
X-34604733Y-24654180D01*
X-34601967Y-24644356D01*
X-34596764Y-24621244D01*
X-34589319Y-24585833D01*
X-34579822Y-24539109D01*
X-34568467Y-24482058D01*
X-34555447Y-24415668D01*
X-34540955Y-24340926D01*
X-34525183Y-24258818D01*
X-34508324Y-24170332D01*
X-34490572Y-24076455D01*
X-34472118Y-23978174D01*
X-34460128Y-23913951D01*
X-34441417Y-23813590D01*
X-34423405Y-23717137D01*
X-34406275Y-23625564D01*
X-34390211Y-23539845D01*
X-34375395Y-23460952D01*
X-34362011Y-23389859D01*
X-34350242Y-23327539D01*
X-34340272Y-23274963D01*
X-34332284Y-23233107D01*
X-34326462Y-23202941D01*
X-34322988Y-23185441D01*
X-34322076Y-23181317D01*
X-34313716Y-23168681D01*
X-34298716Y-23154969D01*
X-34297522Y-23154103D01*
X-34293941Y-23151713D01*
X-34289740Y-23149598D01*
X-34284062Y-23147739D01*
X-34276050Y-23146122D01*
X-34264847Y-23144728D01*
X-34249598Y-23143542D01*
X-34229444Y-23142546D01*
X-34203530Y-23141724D01*
X-34170999Y-23141059D01*
X-34130993Y-23140535D01*
X-34082657Y-23140135D01*
X-34025133Y-23139842D01*
X-33957565Y-23139639D01*
X-33879097Y-23139511D01*
X-33788871Y-23139439D01*
X-33686030Y-23139408D01*
X-33569719Y-23139400D01*
X-33542514Y-23139400D01*
X-33423155Y-23139405D01*
X-33423155Y-23139405D01*
G37*
X-33423155Y-23139405D02*
X-33317453Y-23139429D01*
X-33224552Y-23139491D01*
X-33143596Y-23139606D01*
X-33073727Y-23139791D01*
X-33014088Y-23140063D01*
X-32963824Y-23140438D01*
X-32922077Y-23140934D01*
X-32887990Y-23141566D01*
X-32860708Y-23142353D01*
X-32839373Y-23143309D01*
X-32823128Y-23144453D01*
X-32811117Y-23145800D01*
X-32802483Y-23147367D01*
X-32796370Y-23149172D01*
X-32791920Y-23151230D01*
X-32788277Y-23153558D01*
X-32787506Y-23154103D01*
X-32772236Y-23167644D01*
X-32763173Y-23180577D01*
X-32762913Y-23181317D01*
X-32761058Y-23190061D01*
X-32756733Y-23212102D01*
X-32750121Y-23246468D01*
X-32741406Y-23292185D01*
X-32730771Y-23348282D01*
X-32718399Y-23413786D01*
X-32704475Y-23487723D01*
X-32689181Y-23569123D01*
X-32672701Y-23657011D01*
X-32655219Y-23750417D01*
X-32636918Y-23848366D01*
X-32624579Y-23914497D01*
X-32605758Y-24015085D01*
X-32587522Y-24111885D01*
X-32570063Y-24203913D01*
X-32553574Y-24290183D01*
X-32538247Y-24369710D01*
X-32524274Y-24441508D01*
X-32511849Y-24504591D01*
X-32501163Y-24557973D01*
X-32492410Y-24600670D01*
X-32485781Y-24631696D01*
X-32481469Y-24650066D01*
X-32480013Y-24654726D01*
X-32466626Y-24674577D01*
X-32452818Y-24689646D01*
X-32443465Y-24694822D01*
X-32421745Y-24704975D01*
X-32388748Y-24719644D01*
X-32345564Y-24738365D01*
X-32293282Y-24760677D01*
X-32232991Y-24786118D01*
X-32165783Y-24814225D01*
X-32092745Y-24844536D01*
X-32014969Y-24876589D01*
X-31933543Y-24909922D01*
X-31933100Y-24910102D01*
X-31838092Y-24948833D01*
X-31755562Y-24982391D01*
X-31684566Y-25011132D01*
X-31624160Y-25035411D01*
X-31573403Y-25055586D01*
X-31531350Y-25072010D01*
X-31497058Y-25085040D01*
X-31469586Y-25095032D01*
X-31447988Y-25102340D01*
X-31431323Y-25107322D01*
X-31418648Y-25110333D01*
X-31409018Y-25111727D01*
X-31401491Y-25111862D01*
X-31398770Y-25111633D01*
X-31393916Y-25110708D01*
X-31387762Y-25108687D01*
X-31379793Y-25105226D01*
X-31369491Y-25099980D01*
X-31356342Y-25092601D01*
X-31339829Y-25082746D01*
X-31319435Y-25070069D01*
X-31294644Y-25054223D01*
X-31264941Y-25034865D01*
X-31229809Y-25011647D01*
X-31188732Y-24984225D01*
X-31141194Y-24952253D01*
X-31086678Y-24915385D01*
X-31024668Y-24873277D01*
X-30954649Y-24825582D01*
X-30876104Y-24771955D01*
X-30788516Y-24712051D01*
X-30691370Y-24645523D01*
X-30584150Y-24572028D01*
X-30466339Y-24491218D01*
X-30337421Y-24402749D01*
X-30247963Y-24341344D01*
X-30204297Y-24311791D01*
X-30170345Y-24290112D01*
X-30144173Y-24275519D01*
X-30123850Y-24267222D01*
X-30107441Y-24264434D01*
X-30093014Y-24266367D01*
X-30078637Y-24272232D01*
X-30078566Y-24272268D01*
X-30071293Y-24278432D01*
X-30054485Y-24294163D01*
X-30028857Y-24318756D01*
X-29995126Y-24351506D01*
X-29954011Y-24391708D01*
X-29906228Y-24438656D01*
X-29852494Y-24491645D01*
X-29793526Y-24549970D01*
X-29730041Y-24612924D01*
X-29662757Y-24679804D01*
X-29592390Y-24749903D01*
X-29552870Y-24789340D01*
X-29455459Y-24886747D01*
X-29368393Y-24974120D01*
X-29291599Y-25051531D01*
X-29225007Y-25119056D01*
X-29168545Y-25176766D01*
X-29122141Y-25224736D01*
X-29085723Y-25263039D01*
X-29059221Y-25291748D01*
X-29042562Y-25310938D01*
X-29035676Y-25320681D01*
X-29035581Y-25320940D01*
X-29032171Y-25349085D01*
X-29035904Y-25363912D01*
X-29041043Y-25372684D01*
X-29053849Y-25392561D01*
X-29073749Y-25422701D01*
X-29100172Y-25462258D01*
X-29132547Y-25510388D01*
X-29170303Y-25566246D01*
X-29212868Y-25628990D01*
X-29259672Y-25697773D01*
X-29310142Y-25771752D01*
X-29363708Y-25850083D01*
X-29419798Y-25931920D01*
X-29447424Y-25972162D01*
X-29504606Y-26055553D01*
X-29559568Y-26135981D01*
X-29611735Y-26212587D01*
X-29660530Y-26284514D01*
X-29705378Y-26350902D01*
X-29745703Y-26410896D01*
X-29780928Y-26463635D01*
X-29810478Y-26508264D01*
X-29833776Y-26543922D01*
X-29850248Y-26569754D01*
X-29859317Y-26584899D01*
X-29860852Y-26588068D01*
X-29866069Y-26611309D01*
X-29866531Y-26632620D01*
X-29865965Y-26635821D01*
X-29862426Y-26645521D01*
X-29853605Y-26667477D01*
X-29839953Y-26700615D01*
X-29821924Y-26743858D01*
X-29799972Y-26796130D01*
X-29774549Y-26856356D01*
X-29746109Y-26923459D01*
X-29715105Y-26996365D01*
X-29681989Y-27073996D01*
X-29647216Y-27155278D01*
X-29643699Y-27163486D01*
X-29601746Y-27261263D01*
X-29565012Y-27346556D01*
X-29533067Y-27420254D01*
X-29505483Y-27483243D01*
X-29481831Y-27536411D01*
X-29461685Y-27580645D01*
X-29444615Y-27616834D01*
X-29430194Y-27645865D01*
X-29417992Y-27668625D01*
X-29407583Y-27686002D01*
X-29398537Y-27698883D01*
X-29390427Y-27708157D01*
X-29382825Y-27714710D01*
X-29375557Y-27719292D01*
X-29373278Y-27720430D01*
X-29370154Y-27721649D01*
X-29365423Y-27723095D01*
X-29358320Y-27724913D01*
X-29348085Y-27727250D01*
X-29333954Y-27730250D01*
X-29315164Y-27734060D01*
X-29290952Y-27738824D01*
X-29260557Y-27744689D01*
X-29223215Y-27751800D01*
X-29178164Y-27760302D01*
X-29124640Y-27770341D01*
X-29061882Y-27782063D01*
X-28989126Y-27795614D01*
X-28905611Y-27811137D01*
X-28810572Y-27828781D01*
X-28703248Y-27848689D01*
X-28582875Y-27871007D01*
X-28503549Y-27885713D01*
X-28414643Y-27902291D01*
X-28329965Y-27918272D01*
X-28250618Y-27933434D01*
X-28177706Y-27947560D01*
X-28112332Y-27960429D01*
X-28055601Y-27971822D01*
X-28008616Y-27981519D01*
X-27972480Y-27989301D01*
X-27948297Y-27994948D01*
X-27937171Y-27998240D01*
X-27936796Y-27998446D01*
X-27921022Y-28013563D01*
X-27912090Y-28027529D01*
X-27910610Y-28035036D01*
X-27909292Y-28051062D01*
X-27908132Y-28076163D01*
X-27907122Y-28110894D01*
X-27906257Y-28155808D01*
X-27905529Y-28211462D01*
X-27904933Y-28278410D01*
X-27904463Y-28357208D01*
X-27904113Y-28448409D01*
X-27903876Y-28552569D01*
X-27903745Y-28670243D01*
X-27903714Y-28774798D01*
X-27903714Y-29503685D01*
X-27923995Y-29526383D01*
X-27944276Y-29549082D01*
X-28328581Y-29620365D01*
X-28468099Y-29646246D01*
X-28594058Y-29669622D01*
X-28707169Y-29690632D01*
X-28808142Y-29709417D01*
X-28897690Y-29726118D01*
X-28976522Y-29740876D01*
X-29045352Y-29753830D01*
X-29104890Y-29765121D01*
X-29155846Y-29774891D01*
X-29198934Y-29783278D01*
X-29234863Y-29790423D01*
X-29264346Y-29796468D01*
X-29288093Y-29801553D01*
X-29306815Y-29805817D01*
X-29321225Y-29809402D01*
X-29332033Y-29812447D01*
X-29339951Y-29815094D01*
X-29345689Y-29817483D01*
X-29349960Y-29819755D01*
X-29353474Y-29822049D01*
X-29354879Y-29823041D01*
X-29372891Y-29839243D01*
X-29386468Y-29857110D01*
X-29387089Y-29858272D01*
X-29391304Y-29867932D01*
X-29400480Y-29890008D01*
X-29414186Y-29923439D01*
X-29431994Y-29967164D01*
X-29453475Y-30020123D01*
X-29478198Y-30081255D01*
X-29505736Y-30149499D01*
X-29535657Y-30223795D01*
X-29567534Y-30303082D01*
X-29600936Y-30386299D01*
X-29611951Y-30413771D01*
X-29652335Y-30514583D01*
X-29687593Y-30602843D01*
X-29718035Y-30679458D01*
X-29743967Y-30745335D01*
X-29765697Y-30801383D01*
X-29783533Y-30848508D01*
X-29797782Y-30887618D01*
X-29808753Y-30919620D01*
X-29816752Y-30945422D01*
X-29822088Y-30965930D01*
X-29825067Y-30982053D01*
X-29825998Y-30994697D01*
X-29825188Y-31004770D01*
X-29822945Y-31013180D01*
X-29819576Y-31020833D01*
X-29818481Y-31022949D01*
X-29813225Y-31031129D01*
X-29800329Y-31050401D01*
X-29780382Y-31079901D01*
X-29753975Y-31118767D01*
X-29721696Y-31166135D01*
X-29684137Y-31221140D01*
X-29641885Y-31282921D01*
X-29595532Y-31350612D01*
X-29545666Y-31423352D01*
X-29492878Y-31500276D01*
X-29437757Y-31580520D01*
X-29429429Y-31592638D01*
X-29373935Y-31673436D01*
X-29320646Y-31751146D01*
X-29270156Y-31824893D01*
X-29223060Y-31893802D01*
X-29179953Y-31957000D01*
X-29141430Y-32013613D01*
X-29108086Y-32062765D01*
X-29080515Y-32103582D01*
X-29059312Y-32135190D01*
X-29045073Y-32156715D01*
X-29038392Y-32167282D01*
X-29038098Y-32167829D01*
X-29031180Y-32192783D01*
X-29031950Y-32209691D01*
X-29037653Y-32217693D01*
X-29052860Y-32235031D01*
X-29076732Y-32260863D01*
X-29108426Y-32294346D01*
X-29147102Y-32334635D01*
X-29191920Y-32380889D01*
X-29242038Y-32432262D01*
X-29296616Y-32487914D01*
X-29354813Y-32546998D01*
X-29415789Y-32608674D01*
X-29478701Y-32672097D01*
X-29542710Y-32736424D01*
X-29606975Y-32800812D01*
X-29670654Y-32864418D01*
X-29732908Y-32926397D01*
X-29792894Y-32985908D01*
X-29849774Y-33042106D01*
X-29902705Y-33094148D01*
X-29950846Y-33141192D01*
X-29993358Y-33182393D01*
X-30029399Y-33216909D01*
X-30058129Y-33243897D01*
X-30078706Y-33262512D01*
X-30090289Y-33271911D01*
X-30091979Y-33272842D01*
X-30114246Y-33275058D01*
X-30130101Y-33272001D01*
X-30138897Y-33266951D01*
X-30158770Y-33254259D01*
X-30188845Y-33234519D01*
X-30228243Y-33208320D01*
X-30276088Y-33176253D01*
X-30331503Y-33138910D01*
X-30393611Y-33096882D01*
X-30461536Y-33050760D01*
X-30534400Y-33001134D01*
X-30611326Y-32948595D01*
X-30691439Y-32893736D01*
X-30697818Y-32889361D01*
X-30778240Y-32834271D01*
X-30855610Y-32781400D01*
X-30929044Y-32731345D01*
X-30997657Y-32684701D01*
X-31060566Y-32642067D01*
X-31116886Y-32604038D01*
X-31165734Y-32571213D01*
X-31206224Y-32544188D01*
X-31237472Y-32523560D01*
X-31258595Y-32509925D01*
X-31268709Y-32503882D01*
X-31268981Y-32503759D01*
X-31279628Y-32499277D01*
X-31289326Y-32495916D01*
X-31299248Y-32494160D01*
X-31310566Y-32494496D01*
X-31324451Y-32497406D01*
X-31342076Y-32503376D01*
X-31364611Y-32512891D01*
X-31393230Y-32526435D01*
X-31429103Y-32544493D01*
X-31473403Y-32567550D01*
X-31527301Y-32596090D01*
X-31591970Y-32630599D01*
X-31647851Y-32660478D01*
X-31707096Y-32691806D01*
X-31759059Y-32718575D01*
X-31802665Y-32740264D01*
X-31836841Y-32756351D01*
X-31860510Y-32766312D01*
X-31872442Y-32769629D01*
X-31891988Y-32765079D01*
X-31904817Y-32756453D01*
X-31907764Y-32751265D01*
X-31913644Y-32738859D01*
X-31922589Y-32718922D01*
X-31934728Y-32691140D01*
X-31950193Y-32655200D01*
X-31969115Y-32610787D01*
X-31991624Y-32557588D01*
X-32017852Y-32495288D01*
X-32047930Y-32423575D01*
X-32081989Y-32342134D01*
X-32120159Y-32250652D01*
X-32162572Y-32148814D01*
X-32209359Y-32036306D01*
X-32260650Y-31912816D01*
X-32316577Y-31778029D01*
X-32377270Y-31631631D01*
X-32442860Y-31473309D01*
X-32513479Y-31302748D01*
X-32589258Y-31119635D01*
X-32670327Y-30923657D01*
X-32736751Y-30763029D01*
X-32767983Y-30687430D01*
X-32797644Y-30615503D01*
X-32825256Y-30548419D01*
X-32850340Y-30487347D01*
X-32872417Y-30433456D01*
X-32891009Y-30387915D01*
X-32905637Y-30351894D01*
X-32915821Y-30326562D01*
X-32921083Y-30313090D01*
X-32921654Y-30311459D01*
X-32923271Y-30290776D01*
X-32914767Y-30270064D01*
X-32895150Y-30248123D01*
X-32863426Y-30223752D01*
X-32833000Y-30204312D01*
X-32797973Y-30182381D01*
X-32761492Y-30158358D01*
X-32728975Y-30135861D01*
X-32713922Y-30124826D01*
X-32684139Y-30102622D01*
X-32652021Y-30079240D01*
X-32624363Y-30059623D01*
X-32623588Y-30059086D01*
X-32601642Y-30042922D01*
X-32572536Y-30020149D01*
X-32540001Y-29993747D01*
X-32507773Y-29966697D01*
X-32506647Y-29965733D01*
X-32399762Y-29864662D01*
X-32303331Y-29753920D01*
X-32217821Y-29634367D01*
X-32143699Y-29506864D01*
X-32081432Y-29372269D01*
X-32031488Y-29231446D01*
X-31994333Y-29085253D01*
X-31977800Y-28991448D01*
X-31971618Y-28935095D01*
X-31967733Y-28868723D01*
X-31966142Y-28796644D01*
X-31966840Y-28723168D01*
X-31969824Y-28652608D01*
X-31975090Y-28589275D01*
X-31978176Y-28564477D01*
X-32006107Y-28416705D01*
X-32047239Y-28273916D01*
X-32100969Y-28136836D01*
X-32166690Y-28006191D01*
X-32243800Y-27882704D01*
X-32331692Y-27767102D01*
X-32429761Y-27660109D01*
X-32537404Y-27562451D01*
X-32654016Y-27474852D01*
X-32778991Y-27398039D01*
X-32911725Y-27332735D01*
X-33049028Y-27280511D01*
X-33153458Y-27249602D01*
X-33253926Y-27227199D01*
X-33355090Y-27212577D01*
X-33461608Y-27205009D01*
X-33542514Y-27203519D01*
X-33655612Y-27206547D01*
X-33760070Y-27216117D01*
X-33860545Y-27232954D01*
X-33961696Y-27257786D01*
X-34036000Y-27280511D01*
X-34175297Y-27333658D01*
X-34307811Y-27399169D01*
X-34432842Y-27476298D01*
X-34549692Y-27564301D01*
X-34657661Y-27662434D01*
X-34756051Y-27769952D01*
X-34844162Y-27886110D01*
X-34921296Y-28010165D01*
X-34986753Y-28141371D01*
X-35039835Y-28278984D01*
X-35070107Y-28382039D01*
X-35092046Y-28477945D01*
X-35107080Y-28569494D01*
X-35115924Y-28662439D01*
X-35119294Y-28762534D01*
X-35119371Y-28778200D01*
X-35112554Y-28929928D01*
X-35091717Y-29078215D01*
X-35057045Y-29222588D01*
X-35008725Y-29362576D01*
X-34946944Y-29497706D01*
X-34871889Y-29627506D01*
X-34783746Y-29751504D01*
X-34692284Y-29858940D01*
X-34662181Y-29889486D01*
X-34623889Y-29925350D01*
X-34581018Y-29963399D01*
X-34537183Y-30000502D01*
X-34495993Y-30033527D01*
X-34461433Y-30059086D01*
X-34434048Y-30078488D01*
X-34401973Y-30101824D01*
X-34372001Y-30124148D01*
X-34371106Y-30124826D01*
X-34343438Y-30144745D01*
X-34308625Y-30168312D01*
X-34272088Y-30191908D01*
X-34252028Y-30204312D01*
X-34211104Y-30231136D01*
X-34182991Y-30254680D01*
X-34166696Y-30276147D01*
X-34161223Y-30296735D01*
X-34163356Y-30311459D01*
X-34166911Y-30320824D01*
X-34175545Y-30342429D01*
X-34188778Y-30375102D01*
X-34206132Y-30417676D01*
X-34227127Y-30468981D01*
X-34251285Y-30527846D01*
X-34278128Y-30593104D01*
X-34307175Y-30663583D01*
X-34337949Y-30738116D01*
X-34348248Y-30763029D01*
X-34433456Y-30969063D01*
X-34513273Y-31161991D01*
X-34587831Y-31342127D01*
X-34657260Y-31509786D01*
X-34721692Y-31665284D01*
X-34781259Y-31808937D01*
X-34836093Y-31941059D01*
X-34886326Y-32061966D01*
X-34932087Y-32171973D01*
X-34973511Y-32271395D01*
X-35010727Y-32360549D01*
X-35043868Y-32439749D01*
X-35073065Y-32509310D01*
X-35098450Y-32569548D01*
X-35120154Y-32620778D01*
X-35138309Y-32663315D01*
X-35153047Y-32697476D01*
X-35164498Y-32723574D01*
X-35172796Y-32741926D01*
X-35178071Y-32752846D01*
X-35180211Y-32756453D01*
X-35196269Y-32766392D01*
X-35212586Y-32769629D01*
X-35224985Y-32766138D01*
X-35248936Y-32756013D01*
X-35283366Y-32739777D01*
X-35327200Y-32717951D01*
X-35379363Y-32691058D01*
X-35437177Y-32660478D01*
X-35510631Y-32621208D01*
X-35572441Y-32588268D01*
X-35623780Y-32561172D01*
X-35665820Y-32539436D01*
X-35699731Y-32522575D01*
X-35726687Y-32510104D01*
X-35747859Y-32501538D01*
X-35764420Y-32496394D01*
X-35777540Y-32494185D01*
X-35788391Y-32494427D01*
X-35798147Y-32496636D01*
X-35807978Y-32500326D01*
X-35816047Y-32503749D01*
X-35825359Y-32509238D01*
X-35845745Y-32522356D01*
X-35876319Y-32542508D01*
X-35916199Y-32569096D01*
X-35964498Y-32601524D01*
X-36020334Y-32639195D01*
X-36082821Y-32681512D01*
X-36151075Y-32727879D01*
X-36224213Y-32777699D01*
X-36301350Y-32830376D01*
X-36381600Y-32885312D01*
X-36387314Y-32889228D01*
X-36467581Y-32944195D01*
X-36544671Y-32996879D01*
X-36617712Y-33046692D01*
X-36685834Y-33093044D01*
X-36748164Y-33135346D01*
X-36803834Y-33173008D01*
X-36851971Y-33205442D01*
X-36891705Y-33232059D01*
X-36922165Y-33252269D01*
X-36942479Y-33265483D01*
X-36951778Y-33271113D01*
X-36952029Y-33271222D01*
X-36973653Y-33276729D01*
X-36993272Y-33273600D01*
X-36998723Y-33271583D01*
X-37005528Y-33265849D01*
X-37021878Y-33250533D01*
X-37047069Y-33226328D01*
X-37080397Y-33193929D01*
X-37121157Y-33154030D01*
X-37168644Y-33107323D01*
X-37222154Y-33054504D01*
X-37280982Y-32996265D01*
X-37344424Y-32933302D01*
X-37411775Y-32866307D01*
X-37482331Y-32795974D01*
X-37529996Y-32748378D01*
X-37623136Y-32655201D01*
X-37706215Y-32571854D01*
X-37779542Y-32498017D01*
X-37843429Y-32433370D01*
X-37898189Y-32377592D01*
X-37944131Y-32330362D01*
X-37981567Y-32291360D01*
X-38010808Y-32260265D01*
X-38032167Y-32236757D01*
X-38045954Y-32220514D01*
X-38052480Y-32211217D01*
X-38053078Y-32209691D01*
X-38052750Y-32185203D01*
X-38047031Y-32168031D01*
X-38041452Y-32159073D01*
X-38028233Y-32139035D01*
X-38007965Y-32108788D01*
X-37981244Y-32069206D01*
X-37948661Y-32021160D01*
X-37910812Y-31965523D01*
X-37868289Y-31903167D01*
X-37821685Y-31834964D01*
X-37771595Y-31761785D01*
X-37718611Y-31684504D01*
X-37663327Y-31603993D01*
X-37654388Y-31590986D01*
X-37598868Y-31510124D01*
X-37545620Y-31432401D01*
X-37495233Y-31358684D01*
X-37448292Y-31289839D01*
X-37405385Y-31226733D01*
X-37367098Y-31170232D01*
X-37334019Y-31121203D01*
X-37306735Y-31080513D01*
X-37285833Y-31049027D01*
X-37271899Y-31027613D01*
X-37265520Y-31017137D01*
X-37265234Y-31016517D01*
X-37260083Y-30995403D01*
X-37258171Y-30974111D01*
X-37260796Y-30964756D01*
X-37268344Y-30943174D01*
X-37280327Y-30910607D01*
X-37296255Y-30868296D01*
X-37315639Y-30817481D01*
X-37337991Y-30759403D01*
X-37362821Y-30695304D01*
X-37389640Y-30626424D01*
X-37417959Y-30554005D01*
X-37447289Y-30479286D01*
X-37477141Y-30403510D01*
X-37507026Y-30327916D01*
X-37536455Y-30253747D01*
X-37564939Y-30182243D01*
X-37591988Y-30114645D01*
X-37617114Y-30052193D01*
X-37639828Y-29996130D01*
X-37659640Y-29947695D01*
X-37676062Y-29908129D01*
X-37688604Y-29878675D01*
X-37696778Y-29860572D01*
X-37697923Y-29858272D01*
X-37710881Y-29840611D01*
X-37728831Y-29824000D01*
X-37730150Y-29823041D01*
X-37733559Y-29820696D01*
X-37737429Y-29818432D01*
X-37742472Y-29816109D01*
X-37749399Y-29813586D01*
X-37758922Y-29810723D01*
X-37771750Y-29807379D01*
X-37788597Y-29803414D01*
X-37810173Y-29798687D01*
X-37837189Y-29793058D01*
X-37870356Y-29786386D01*
X-37910387Y-29778531D01*
X-37957992Y-29769352D01*
X-38013882Y-29758710D01*
X-38078769Y-29746462D01*
X-38153365Y-29732470D01*
X-38238380Y-29716593D01*
X-38334525Y-29698689D01*
X-38442512Y-29678619D01*
X-38563053Y-29656243D01*
X-38696859Y-29631419D01*
X-38756448Y-29620365D01*
X-39140753Y-29549082D01*
X-39161033Y-29526383D01*
X-39181314Y-29503685D01*
X-39181314Y-28774798D01*
X-39181265Y-28645881D01*
X-39181114Y-28530923D01*
X-39180855Y-28429368D01*
X-39180481Y-28340663D01*
X-39179987Y-28264253D01*
X-39179366Y-28199581D01*
X-39178612Y-28146095D01*
X-39177718Y-28103237D01*
X-39176679Y-28070455D01*
X-39175488Y-28047192D01*
X-39174139Y-28032894D01*
X-39172938Y-28027529D01*
X-39160386Y-28009302D01*
X-39148233Y-27998446D01*
X-39138587Y-27995422D01*
X-39115765Y-27990019D01*
X-39080871Y-27982458D01*
X-39035007Y-27972958D01*
X-38979278Y-27961738D01*
X-38914788Y-27949019D01*
X-38842639Y-27935019D01*
X-38763936Y-27919958D01*
X-38679782Y-27904055D01*
X-38591281Y-27887531D01*
X-38581480Y-27885713D01*
X-38452859Y-27861868D01*
X-38337746Y-27840522D01*
X-38235380Y-27821529D01*
X-38144998Y-27804742D01*
X-38065836Y-27790018D01*
X-37997132Y-27777209D01*
X-37938123Y-27766171D01*
X-37888047Y-27756758D01*
X-37846141Y-27748824D01*
X-37811642Y-27742225D01*
X-37783788Y-27736813D01*
X-37761815Y-27732444D01*
X-37744962Y-27728973D01*
X-37732465Y-27726253D01*
X-37723562Y-27724139D01*
X-37717490Y-27722485D01*
X-37713486Y-27721147D01*
X-37710789Y-27719978D01*
X-37709471Y-27719292D01*
X-37701938Y-27714524D01*
X-37694321Y-27707914D01*
X-37686193Y-27698573D01*
X-37677125Y-27685614D01*
X-37666688Y-27668149D01*
X-37654454Y-27645290D01*
X-37639995Y-27616148D01*
X-37622881Y-27579836D01*
X-37602685Y-27535465D01*
X-37578977Y-27482148D01*
X-37551330Y-27418997D01*
X-37519314Y-27345123D01*
X-37482501Y-27259639D01*
X-37441247Y-27163486D01*
X-37406334Y-27081901D01*
X-37373036Y-27003861D01*
X-37341804Y-26930439D01*
X-37313093Y-26862713D01*
X-37287355Y-26801759D01*
X-37265044Y-26748651D01*
X-37246612Y-26704466D01*
X-37232512Y-26670279D01*
X-37223198Y-26647167D01*
X-37219123Y-26636204D01*
X-37219021Y-26635821D01*
X-37218457Y-26616114D01*
X-37222814Y-26592436D01*
X-37224316Y-26587661D01*
X-37229757Y-26577731D01*
X-37242871Y-26556718D01*
X-37263080Y-26525480D01*
X-37289809Y-26484876D01*
X-37322481Y-26435764D01*
X-37360521Y-26379003D01*
X-37403351Y-26315452D01*
X-37450395Y-26245970D01*
X-37501077Y-26171415D01*
X-37554821Y-26092646D01*
X-37611050Y-26010523D01*
X-37637849Y-25971480D01*
X-37694944Y-25888278D01*
X-37749786Y-25808183D01*
X-37801804Y-25732038D01*
X-37850428Y-25660689D01*
X-37895086Y-25594978D01*
X-37935207Y-25535749D01*
X-37970220Y-25483847D01*
X-37999554Y-25440115D01*
X-38022637Y-25405398D01*
X-38038898Y-25380538D01*
X-38047767Y-25366381D01*
X-38049229Y-25363638D01*
X-38052923Y-25336489D01*
X-38049448Y-25320940D01*
X-38043089Y-25311707D01*
X-38026962Y-25293032D01*
X-38000996Y-25264841D01*
X-37965118Y-25227060D01*
X-37919257Y-25179616D01*
X-37863342Y-25122436D01*
X-37797301Y-25055446D01*
X-37721063Y-24978572D01*
X-37634555Y-24891741D01*
X-37537707Y-24794880D01*
X-37532158Y-24789340D01*
X-37460409Y-24717778D01*
X-37391351Y-24649051D01*
X-37325700Y-24583863D01*
X-37264173Y-24522919D01*
X-37207489Y-24466925D01*
X-37156363Y-24416587D01*
X-37111513Y-24372609D01*
X-37073656Y-24335697D01*
X-37043509Y-24306557D01*
X-37021790Y-24285893D01*
X-37009214Y-24274410D01*
X-37006463Y-24272268D01*
X-36995021Y-24267267D01*
X-36983622Y-24264805D01*
X-36970825Y-24265583D01*
X-36955189Y-24270306D01*
X-36935274Y-24279674D01*
X-36909640Y-24294393D01*
X-36876844Y-24315163D01*
X-36835447Y-24342688D01*
X-36784009Y-24377671D01*
X-36768202Y-24388493D01*
X-36636685Y-24478609D01*
X-36516609Y-24560885D01*
X-36407437Y-24635679D01*
X-36308632Y-24703347D01*
X-36219659Y-24764249D01*
X-36139979Y-24818741D01*
X-36069057Y-24867182D01*
X-36006357Y-24909930D01*
X-35951341Y-24947341D01*
X-35903472Y-24979774D01*
X-35862215Y-25007587D01*
X-35827033Y-25031137D01*
X-35797389Y-25050783D01*
X-35772746Y-25066881D01*
X-35752568Y-25079790D01*
X-35736318Y-25089868D01*
X-35723460Y-25097472D01*
X-35713457Y-25102960D01*
X-35705773Y-25106690D01*
X-35699870Y-25109019D01*
X-35695213Y-25110306D01*
X-35691264Y-25110908D01*
X-35687488Y-25111184D01*
X-35683917Y-25111436D01*
X-35674020Y-25111721D01*
X-35662515Y-25110525D01*
X-35647973Y-25107345D01*
X-35628964Y-25101677D01*
X-35604059Y-25093019D01*
X-35571828Y-25080867D01*
X-35530840Y-25064717D01*
X-35479667Y-25044068D01*
X-35416878Y-25018415D01*
X-35400343Y-25011631D01*
X-35328344Y-24982109D01*
X-35247212Y-24948901D01*
X-35161236Y-24913758D01*
X-35074705Y-24878433D01*
X-34991908Y-24844676D01*
X-34917132Y-24814240D01*
X-34899600Y-24807114D01*
X-34842137Y-24783537D01*
X-34788404Y-24761056D01*
X-34740019Y-24740381D01*
X-34698601Y-24722222D01*
X-34665766Y-24707287D01*
X-34643135Y-24696288D01*
X-34632324Y-24689933D01*
X-34632210Y-24689832D01*
X-34615918Y-24671371D01*
X-34604733Y-24654180D01*
X-34601967Y-24644356D01*
X-34596764Y-24621244D01*
X-34589319Y-24585833D01*
X-34579822Y-24539109D01*
X-34568467Y-24482058D01*
X-34555447Y-24415668D01*
X-34540955Y-24340926D01*
X-34525183Y-24258818D01*
X-34508324Y-24170332D01*
X-34490572Y-24076455D01*
X-34472118Y-23978174D01*
X-34460128Y-23913951D01*
X-34441417Y-23813590D01*
X-34423405Y-23717137D01*
X-34406275Y-23625564D01*
X-34390211Y-23539845D01*
X-34375395Y-23460952D01*
X-34362011Y-23389859D01*
X-34350242Y-23327539D01*
X-34340272Y-23274963D01*
X-34332284Y-23233107D01*
X-34326462Y-23202941D01*
X-34322988Y-23185441D01*
X-34322076Y-23181317D01*
X-34313716Y-23168681D01*
X-34298716Y-23154969D01*
X-34297522Y-23154103D01*
X-34293941Y-23151713D01*
X-34289740Y-23149598D01*
X-34284062Y-23147739D01*
X-34276050Y-23146122D01*
X-34264847Y-23144728D01*
X-34249598Y-23143542D01*
X-34229444Y-23142546D01*
X-34203530Y-23141724D01*
X-34170999Y-23141059D01*
X-34130993Y-23140535D01*
X-34082657Y-23140135D01*
X-34025133Y-23139842D01*
X-33957565Y-23139639D01*
X-33879097Y-23139511D01*
X-33788871Y-23139439D01*
X-33686030Y-23139408D01*
X-33569719Y-23139400D01*
X-33542514Y-23139400D01*
X-33423155Y-23139405D01*
D11*
X-55625857Y-20387571D02*
X-55625857Y-21601857D01*
X-55554429Y-21744714D01*
X-55483000Y-21816143D01*
X-55340143Y-21887571D01*
X-55054429Y-21887571D01*
X-54911571Y-21816143D01*
X-54840143Y-21744714D01*
X-54768714Y-21601857D01*
X-54768714Y-20387571D01*
X-53268714Y-21887571D02*
X-54125857Y-21887571D01*
X-53697285Y-21887571D02*
X-53697285Y-20387571D01*
X-53840142Y-20601857D01*
X-53983000Y-20744714D01*
X-54125857Y-20816143D01*
X-56788572Y-15180571D02*
X-56502858Y-15180571D01*
X-56360000Y-15252000D01*
X-56217143Y-15394857D01*
X-56145715Y-15680571D01*
X-56145715Y-16180571D01*
X-56217143Y-16466286D01*
X-56360000Y-16609143D01*
X-56502858Y-16680571D01*
X-56788572Y-16680571D01*
X-56931429Y-16609143D01*
X-57074286Y-16466286D01*
X-57145715Y-16180571D01*
X-57145715Y-15680571D01*
X-57074286Y-15394857D01*
X-56931429Y-15252000D01*
X-56788572Y-15180571D01*
X-54788571Y-16680571D02*
X-55502857Y-16680571D01*
X-55502857Y-15180571D01*
X-54288571Y-15894857D02*
X-53788571Y-15894857D01*
X-53574285Y-16680571D02*
X-54288571Y-16680571D01*
X-54288571Y-15180571D01*
X-53574285Y-15180571D01*
X-52931428Y-16680571D02*
X-52931428Y-15180571D01*
X-52574285Y-15180571D01*
X-52360000Y-15252000D01*
X-52217142Y-15394857D01*
X-52145714Y-15537714D01*
X-52074285Y-15823429D01*
X-52074285Y-16037714D01*
X-52145714Y-16323429D01*
X-52217142Y-16466286D01*
X-52360000Y-16609143D01*
X-52574285Y-16680571D01*
X-52931428Y-16680571D01*
D10*
X-12274476Y-17125905D02*
X-12274476Y-16325905D01*
X-12084000Y-16325905D01*
X-11969714Y-16364000D01*
X-11893523Y-16440190D01*
X-11855428Y-16516381D01*
X-11817333Y-16668762D01*
X-11817333Y-16783048D01*
X-11855428Y-16935429D01*
X-11893523Y-17011619D01*
X-11969714Y-17087810D01*
X-12084000Y-17125905D01*
X-12274476Y-17125905D01*
X-11055428Y-17125905D02*
X-11512571Y-17125905D01*
X-11284000Y-17125905D02*
X-11284000Y-16325905D01*
X-11360190Y-16440190D01*
X-11436381Y-16516381D01*
X-11512571Y-16554476D01*
D12*
X-64849619Y-16613095D02*
X-65849619Y-16613095D01*
X-65849619Y-16375000D01*
X-65802000Y-16232142D01*
X-65706762Y-16136904D01*
X-65611524Y-16089285D01*
X-65421048Y-16041666D01*
X-65278190Y-16041666D01*
X-65087714Y-16089285D01*
X-64992476Y-16136904D01*
X-64897238Y-16232142D01*
X-64849619Y-16375000D01*
X-64849619Y-16613095D01*
X-65849619Y-15708333D02*
X-65849619Y-15089285D01*
X-65468667Y-15422619D01*
X-65468667Y-15279761D01*
X-65421048Y-15184523D01*
X-65373429Y-15136904D01*
X-65278190Y-15089285D01*
X-65040095Y-15089285D01*
X-64944857Y-15136904D01*
X-64897238Y-15184523D01*
X-64849619Y-15279761D01*
X-64849619Y-15565476D01*
X-64897238Y-15660714D01*
X-64944857Y-15708333D01*
X-7675619Y-14898666D02*
X-8151810Y-15232000D01*
X-7675619Y-15470095D02*
X-8675619Y-15470095D01*
X-8675619Y-15089142D01*
X-8628000Y-14993904D01*
X-8580381Y-14946285D01*
X-8485143Y-14898666D01*
X-8342286Y-14898666D01*
X-8247048Y-14946285D01*
X-8199429Y-14993904D01*
X-8151810Y-15089142D01*
X-8151810Y-15470095D01*
X-7675619Y-13946285D02*
X-7675619Y-14517714D01*
X-7675619Y-14232000D02*
X-8675619Y-14232000D01*
X-8532762Y-14327238D01*
X-8437524Y-14422476D01*
X-8389905Y-14517714D01*
X-63158666Y-20767381D02*
X-63492000Y-20291190D01*
X-63730095Y-20767381D02*
X-63730095Y-19767381D01*
X-63349142Y-19767381D01*
X-63253904Y-19815000D01*
X-63206285Y-19862619D01*
X-63158666Y-19957857D01*
X-63158666Y-20100714D01*
X-63206285Y-20195952D01*
X-63253904Y-20243571D01*
X-63349142Y-20291190D01*
X-63730095Y-20291190D01*
X-62777714Y-19862619D02*
X-62730095Y-19815000D01*
X-62634857Y-19767381D01*
X-62396761Y-19767381D01*
X-62301523Y-19815000D01*
X-62253904Y-19862619D01*
X-62206285Y-19957857D01*
X-62206285Y-20053095D01*
X-62253904Y-20195952D01*
X-62825333Y-20767381D01*
X-62206285Y-20767381D01*
D11*
X-20518000Y-6710714D02*
X-20346571Y-6767857D01*
X-20060857Y-6767857D01*
X-19946571Y-6710714D01*
X-19889428Y-6653571D01*
X-19832285Y-6539286D01*
X-19832285Y-6425000D01*
X-19889428Y-6310714D01*
X-19946571Y-6253571D01*
X-20060857Y-6196429D01*
X-20289428Y-6139286D01*
X-20403714Y-6082143D01*
X-20460857Y-6025000D01*
X-20518000Y-5910714D01*
X-20518000Y-5796429D01*
X-20460857Y-5682143D01*
X-20403714Y-5625000D01*
X-20289428Y-5567857D01*
X-20003714Y-5567857D01*
X-19832285Y-5625000D01*
X-19432285Y-5567857D02*
X-19146571Y-6767857D01*
X-18918000Y-5910714D01*
X-18689428Y-6767857D01*
X-18403714Y-5567857D01*
X-17317999Y-6767857D02*
X-18003714Y-6767857D01*
X-17660856Y-6767857D02*
X-17660856Y-5567857D01*
X-17775142Y-5739286D01*
X-17889428Y-5853571D01*
X-18003714Y-5910714D01*
M02*
